{
.appVersion = "1147";
DisplayStrings = (
"/quotedblleft Hello/quotedblright",
"a aah naan abott abduct action admit aeon after again ahoy ajust faker alike logjam an ape aorta aqua arc applejack basketball expatriot autumn gavel awe axe says bedazzle  b) b bad dribble ribcage cabdriver bed obfuscate hobgoblins bhindi bicycle bjorn liebknecht bliss crabmill snubnose boss subpoena subquality brick absolute debt butter obvious bwana subxhosa by jekabzeel  c) c cab ecbolic lucca anecdote cedar flicflac marcgravia cheese oscillate acjo chicken cliff acme picnic cobbler pincpinc lacquer crime tropics object cute mechanicville arcticward cx cypriot czech",
j,
"/zero.dnom",
"/oneinferior",
"/one.dnom",
"/caronvertical"
);
classes = (
{
automatic = 1;
code = " onesuperior twosuperior threesuperior ";
name = sups2;
},
{
automatic = 1;
code = " one two three ";
name = sups1;
},
{
automatic = 1;
code = " zero one two three four five six seven eight nine ";
name = ordn1;
},
{
automatic = 1;

glyphs = (
{
color = 9;
glyphname = A;
lastChange = "2018-06-05 02:45:14 +0000";
layers = (
{
anchors = (
{
name = btm;
position = "{562, 0}";
},
{
name = top;
position = "{562, 1500}";
}
);
guideLines = (
{
position = "{828, 866}";
}
);
layerId = "184835E3-72D9-430C-A639-2454AC4A0BE8";
paths = (
{
closed = 1;
nodes = (
"255 277 LINE",
"748 277 LINE",
"709 397 LINE",
"288 397 LINE {name = hr00;}"
);
},
{
closed = 1;
nodes = (
"415 986 LINE",
"141 198 LINE SMOOTH",
"118 131 OFFCURVE",
"66 98 OFFCURVE",
"10 98 CURVE",
"10 62 OFFCURVE",
"23 25 OFFCURVE",
"46 0 CURVE",
"388 0 LINE",
"411 25 OFFCURVE",
"424 62 OFFCURVE",
"424 98 CURVE",
"362 98 OFFCURVE",
"326 122 OFFCURVE",
"326 177 CURVE SMOOTH",
"326 196 OFFCURVE",
"331 218 OFFCURVE",
"339 244 CURVE SMOOTH",
"544 957 LINE"
);
},
{
closed = 1;
nodes = (
"262 1073 LINE",
"239 1044 OFFCURVE",
"226 1004 OFFCURVE",
"226 962 CURVE",
"403 962 OFFCURVE",
"509 908 OFFCURVE",
"546 778 CURVE SMOOTH",
"697 244 LINE SMOOTH",
"705 215 OFFCURVE",
"709 191 OFFCURVE",
"709 172 CURVE SMOOTH",
"709 120 OFFCURVE",
"680 98 OFFCURVE",
"626 98 CURVE",
"626 62 OFFCURVE",
"638 25 OFFCURVE",
"661 0 CURVE",
"1079 0 LINE",
"1102 25 OFFCURVE",
"1114 62 OFFCURVE",
"1114 98 CURVE",
"1061 98 OFFCURVE",
"1005 131 OFFCURVE",
"983 198 CURVE SMOOTH",
"697 1073 LINE"
);
}
);
width = 1124;
}
);
leftKerningGroup = A;
rightKerningGroup = A;
unicode = 0041;
},
{
color = 9;
glyphname = AE;
lastChange = "2018-06-05 02:45:14 +0000";
layers = (
{
anchors = (
{
name = btm;
position = "{779, 0}";
},
{
name = top;
position = "{779, 1500}";
}
);
layerId = "184835E3-72D9-430C-A639-2454AC4A0BE8";
paths = (
{
closed = 1;
nodes = (
"362 244 LINE",
"918 244 LINE",
"878 364 LINE",
"367 364 LINE {name = hr01;}"
);
},
{
closed = 1;
nodes = (
"583 951 LINE",
"204 188 LINE SMOOTH",
"174 128 OFFCURVE",
"123 90 OFFCURVE",
"69 90 CURVE {name = hr02;}",
"69 54 OFFCURVE",
"82 17 OFFCURVE",
"104 -8 CURVE",
"461 -8 LINE",
"484 17 OFFCURVE",
"496 54 OFFCURVE",
"496 90 CURVE",
"438 90 OFFCURVE",
"401 111 OFFCURVE",
"401 159 CURVE SMOOTH",
"401 180 OFFCURVE",
"407 205 OFFCURVE",
"422 236 CURVE SMOOTH",
"738 908 LINE"
);
},
{
closed = 1;
nodes = (
"322 1037 OFFCURVE",
"309 996 OFFCURVE",
"309 955 CURVE",
"330 958 OFFCURVE",
"351 959 OFFCURVE",
"370 959 CURVE SMOOTH",
"475 959 OFFCURVE",
"543 917 OFFCURVE",
"543 854 CURVE SMOOTH",
"543 839 OFFCURVE",
"539 822 OFFCURVE",
"531 804 CURVE {name = hr03;}",
"658 899 LINE",
"737 908 LINE",
"737 168 LINE SMOOTH",
"737 110 OFFCURVE",
"711 89 OFFCURVE",
"644 89 CURVE",
"644 53 OFFCURVE",
"658 17 OFFCURVE",
"679 -8 CURVE {name = hr04;}",
"1306 -8 LINE",
"1343 -25 OFFCURVE",
"1386 -33 OFFCURVE",
"1422 -33 CURVE {name = hr05;}",
"1451 23 OFFCURVE",
"1471 215 OFFCURVE",
"1471 275 CURVE",
"1345 275 LINE",
"1316 188 OFFCURVE",
"1258 127 OFFCURVE",
"1152 127 CURVE SMOOTH {name = hr06;}",
"911 127 LINE",
"989 82 LINE {name = hr07;}",
"989 518 LINE",
"898 481 LINE",
"1118 481 LINE SMOOTH",
"1175 481 OFFCURVE",
"1217 455 OFFCURVE",
"1217 373 CURVE",
"1262 373 OFFCURVE",
"1306 385 OFFCURVE",
"1338 406 CURVE",
"1337 676 LINE",
"1305 696 OFFCURVE",
"1262 709 OFFCURVE",
"1217 709 CURVE",
"1217 626 OFFCURVE",
"1174 593 OFFCURVE",
"1117 593 CURVE SMOOTH",
"937 593 LINE {name = hr08;}",
"989 566 LINE",
"989 970 LINE",
"840 935 LINE",
"1138 935 LINE SMOOTH",
"1219 935 OFFCURVE",
"1262 866 OFFCURVE",
"1284 800 CURVE",
"1322 808 OFFCURVE",
"1380 834 OFFCURVE",
"1407 857 CURVE",
"1407 909 OFFCURVE",
"1385 1041 OFFCURVE",
"1360 1091 CURVE",
"1322 1091 OFFCURVE",
"1280 1082 OFFCURVE",
"1241 1066 CURVE",
"344 1066 LINE"
);
}
);
width = 1559;
}
);
leftKerningGroup = A;
rightKerningGroup = E;
unicode = 00C6;
userData = {
com.typemytype.robofont.guides = (
{
angle = 0;
isGlobal = 0;
magnetic = 5;
x = 0;
y = 1363;
}
);
};
},
{
color = 9;
glyphname = B;
lastChange = "2018-06-05 02:45:14 +0000";
layers = (
{
anchors = (
{
name = btm;
position = "{521, 0}";
},
{
name = top;
position = "{521, 1500}";
}
);
layerId = "184835E3-72D9-430C-A639-2454AC4A0BE8";
paths = (
{
closed = 1;
nodes = (
"887 -14 OFFCURVE",
"975 126 OFFCURVE",
"975 285 CURVE SMOOTH",
"975 427 OFFCURVE",
"904 519 OFFCURVE",
"728 555 CURVE",
"870 613 OFFCURVE",
"917 692 OFFCURVE",
"917 808 CURVE SMOOTH",
"917 928 OFFCURVE",
"858 1077 OFFCURVE",
"435 1077 CURVE SMOOTH",
"342 1077 OFFCURVE",
"216 1071 OFFCURVE",
"106 1060 CURVE",
"85 1034 OFFCURVE",
"73 999 OFFCURVE",
"73 963 CURVE",
"141 963 OFFCURVE",
"168 941 OFFCURVE",
"168 884 CURVE SMOOTH",
"168 180 LINE SMOOTH",
"168 123 OFFCURVE",
"141 102 OFFCURVE",
"73 102 CURVE",
"73 66 OFFCURVE",
"85 30 OFFCURVE",
"106 4 CURVE",
"214 -7 OFFCURVE",
"336 -14 OFFCURVE",
"432 -14 CURVE SMOOTH"
);
},
{
closed = 1;
nodes = (
"460 105 OFFCURVE",
"435 107 OFFCURVE",
"421 109 CURVE",
"421 476 LINE {name = hr00;}",
"434 477 OFFCURVE",
"456 478 OFFCURVE",
"472 478 CURVE SMOOTH",
"637 478 OFFCURVE",
"701 408 OFFCURVE",
"701 291 CURVE SMOOTH",
"701 169 OFFCURVE",
"631 105 OFFCURVE",
"487 105 CURVE SMOOTH"
);
},
{
closed = 1;
nodes = (
"454 592 OFFCURVE",
"435 593 OFFCURVE",
"421 595 CURVE",
"421 949 LINE",
"437 954 OFFCURVE",
"463 955 OFFCURVE",
"484 955 CURVE SMOOTH",
"616 955 OFFCURVE",
"674 884 OFFCURVE",
"674 774 CURVE SMOOTH",
"674 663 OFFCURVE",
"617 592 OFFCURVE",
"468 592 CURVE SMOOTH"
);
}
);
width = 1042;
}
);
leftKerningGroup = H;
rightKerningGroup = B;
unicode = 0042;
userData = {
com.typemytype.robofont.guides = (
{
angle = 0;
isGlobal = 0;
magnetic = 5;
x = 0;
y = 1410;
},
{
angle = 0;
isGlobal = 0;
magnetic = 5;
x = 0;
y = 140;
}
);
};
},
{
color = 9;
glyphname = C;
lastChange = "2018-06-05 02:45:14 +0000";
layers = (
{
anchors = (
{
name = btm;
position = "{467, 0}";
},
{
name = top;
position = "{467, 1500}";
}
);
layerId = "184835E3-72D9-430C-A639-2454AC4A0BE8";
paths = (
{
closed = 1;
nodes = (
"872 843 OFFCURVE",
"867 1000 OFFCURVE",
"828 1098 CURVE",
"795 1096 OFFCURVE",
"722 1079 OFFCURVE",
"690 1064 CURVE",
"648 1085 OFFCURVE",
"576 1098 OFFCURVE",
"530 1098 CURVE SMOOTH",
"246 1098 OFFCURVE",
"61 904 OFFCURVE",
"61 543 CURVE SMOOTH",
"61 165 OFFCURVE",
"284 -14 OFFCURVE",
"548 -14 CURVE SMOOTH",
"756 -14 OFFCURVE",
"870 92 OFFCURVE",
"870 165 CURVE SMOOTH",
"870 194 OFFCURVE",
"853 239 OFFCURVE",
"828 256 CURVE",
"801 217 OFFCURVE",
"732 174 OFFCURVE",
"639 174 CURVE SMOOTH",
"473 174 OFFCURVE",
"318 300 OFFCURVE",
"318 618 CURVE SMOOTH",
"318 875 OFFCURVE",
"422 965 OFFCURVE",
"534 965 CURVE SMOOTH",
"639 965 OFFCURVE",
"712 884 OFFCURVE",
"729 750 CURVE",
"872 750 LINE {name = hr00;}"
);
}
);
width = 934;
}
);
leftKerningGroup = O;
rightKerningGroup = C;
unicode = 0043;
},
{
color = 9;
glyphname = D;
lastChange = "2018-06-05 02:45:14 +0000";
layers = (
{
anchors = (
{
name = btm;
position = "{542, 0}";
},
{
name = top;
position = "{542, 1500}";
}
);
layerId = "184835E3-72D9-430C-A639-2454AC4A0BE8";
paths = (
{
closed = 1;
nodes = (
"876 -14 OFFCURVE",
"1021 229 OFFCURVE",
"1021 544 CURVE SMOOTH",
"1021 834 OFFCURVE",
"893 1077 OFFCURVE",
"443 1077 CURVE SMOOTH",
"397 1077 OFFCURVE",
"205 1059 OFFCURVE",
"109 1059 CURVE",
"88 1033 OFFCURVE",
"75 998 OFFCURVE",
"75 962 CURVE",
"143 962 OFFCURVE",
"170 940 OFFCURVE",
"170 884 CURVE SMOOTH",
"170 180 LINE SMOOTH",
"170 123 OFFCURVE",
"143 101 OFFCURVE",
"75 101 CURVE",
"75 65 OFFCURVE",
"88 30 OFFCURVE",
"109 3 CURVE",
"232 3 OFFCURVE",
"349 -14 OFFCURVE",
"419 -14 CURVE SMOOTH"
);
},
{
closed = 1;
nodes = (
"456 113 OFFCURVE",
"438 114 OFFCURVE",
"423 117 CURVE",
"423 950 LINE",
"434 954 OFFCURVE",
"446 954 OFFCURVE",
"459 954 CURVE SMOOTH",
"633 954 OFFCURVE",
"747 820 OFFCURVE",
"747 521 CURVE SMOOTH {name = hr00;}",
"747 229 OFFCURVE",
"639 113 OFFCURVE",
"472 113 CURVE SMOOTH"
);
}
);
width = 1084;
}
);
leftKerningGroup = H;
rightKerningGroup = O;
unicode = 0044;
userData = {
com.typemytype.robofont.guides = (
{
angle = 0;
isGlobal = 0;
magnetic = 5;
x = 0;
y = 1410;
},
{
angle = 0;
isGlobal = 0;
magnetic = 5;
x = 0;
y = 140;
}
);
};
},
{
color = 9;
glyphname = E;
lastChange = "2018-06-05 02:45:14 +0000";
layers = (
{
anchors = (
{
name = btm;
position = "{491, 0}";
},
{
name = top;
position = "{491, 1500}";
}
);
layerId = "184835E3-72D9-430C-A639-2454AC4A0BE8";
paths = (
{
closed = 1;
nodes = (
"311 474 LINE",
"544 474 LINE SMOOTH",
"601 474 OFFCURVE",
"644 455 OFFCURVE",
"644 373 CURVE",
"689 373 OFFCURVE",
"735 385 OFFCURVE",
"767 406 CURVE",
"767 676 LINE",
"734 696 OFFCURVE",
"688 709 OFFCURVE",
"643 709 CURVE",
"643 626 OFFCURVE",
"600 600 OFFCURVE",
"543 600 CURVE SMOOTH",
"350 600 LINE {name = hr02;}",
"401 571 LINE",
"401 984 LINE",
"253 935 LINE",
"578 935 LINE SMOOTH",
"659 935 OFFCURVE",
"703 863 OFFCURVE",
"725 795 CURVE",
"762 803 OFFCURVE",
"842 830 OFFCURVE",
"868 854 CURVE",
"868 905 OFFCURVE",
"833 1041 OFFCURVE",
"807 1091 CURVE",
"769 1091 OFFCURVE",
"720 1082 OFFCURVE",
"682 1066 CURVE",
"92 1066 LINE",
"71 1040 OFFCURVE",
"57 1004 OFFCURVE",
"57 968 CURVE {name = hr03;}",
"124 968 OFFCURVE",
"150 947 OFFCURVE",
"150 890 CURVE SMOOTH",
"150 168 LINE SMOOTH",
"150 110 OFFCURVE",
"124 89 OFFCURVE",
"57 89 CURVE",
"57 53 OFFCURVE",
"71 17 OFFCURVE",
"92 -8 CURVE {name = hr04;}",
"760 -8 LINE",
"797 -25 OFFCURVE",
"840 -33 OFFCURVE",
"876 -33 CURVE",
"905 23 OFFCURVE",
"931 237 OFFCURVE",
"931 297 CURVE",
"795 300 LINE",
"767 213 OFFCURVE",
"698 127 OFFCURVE",
"593 127 CURVE SMOOTH",
"323 127 LINE",
"401 82 LINE {name = hr05;}",
"401 518 LINE {name = hr01;}"
);
}
);
width = 982;
}
);
leftKerningGroup = H;
leftMetricsKey = H;
rightKerningGroup = E;
unicode = 0045;
},
{
color = 9;
glyphname = F;
lastChange = "2018-06-05 02:45:14 +0000";
layers = (
{
anchors = (
{
name = btm;
position = "{454, 0}";
},
{
name = top;
position = "{454, 1500}";
}
);
layerId = "184835E3-72D9-430C-A639-2454AC4A0BE8";
paths = (
{
closed = 1;
nodes = (
"555 942 LINE SMOOTH",
"659 942 OFFCURVE",
"708 875 OFFCURVE",
"730 807 CURVE",
"769 815 OFFCURVE",
"834 842 OFFCURVE",
"860 866 CURVE",
"860 917 OFFCURVE",
"835 1049 OFFCURVE",
"810 1098 CURVE",
"771 1098 OFFCURVE",
"731 1089 OFFCURVE",
"692 1073 CURVE",
"104 1073 LINE",
"83 1048 OFFCURVE",
"69 1012 OFFCURVE",
"69 976 CURVE",
"136 976 OFFCURVE",
"168 955 OFFCURVE",
"168 898 CURVE SMOOTH",
"168 176 LINE SMOOTH",
"168 118 OFFCURVE",
"147 98 OFFCURVE",
"63 98 CURVE",
"63 62 OFFCURVE",
"76 25 OFFCURVE",
"98 0 CURVE",
"617 0 LINE",
"638 25 OFFCURVE",
"645 68 OFFCURVE",
"645 104 CURVE",
"602 104 OFFCURVE",
"555 104 OFFCURVE",
"521 104 CURVE SMOOTH",
"435 104 OFFCURVE",
"420 138 OFFCURVE",
"420 196 CURVE SMOOTH",
"420 503 LINE",
"367 469 LINE",
"548 469 LINE SMOOTH",
"605 469 OFFCURVE",
"627 435 OFFCURVE",
"627 353 CURVE",
"672 353 OFFCURVE",
"718 365 OFFCURVE",
"751 386 CURVE",
"750 670 LINE",
"717 692 OFFCURVE",
"671 704 OFFCURVE",
"627 704 CURVE",
"627 621 OFFCURVE",
"604 585 OFFCURVE",
"547 585 CURVE SMOOTH",
"368 585 LINE",
"420 538 LINE",
"420 1020 LINE",
"270 942 LINE {name = hr00;}"
);
}
);
width = 909;
}
);
leftKerningGroup = H;
rightKerningGroup = F;
unicode = 0046;
},
{
color = 9;
glyphname = G;
lastChange = "2018-06-05 02:45:14 +0000";
layers = (
{
anchors = (
{
name = btm;
position = "{551, 0}";
},
{
name = top;
position = "{551, 1500}";
}
);
background = {
paths = (
{
closed = 1;
nodes = (
"1025 1211 OFFCURVE",
"1018 1438 OFFCURVE",
"962 1579 CURVE",
"914 1577 OFFCURVE",
"809 1552 OFFCURVE",
"763 1530 CURVE",
"701 1561 OFFCURVE",
"597 1580 OFFCURVE",
"531 1580 CURVE SMOOTH",
"120 1580 OFFCURVE",
"-146 1300 OFFCURVE",
"-146 778 CURVE SMOOTH",
"-146 232 OFFCURVE",
"175 -27 OFFCURVE",
"557 -27 CURVE SMOOTH",
"858 -27 OFFCURVE",
"1022 125 OFFCURVE",
"1022 232 CURVE SMOOTH",
"1022 273 OFFCURVE",
"998 338 OFFCURVE",
"962 363 CURVE",
"924 306 OFFCURVE",
"824 245 OFFCURVE",
"688 245 CURVE SMOOTH",
"449 245 OFFCURVE",
"224 427 OFFCURVE",
"224 885 CURVE SMOOTH",
"224 1257 OFFCURVE",
"375 1387 OFFCURVE",
"538 1387 CURVE SMOOTH",
"688 1387 OFFCURVE",
"795 1270 OFFCURVE",
"819 1076 CURVE",
"1025 1076 LINE {name = hr00;}"
);
}
);
};
layerId = "184835E3-72D9-430C-A639-2454AC4A0BE8";
paths = (
{
closed = 1;
nodes = (
"809 -14 OFFCURVE",
"972 74 OFFCURVE",
"972 128 CURVE SMOOTH",
"972 164 OFFCURVE",
"945 144 OFFCURVE",
"945 225 CURVE SMOOTH",
"945 402 LINE",
"968 410 OFFCURVE",
"999 413 OFFCURVE",
"1031 413 CURVE",
"1035 421 OFFCURVE",
"1038 433 OFFCURVE",
"1038 441 CURVE SMOOTH",
"1038 465 OFFCURVE",
"1025 545 OFFCURVE",
"932 545 CURVE SMOOTH",
"612 545 LINE",
"590 520 OFFCURVE",
"576 462 OFFCURVE",
"576 426 CURVE",
"672 426 OFFCURVE",
"719 405 OFFCURVE",
"719 350 CURVE SMOOTH",
"719 191 LINE",
"691 162 OFFCURVE",
"651 150 OFFCURVE",
"594 150 CURVE SMOOTH",
"444 150 OFFCURVE",
"327 258 OFFCURVE",
"327 585 CURVE SMOOTH",
"327 889 OFFCURVE",
"448 972 OFFCURVE",
"571 972 CURVE SMOOTH",
"681 972 OFFCURVE",
"771 885 OFFCURVE",
"792 750 CURVE",
"942 750 LINE",
"942 843 OFFCURVE",
"936 1000 OFFCURVE",
"897 1098 CURVE",
"864 1096 OFFCURVE",
"792 1079 OFFCURVE",
"761 1064 CURVE",
"685 1093 OFFCURVE",
"622 1098 OFFCURVE",
"576 1098 CURVE SMOOTH",
"280 1098 OFFCURVE",
"71 906 OFFCURVE",
"71 529 CURVE SMOOTH",
"71 210 OFFCURVE",
"273 -14 OFFCURVE",
"601 -14 CURVE SMOOTH {name = hr00;}"
);
}
);
width = 1103;
}
);
leftKerningGroup = O;
rightKerningGroup = G;
unicode = 0047;
},
{
color = 9;
glyphname = H;
lastChange = "2018-06-05 02:45:14 +0000";
layers = (
{
anchors = (
{
name = btm;
position = "{576, 0}";
},
{
name = top;
position = "{576, 1500}";
}
);
background = {
paths = (
{
closed = 1;
nodes = (
"192 697 LINE",
"530 697 LINE SMOOTH",
"612 697 OFFCURVE",
"674 669 OFFCURVE",
"674 551 CURVE",
"739 551 OFFCURVE",
"806 568 OFFCURVE",
"853 598 CURVE",
"852 988 LINE",
"805 1018 OFFCURVE",
"738 1036 OFFCURVE",
"673 1036 CURVE",
"673 917 OFFCURVE",
"611 879 OFFCURVE",
"529 879 CURVE SMOOTH",
"249 879 LINE {name = hr02;}",
"325 837 LINE",
"325 1434 LINE",
"109 1362 LINE",
"579 1362 LINE SMOOTH",
"696 1362 OFFCURVE",
"759 1258 OFFCURVE",
"791 1161 CURVE",
"845 1173 OFFCURVE",
"960 1211 OFFCURVE",
"998 1245 CURVE",
"998 1320 OFFCURVE",
"947 1517 OFFCURVE",
"910 1588 CURVE",
"855 1588 OFFCURVE",
"784 1575 OFFCURVE",
"729 1552 CURVE",
"-124 1552 LINE",
"-155 1515 OFFCURVE",
"-174 1463 OFFCURVE",
"-174 1411 CURVE {name = hr03;}",
"-78 1411 OFFCURVE",
"-40 1380 OFFCURVE",
"-40 1298 CURVE SMOOTH",
"-40 254 LINE SMOOTH",
"-40 171 OFFCURVE",
"-78 141 OFFCURVE",
"-174 141 CURVE",
"-174 89 OFFCURVE",
"-155 36 OFFCURVE",
"-124 0 CURVE {name = hr04;}",
"842 0 LINE",
"895 -24 OFFCURVE",
"958 -36 OFFCURVE",
"1010 -36 CURVE",
"1052 45 OFFCURVE",
"1089 358 OFFCURVE",
"1089 444 CURVE",
"893 445 LINE",
"852 320 OFFCURVE",
"753 195 OFFCURVE",
"600 195 CURVE SMOOTH",
"211 195 LINE",
"325 130 LINE {name = hr05;}",
"325 761 LINE {name = hr01;}"
);
}
);
};
layerId = "184835E3-72D9-430C-A639-2454AC4A0BE8";
paths = (
{
closed = 1;
nodes = (
"343 482 LINE",
"857 482 LINE",
"857 611 LINE",
"343 611 LINE {name = hr00;}"
);
},
{
closed = 1;
nodes = (
"482 25 OFFCURVE",
"495 62 OFFCURVE",
"495 98 CURVE",
"428 98 OFFCURVE",
"403 119 OFFCURVE",
"403 176 CURVE SMOOTH",
"403 898 LINE SMOOTH",
"403 955 OFFCURVE",
"428 977 OFFCURVE",
"495 977 CURVE",
"495 1013 OFFCURVE",
"482 1049 OFFCURVE",
"461 1074 CURVE",
"91 1074 LINE",
"70 1049 OFFCURVE",
"57 1013 OFFCURVE",
"57 977 CURVE {name = hr03;}",
"124 977 OFFCURVE",
"150 955 OFFCURVE",
"150 898 CURVE SMOOTH",
"150 176 LINE SMOOTH",
"150 119 OFFCURVE",
"124 98 OFFCURVE",
"57 98 CURVE",
"57 62 OFFCURVE",
"70 25 OFFCURVE",
"91 0 CURVE {name = hr04;}",
"461 0 LINE"
);
},
{
closed = 1;
nodes = (
"1083 25 OFFCURVE",
"1096 62 OFFCURVE",
"1096 98 CURVE",
"1029 98 OFFCURVE",
"1004 119 OFFCURVE",
"1004 176 CURVE SMOOTH",
"1004 898 LINE SMOOTH",
"1004 955 OFFCURVE",
"1029 977 OFFCURVE",
"1096 977 CURVE",
"1096 1013 OFFCURVE",
"1083 1049 OFFCURVE",
"1062 1074 CURVE",
"693 1074 LINE",
"671 1049 OFFCURVE",
"659 1013 OFFCURVE",
"659 977 CURVE",
"725 977 OFFCURVE",
"751 955 OFFCURVE",
"751 898 CURVE SMOOTH",
"751 176 LINE SMOOTH",
"751 119 OFFCURVE",
"725 98 OFFCURVE",
"659 98 CURVE",
"659 62 OFFCURVE",
"671 25 OFFCURVE",
"693 0 CURVE",
"1062 0 LINE"
);
}
);
width = 1153;
}
);
leftKerningGroup = H;
rightKerningGroup = H;
unicode = 0048;
},
{
color = 9;
glyphname = Hbar;
lastChange = "2018-06-05 02:45:14 +0000";
layers = (
{
layerId = "184835E3-72D9-430C-A639-2454AC4A0BE8";
paths = (
{
closed = 1;
nodes = (
"362 394 LINE",
"918 394 LINE",
"878 520 LINE",
"367 520 LINE {name = hr00;}"
);
},
{
closed = 1;
nodes = (
"505 55 OFFCURVE",
"519 92 OFFCURVE",
"519 128 CURVE",
"451 128 OFFCURVE",
"426 149 OFFCURVE",
"426 206 CURVE SMOOTH",
"426 928 LINE SMOOTH",
"426 985 OFFCURVE",
"451 1007 OFFCURVE",
"519 1007 CURVE",
"519 1043 OFFCURVE",
"505 1079 OFFCURVE",
"484 1104 CURVE",
"115 1104 LINE",
"94 1079 OFFCURVE",
"81 1043 OFFCURVE",
"81 1007 CURVE",
"148 1007 OFFCURVE",
"174 985 OFFCURVE",
"174 928 CURVE SMOOTH",
"174 206 LINE SMOOTH",
"174 149 OFFCURVE",
"148 128 OFFCURVE",
"81 128 CURVE",
"81 92 OFFCURVE",
"94 55 OFFCURVE",
"115 30 CURVE",
"484 30 LINE"
);
},
{
closed = 1;
nodes = (
"1103 55 OFFCURVE",
"1116 92 OFFCURVE",
"1116 128 CURVE",
"1049 128 OFFCURVE",
"1024 149 OFFCURVE",
"1024 206 CURVE SMOOTH",
"1024 928 LINE SMOOTH",
"1024 985 OFFCURVE",
"1049 1007 OFFCURVE",
"1116 1007 CURVE",
"1116 1043 OFFCURVE",
"1103 1079 OFFCURVE",
"1082 1104 CURVE",
"713 1104 LINE",
"692 1079 OFFCURVE",
"679 1043 OFFCURVE",
"679 1007 CURVE",
"745 1007 OFFCURVE",
"772 985 OFFCURVE",
"772 928 CURVE SMOOTH",
"772 206 LINE SMOOTH",
"772 149 OFFCURVE",
"745 128 OFFCURVE",
"679 128 CURVE",
"679 92 OFFCURVE",
"692 55 OFFCURVE",
"713 30 CURVE",
"1082 30 LINE"
);
},
{
closed = 1;
nodes = (
"1106 680 OFFCURVE",
"1104 731 OFFCURVE",
"1104 772 CURVE",
"85 772 LINE",
"85 652 LINE",
"1079 652 LINE"
);
}
);
width = 1197;
}
);
leftKerningGroup = H;
rightKerningGroup = H;
unicode = 0126;
},
{
color = 9;
glyphname = I;
lastChange = "2018-06-05 02:45:14 +0000";
layers = (
{
anchors = (
{
name = btm;
position = "{278, 0}";
},
{
name = top;
position = "{278, 1500}";
}
);
layerId = "184835E3-72D9-430C-A639-2454AC4A0BE8";
paths = (
{
closed = 1;
nodes = (
"487 25 OFFCURVE",
"500 62 OFFCURVE",
"500 98 CURVE",
"432 98 OFFCURVE",
"405 119 OFFCURVE",
"405 176 CURVE SMOOTH",
"405 898 LINE SMOOTH",
"405 955 OFFCURVE",
"432 977 OFFCURVE",
"500 977 CURVE",
"500 1013 OFFCURVE",
"487 1049 OFFCURVE",
"465 1074 CURVE",
"91 1074 LINE",
"69 1049 OFFCURVE",
"57 1013 OFFCURVE",
"57 977 CURVE",
"125 977 OFFCURVE",
"152 955 OFFCURVE",
"152 898 CURVE SMOOTH",
"152 176 LINE SMOOTH",
"152 119 OFFCURVE",
"125 98 OFFCURVE",
"57 98 CURVE",
"57 62 OFFCURVE",
"69 25 OFFCURVE",
"91 0 CURVE",
"465 0 LINE {name = hr00;}"
);
}
);
width = 557;
}
);
leftKerningGroup = I;
leftMetricsKey = H;
rightKerningGroup = I;
rightMetricsKey = H;
unicode = 0049;
},
{
color = 9;
glyphname = J;
lastChange = "2018-06-05 02:45:14 +0000";
layers = (
{
anchors = (
{
name = btm;
position = "{438, 0}";
},
{
name = top;
position = "{438, 1500}";
}
);
layerId = "184835E3-72D9-430C-A639-2454AC4A0BE8";
paths = (
{
closed = 1;
nodes = (
"723 961 OFFCURVE",
"750 982 OFFCURVE",
"819 982 CURVE",
"819 1018 OFFCURVE",
"806 1054 OFFCURVE",
"784 1080 CURVE",
"371 1080 LINE",
"349 1054 OFFCURVE",
"336 1018 OFFCURVE",
"336 982 CURVE",
"451 982 OFFCURVE",
"471 949 OFFCURVE",
"471 874 CURVE SMOOTH",
"471 223 LINE SMOOTH",
"471 163 OFFCURVE",
"439 122 OFFCURVE",
"384 122 CURVE SMOOTH",
"323 122 OFFCURVE",
"275 226 OFFCURVE",
"275 342 CURVE SMOOTH",
"275 375 OFFCURVE",
"279 409 OFFCURVE",
"288 442 CURVE",
"55 442 LINE",
"53 419 OFFCURVE",
"51 397 OFFCURVE",
"51 375 CURVE SMOOTH",
"51 185 OFFCURVE",
"128 48 OFFCURVE",
"163 -13 CURVE",
"241 22 LINE",
"282 1 OFFCURVE",
"362 -13 OFFCURVE",
"413 -13 CURVE SMOOTH",
"585 -13 OFFCURVE",
"723 72 OFFCURVE",
"723 357 CURVE SMOOTH",
"723 904 LINE SMOOTH {name = hr00;}"
);
}
);
width = 876;
}
);
leftKerningGroup = J;
rightKerningGroup = U;
unicode = 004A;
},
{
color = 9;
glyphname = K;
lastChange = "2018-06-05 02:45:14 +0000";
layers = (
{
anchors = (
{
name = btm;
position = "{543, 0}";
},
{
name = top;
position = "{543, 1500}";
}
);
layerId = "184835E3-72D9-430C-A639-2454AC4A0BE8";
paths = (
{
closed = 1;
nodes = (
"495 21 OFFCURVE",
"507 58 OFFCURVE",
"507 94 CURVE",
"441 94 OFFCURVE",
"402 115 OFFCURVE",
"402 172 CURVE SMOOTH",
"402 894 LINE SMOOTH",
"402 951 OFFCURVE",
"427 973 OFFCURVE",
"494 973 CURVE",
"494 1008 OFFCURVE",
"481 1044 OFFCURVE",
"460 1071 CURVE",
"90 1071 LINE",
"69 1044 OFFCURVE",
"57 1008 OFFCURVE",
"57 973 CURVE",
"123 973 OFFCURVE",
"149 951 OFFCURVE",
"149 894 CURVE SMOOTH",
"149 172 LINE SMOOTH",
"149 115 OFFCURVE",
"123 94 OFFCURVE",
"57 94 CURVE",
"57 58 OFFCURVE",
"69 21 OFFCURVE",
"90 -4 CURVE",
"474 -4 LINE {name = hr00;}"
);
},
{
closed = 1;
nodes = (
"1019 1008 OFFCURVE",
"1006 1044 OFFCURVE",
"985 1071 CURVE",
"642 1071 LINE",
"621 1044 OFFCURVE",
"608 1008 OFFCURVE",
"608 973 CURVE",
"647 973 OFFCURVE",
"666 954 OFFCURVE",
"666 927 CURVE SMOOTH",
"666 910 OFFCURVE",
"659 891 OFFCURVE",
"645 872 CURVE SMOOTH",
"380 511 LINE",
"477 466 LINE",
"598 598 LINE",
"843 885 LINE SMOOTH",
"890 942 OFFCURVE",
"932 973 OFFCURVE",
"1019 973 CURVE"
);
},
{
closed = 1;
nodes = (
"466 451 OFFCURVE",
"508 359 OFFCURVE",
"551 264 CURVE SMOOTH",
"612 129 OFFCURVE",
"679 -14 OFFCURVE",
"879 -14 CURVE SMOOTH",
"960 -14 OFFCURVE",
"1002 11 OFFCURVE",
"1035 52 CURVE",
"1035 111 LINE",
"917 160 OFFCURVE",
"880 216 OFFCURVE",
"792 349 CURVE SMOOTH",
"676 525 OFFCURVE",
"626 574 OFFCURVE",
"481 574 CURVE",
"393 521 LINE",
"380 486 LINE"
);
}
);
width = 1087;
}
);
leftKerningGroup = H;
leftMetricsKey = H;
rightKerningGroup = K;
unicode = 004B;
},
{
color = 9;
glyphname = L;
lastChange = "2018-06-05 02:45:14 +0000";
layers = (
{
anchors = (
{
name = btm;
position = "{438, 0}";
},
{
name = top;
position = "{438, 1500}";
}
);
layerId = "184835E3-72D9-430C-A639-2454AC4A0BE8";
paths = (
{
closed = 1;
nodes = (
"809 0 OFFCURVE",
"843 68 OFFCURVE",
"843 190 CURVE SMOOTH",
"843 263 OFFCURVE",
"815 323 OFFCURVE",
"777 353 CURVE",
"669 353 LINE",
"669 206 OFFCURVE",
"607 131 OFFCURVE",
"452 131 CURVE SMOOTH",
"405 131 LINE",
"405 898 LINE SMOOTH",
"405 955 OFFCURVE",
"439 977 OFFCURVE",
"507 977 CURVE",
"507 1013 OFFCURVE",
"495 1049 OFFCURVE",
"472 1074 CURVE",
"92 1074 LINE",
"70 1049 OFFCURVE",
"57 1013 OFFCURVE",
"57 977 CURVE",
"126 977 OFFCURVE",
"153 955 OFFCURVE",
"153 898 CURVE SMOOTH",
"153 176 LINE SMOOTH",
"153 119 OFFCURVE",
"126 98 OFFCURVE",
"57 98 CURVE {name = hr02;}",
"57 62 OFFCURVE",
"70 25 OFFCURVE",
"92 0 CURVE {name = hr03;}",
"704 0 LINE SMOOTH {name = hr01;}"
);
}
);
width = 877;
}
);
leftKerningGroup = H;
leftMetricsKey = H;
rightKerningGroup = L;
unicode = 004C;
},
{
color = 9;
glyphname = M;
lastChange = "2018-06-05 02:45:14 +0000";
layers = (
{
anchors = (
{
name = btm;
position = "{719, 0}";
},
{
name = top;
position = "{719, 1500}";
}
);
layerId = "184835E3-72D9-430C-A639-2454AC4A0BE8";
paths = (
{
closed = 1;
nodes = (
"791 569 LINE",
"733 379 LINE",
"671 569 LINE",
"508 970 LINE SMOOTH",
"472 1059 OFFCURVE",
"411 1074 OFFCURVE",
"323 1074 CURVE SMOOTH",
"93 1074 LINE",
"71 1049 OFFCURVE",
"58 1013 OFFCURVE",
"58 977 CURVE",
"127 977 OFFCURVE",
"167 955 OFFCURVE",
"167 898 CURVE SMOOTH",
"167 176 LINE SMOOTH",
"167 119 OFFCURVE",
"131 98 OFFCURVE",
"57 98 CURVE",
"57 62 OFFCURVE",
"70 25 OFFCURVE",
"92 0 CURVE",
"411 0 LINE",
"432 25 OFFCURVE",
"445 62 OFFCURVE",
"445 98 CURVE",
"367 98 OFFCURVE",
"329 119 OFFCURVE",
"329 176 CURVE SMOOTH",
"329 812 LINE",
"633 69 LINE",
"692 69 OFFCURVE",
"738 84 OFFCURVE",
"766 153 CURVE SMOOTH",
"1027 812 LINE",
"1027 176 LINE SMOOTH",
"1027 119 OFFCURVE",
"1000 98 OFFCURVE",
"931 98 CURVE",
"931 62 OFFCURVE",
"945 25 OFFCURVE",
"966 0 CURVE",
"1347 0 LINE",
"1369 25 OFFCURVE",
"1382 62 OFFCURVE",
"1382 98 CURVE",
"1308 98 OFFCURVE",
"1279 119 OFFCURVE",
"1279 176 CURVE SMOOTH",
"1279 898 LINE SMOOTH",
"1279 955 OFFCURVE",
"1313 977 OFFCURVE",
"1382 977 CURVE",
"1382 1013 OFFCURVE",
"1369 1049 OFFCURVE",
"1347 1074 CURVE",
"985 1074 LINE {name = hr00;}"
);
}
);
width = 1439;
}
);
leftKerningGroup = M;
leftMetricsKey = H;
rightKerningGroup = M;
rightMetricsKey = H;
unicode = 004D;
},
{
color = 9;
glyphname = N;
lastChange = "2018-06-05 02:45:14 +0000";
layers = (
{
anchors = (
{
name = btm;
position = "{569, 0}";
},
{
name = top;
position = "{569, 1500}";
}
);
layerId = "184835E3-72D9-430C-A639-2454AC4A0BE8";
paths = (
{
closed = 1;
nodes = (
"782 50 LINE",
"821 -6 OFFCURVE",
"840 -23 OFFCURVE",
"952 -25 CURVE",
"995 -25 LINE",
"995 892 LINE SMOOTH",
"995 949 OFFCURVE",
"1023 970 OFFCURVE",
"1091 970 CURVE",
"1091 1006 OFFCURVE",
"1078 1042 OFFCURVE",
"1056 1068 CURVE",
"750 1068 LINE",
"727 1042 OFFCURVE",
"714 1006 OFFCURVE",
"714 970 CURVE",
"784 970 OFFCURVE",
"811 949 OFFCURVE",
"811 892 CURVE SMOOTH",
"811 412 LINE",
"472 937 LINE",
"420 1016 OFFCURVE",
"352 1068 OFFCURVE",
"286 1068 CURVE SMOOTH",
"91 1068 LINE",
"70 1042 OFFCURVE",
"57 1006 OFFCURVE",
"57 970 CURVE",
"126 970 OFFCURVE",
"153 949 OFFCURVE",
"153 892 CURVE SMOOTH",
"153 169 LINE SMOOTH",
"153 112 OFFCURVE",
"126 91 OFFCURVE",
"57 91 CURVE",
"57 55 OFFCURVE",
"70 19 OFFCURVE",
"91 -6 CURVE",
"385 -6 LINE",
"407 19 OFFCURVE",
"420 55 OFFCURVE",
"420 91 CURVE",
"351 91 OFFCURVE",
"324 112 OFFCURVE",
"324 169 CURVE SMOOTH",
"324 724 LINE {name = hr00;}"
);
}
);
width = 1139;
}
);
leftKerningGroup = N;
leftMetricsKey = H;
rightKerningGroup = N;
unicode = 004E;
},
{
color = 9;
glyphname = O;
lastChange = "2018-06-05 02:45:14 +0000";
layers = (
{
anchors = (
{
name = btm;
position = "{527, 0}";
},
{
name = top;
position = "{527, 1500}";
}
);
layerId = "184835E3-72D9-430C-A639-2454AC4A0BE8";
paths = (
{
closed = 1;
nodes = (
"814 -25 OFFCURVE",
"1004 179 OFFCURVE",
"1004 531 CURVE SMOOTH",
"1004 866 OFFCURVE",
"823 1087 OFFCURVE",
"525 1087 CURVE SMOOTH",
"238 1087 OFFCURVE",
"51 883 OFFCURVE",
"51 531 CURVE SMOOTH",
"51 196 OFFCURVE",
"228 -25 OFFCURVE",
"526 -25 CURVE SMOOTH"
);
},
{
closed = 1;
nodes = (
"421 88 OFFCURVE",
"340 178 OFFCURVE",
"340 525 CURVE SMOOTH",
"340 898 OFFCURVE",
"434 973 OFFCURVE",
"530 973 CURVE SMOOTH",
"637 973 OFFCURVE",
"716 883 OFFCURVE",
"716 537 CURVE SMOOTH",
"716 163 OFFCURVE",
"622 88 OFFCURVE",
"526 88 CURVE SMOOTH {name = hr00;}"
);
}
);
width = 1055;
}
);
leftKerningGroup = O;
rightKerningGroup = O;
unicode = 004F;
},
{
color = 9;
glyphname = OE;
lastChange = "2018-06-05 02:45:14 +0000";
layers = (
{
anchors = (
{
name = btm;
position = "{725, 0}";
},
{
name = top;
position = "{725, 1500}";
}
);
layerId = "184835E3-72D9-430C-A639-2454AC4A0BE8";
paths = (
{
closed = 1;
nodes = (
"1246 188 OFFCURVE",
"1187 127 OFFCURVE",
"1081 127 CURVE SMOOTH",
"919 127 LINE",
"919 481 LINE",
"1047 481 LINE SMOOTH",
"1104 481 OFFCURVE",
"1147 455 OFFCURVE",
"1147 373 CURVE",
"1192 373 OFFCURVE",
"1235 385 OFFCURVE",
"1267 406 CURVE",
"1267 676 LINE",
"1234 696 OFFCURVE",
"1191 709 OFFCURVE",
"1146 709 CURVE",
"1146 626 OFFCURVE",
"1103 593 OFFCURVE",
"1046 593 CURVE SMOOTH",
"919 593 LINE",
"919 935 LINE",
"1067 935 LINE SMOOTH",
"1148 935 OFFCURVE",
"1192 866 OFFCURVE",
"1213 800 CURVE",
"1251 808 OFFCURVE",
"1309 834 OFFCURVE",
"1336 857 CURVE",
"1336 909 OFFCURVE",
"1315 1041 OFFCURVE",
"1289 1091 CURVE",
"1251 1091 OFFCURVE",
"1209 1082 OFFCURVE",
"1171 1066 CURVE",
"656 1066 LINE",
"612 1078 OFFCURVE",
"572 1079 OFFCURVE",
"520 1079 CURVE SMOOTH",
"234 1079 OFFCURVE",
"51 879 OFFCURVE",
"51 533 CURVE SMOOTH",
"51 194 OFFCURVE",
"227 -23 OFFCURVE",
"512 -23 CURVE SMOOTH",
"562 -23 OFFCURVE",
"605 -20 OFFCURVE",
"643 -8 CURVE",
"1235 -8 LINE",
"1272 -25 OFFCURVE",
"1315 -33 OFFCURVE",
"1351 -33 CURVE",
"1381 23 OFFCURVE",
"1400 215 OFFCURVE",
"1400 275 CURVE",
"1273 275 LINE"
);
},
{
closed = 1;
nodes = (
"340 899 OFFCURVE",
"430 971 OFFCURVE",
"540 971 CURVE SMOOTH",
"595 971 OFFCURVE",
"640 953 OFFCURVE",
"667 921 CURVE",
"667 124 LINE",
"632 98 OFFCURVE",
"589 86 OFFCURVE",
"543 86 CURVE SMOOTH {name = hr01;}",
"417 86 OFFCURVE",
"340 175 OFFCURVE",
"340 522 CURVE SMOOTH"
);
}
);
width = 1451;
}
);
leftKerningGroup = O;
leftMetricsKey = O;
rightKerningGroup = E;
rightMetricsKey = E;
unicode = 0152;
},
{
color = 9;
glyphname = P;
lastChange = "2018-06-05 02:45:14 +0000";
layers = (
{
anchors = (
{
name = btm;
position = "{486, 0}";
},
{
name = top;
position = "{486, 1500}";
}
);
layerId = "184835E3-72D9-430C-A639-2454AC4A0BE8";
paths = (
{
closed = 1;
nodes = (
"371 1091 OFFCURVE",
"237 1074 OFFCURVE",
"91 1074 CURVE",
"70 1048 OFFCURVE",
"57 1013 OFFCURVE",
"57 977 CURVE",
"126 977 OFFCURVE",
"153 955 OFFCURVE",
"153 898 CURVE SMOOTH",
"153 176 LINE SMOOTH",
"153 119 OFFCURVE",
"126 98 OFFCURVE",
"57 98 CURVE",
"57 62 OFFCURVE",
"70 25 OFFCURVE",
"92 0 CURVE",
"540 0 LINE",
"561 25 OFFCURVE",
"574 62 OFFCURVE",
"574 98 CURVE",
"436 98 OFFCURVE",
"405 125 OFFCURVE",
"405 245 CURVE SMOOTH",
"405 380 LINE",
"476 380 LINE SMOOTH",
"786 380 OFFCURVE",
"913 531 OFFCURVE",
"913 732 CURVE SMOOTH",
"913 957 OFFCURVE",
"832 1091 OFFCURVE",
"456 1091 CURVE SMOOTH {name = hr00;}"
);
},
{
closed = 1;
nodes = (
"645 632 OFFCURVE",
"636 503 OFFCURVE",
"446 503 CURVE SMOOTH",
"432 503 OFFCURVE",
"420 503 OFFCURVE",
"405 506 CURVE",
"405 963 LINE",
"422 968 OFFCURVE",
"441 969 OFFCURVE",
"463 969 CURVE SMOOTH",
"624 969 OFFCURVE",
"645 854 OFFCURVE",
"645 737 CURVE SMOOTH"
);
}
);
width = 972;
}
);
leftKerningGroup = H;
leftMetricsKey = H;
rightKerningGroup = P;
unicode = 0050;
},
{
color = 9;
glyphname = Thorn;
lastChange = "2018-06-05 02:45:14 +0000";
layers = (
{
anchors = (
{
name = btm;
position = "{508, 0}";
},
{
name = top;
position = "{508, 1500}";
}
);
layerId = "184835E3-72D9-430C-A639-2454AC4A0BE8";
paths = (
{
closed = 1;
nodes = (
"446 217 OFFCURVE",
"515 213 OFFCURVE",
"555 213 CURVE SMOOTH",
"785 213 OFFCURVE",
"957 335 OFFCURVE",
"957 548 CURVE SMOOTH",
"957 744 OFFCURVE",
"809 880 OFFCURVE",
"518 880 CURVE SMOOTH",
"476 880 OFFCURVE",
"431 878 OFFCURVE",
"382 872 CURVE",
"405 746 LINE",
"428 749 OFFCURVE",
"449 751 OFFCURVE",
"468 751 CURVE SMOOTH",
"605 751 OFFCURVE",
"689 686 OFFCURVE",
"689 548 CURVE SMOOTH",
"689 414 OFFCURVE",
"610 335 OFFCURVE",
"488 335 CURVE SMOOTH",
"465 335 OFFCURVE",
"431 337 OFFCURVE",
"405 344 CURVE",
"405 227 LINE {name = hr00;}"
);
},
{
closed = 1;
nodes = (
"405 955 OFFCURVE",
"440 977 OFFCURVE",
"507 977 CURVE",
"507 1013 OFFCURVE",
"494 1049 OFFCURVE",
"473 1074 CURVE",
"92 1074 LINE",
"70 1049 OFFCURVE",
"57 1013 OFFCURVE",
"57 977 CURVE",
"126 977 OFFCURVE",
"153 955 OFFCURVE",
"153 898 CURVE SMOOTH",
"153 176 LINE SMOOTH",
"153 119 OFFCURVE",
"126 98 OFFCURVE",
"57 98 CURVE",
"57 62 OFFCURVE",
"70 25 OFFCURVE",
"92 0 CURVE",
"539 0 LINE",
"562 25 OFFCURVE",
"574 62 OFFCURVE",
"574 98 CURVE",
"436 98 OFFCURVE",
"405 125 OFFCURVE",
"405 245 CURVE SMOOTH",
"405 898 LINE SMOOTH"
);
}
);
width = 1016;
}
);
leftKerningGroup = H;
leftMetricsKey = H;
rightKerningGroup = Thorn;
rightMetricsKey = P;
unicode = 00DE;
},
{
color = 9;
glyphname = Q;
lastChange = "2018-06-05 02:45:14 +0000";
layers = (
{
anchors = (
{
name = btm;
position = "{579, 0}";
},
{
name = top;
position = "{579, 1500}";
}
);
layerId = "184835E3-72D9-430C-A639-2454AC4A0BE8";
paths = (
{
closed = 1;
nodes = (
"838 -104 OFFCURVE",
"1029 99 OFFCURVE",
"1029 452 CURVE SMOOTH",
"1029 787 OFFCURVE",
"848 1008 OFFCURVE",
"549 1008 CURVE SMOOTH",
"262 1008 OFFCURVE",
"75 804 OFFCURVE",
"75 452 CURVE SMOOTH",
"75 116 OFFCURVE",
"252 -104 OFFCURVE",
"550 -104 CURVE SMOOTH"
);
},
{
closed = 1;
nodes = (
"445 9 OFFCURVE",
"364 99 OFFCURVE",
"364 445 CURVE SMOOTH",
"364 819 OFFCURVE",
"458 894 OFFCURVE",
"555 894 CURVE SMOOTH",
"661 894 OFFCURVE",
"741 804 OFFCURVE",
"741 458 CURVE SMOOTH",
"741 84 OFFCURVE",
"647 9 OFFCURVE",
"551 9 CURVE SMOOTH"
);
},
{
closed = 1;
nodes = (
"698 -196 OFFCURVE",
"735 -341 OFFCURVE",
"920 -341 CURVE SMOOTH",
"1059 -341 OFFCURVE",
"1116 -265 OFFCURVE",
"1116 -215 CURVE SMOOTH",
"1116 -200 OFFCURVE",
"1104 -169 OFFCURVE",
"1095 -156 CURVE",
"1062 -169 OFFCURVE",
"1027 -174 OFFCURVE",
"995 -174 CURVE SMOOTH",
"957 -174 OFFCURVE",
"923 -166 OFFCURVE",
"896 -152 CURVE SMOOTH",
"842 -124 OFFCURVE",
"717 -52 OFFCURVE",
"619 -52 CURVE SMOOTH",
"466 -52 OFFCURVE",
"376 -107 OFFCURVE",
"332 -187 CURVE",
"379 -241 LINE",
"445 -199 OFFCURVE",
"484 -196 OFFCURVE",
"524 -196 CURVE SMOOTH",
"532 -196 OFFCURVE",
"540 -196 OFFCURVE",
"549 -196 CURVE SMOOTH {name = hr00;}"
);
}
);
width = 1159;
}
);
leftKerningGroup = O;
rightKerningGroup = O;
unicode = 0051;
},
{
color = 9;
glyphname = R;
lastChange = "2018-06-05 02:45:14 +0000";
layers = (
{
anchors = (
{
name = btm;
position = "{533, 0}";
},
{
name = top;
position = "{533, 1500}";
}
);
layerId = "184835E3-72D9-430C-A639-2454AC4A0BE8";
paths = (
{
closed = 1;
nodes = (
"755 490 OFFCURVE",
"720 513 OFFCURVE",
"639 516 CURVE",
"614 501 LINE",
"825 522 OFFCURVE",
"922 645 OFFCURVE",
"922 812 CURVE SMOOTH {name = hr00;}",
"922 975 OFFCURVE",
"803 1115 OFFCURVE",
"482 1115 CURVE SMOOTH",
"400 1115 OFFCURVE",
"203 1109 OFFCURVE",
"91 1097 CURVE",
"70 1071 OFFCURVE",
"57 1035 OFFCURVE",
"57 999 CURVE",
"125 999 OFFCURVE",
"152 978 OFFCURVE",
"152 921 CURVE SMOOTH",
"152 198 LINE SMOOTH",
"152 141 OFFCURVE",
"125 120 OFFCURVE",
"57 120 CURVE",
"57 84 OFFCURVE",
"70 48 OFFCURVE",
"92 23 CURVE",
"473 23 LINE",
"494 48 OFFCURVE",
"507 84 OFFCURVE",
"507 120 CURVE",
"447 120 OFFCURVE",
"405 141 OFFCURVE",
"405 198 CURVE SMOOTH",
"405 480 LINE",
"458 480 LINE",
"654 405 OFFCURVE",
"547 1 OFFCURVE",
"879 1 CURVE SMOOTH",
"961 1 OFFCURVE",
"989 25 OFFCURVE",
"1022 64 CURVE",
"1022 122 LINE",
"912 147 OFFCURVE",
"923 216 OFFCURVE",
"840 354 CURVE SMOOTH"
);
},
{
closed = 1;
nodes = (
"422 990 OFFCURVE",
"455 991 OFFCURVE",
"475 991 CURVE SMOOTH",
"608 991 OFFCURVE",
"673 924 OFFCURVE",
"673 796 CURVE SMOOTH",
"673 671 OFFCURVE",
"615 589 OFFCURVE",
"467 589 CURVE SMOOTH",
"452 589 OFFCURVE",
"419 590 OFFCURVE",
"405 592 CURVE",
"405 986 LINE"
);
}
);
width = 1067;
}
);
leftKerningGroup = H;
leftMetricsKey = H;
rightKerningGroup = R;
unicode = 0052;
},
{
color = 9;
glyphname = S;
lastChange = "2018-06-05 02:45:14 +0000";
layers = (
{
anchors = (
{
name = btm;
position = "{466, 0}";
},
{
name = top;
position = "{466, 1500}";
}
);
layerId = "184835E3-72D9-430C-A639-2454AC4A0BE8";
paths = (
{
closed = 1;
nodes = (
"70 264 OFFCURVE",
"103 65 OFFCURVE",
"143 -15 CURVE",
"261 37 LINE",
"355 -2 OFFCURVE",
"438 -15 OFFCURVE",
"509 -15 CURVE SMOOTH",
"735 -15 OFFCURVE",
"868 100 OFFCURVE",
"868 269 CURVE SMOOTH {name = hr02;}",
"868 474 OFFCURVE",
"685 583 OFFCURVE",
"545 653 CURVE SMOOTH",
"450 701 OFFCURVE",
"358 749 OFFCURVE",
"358 848 CURVE SMOOTH",
"358 920 OFFCURVE",
"390 974 OFFCURVE",
"475 974 CURVE SMOOTH",
"566 974 OFFCURVE",
"655 923 OFFCURVE",
"698 749 CURVE",
"826 749 LINE",
"826 756 OFFCURVE",
"826 765 OFFCURVE",
"826 773 CURVE SMOOTH",
"826 872 OFFCURVE",
"824 1025 OFFCURVE",
"782 1097 CURVE",
"652 1057 LINE",
"601 1085 OFFCURVE",
"507 1097 OFFCURVE",
"447 1097 CURVE SMOOTH",
"253 1097 OFFCURVE",
"103 1007 OFFCURVE",
"103 821 CURVE SMOOTH",
"103 647 OFFCURVE",
"218 536 OFFCURVE",
"394 440 CURVE SMOOTH",
"500 383 OFFCURVE",
"618 327 OFFCURVE",
"618 227 CURVE SMOOTH",
"618 177 OFFCURVE",
"601 108 OFFCURVE",
"507 108 CURVE SMOOTH",
"378 108 OFFCURVE",
"256 212 OFFCURVE",
"224 386 CURVE",
"70 386 LINE {name = hr01;}"
);
}
);
width = 933;
}
);
leftKerningGroup = S;
rightKerningGroup = S;
unicode = 0053;
},
{
color = 9;
glyphname = Schwa;
lastChange = "2018-06-05 02:45:14 +0000";
layers = (
{
layerId = "184835E3-72D9-430C-A639-2454AC4A0BE8";
paths = (
{
closed = 1;
nodes = (
"210 846 OFFCURVE",
"297 890 OFFCURVE",
"406 890 CURVE SMOOTH",
"562 890 OFFCURVE",
"650 782 OFFCURVE",
"650 534 CURVE SMOOTH",
"650 450 LINE SMOOTH",
"650 186 OFFCURVE",
"530 125 OFFCURVE",
"447 125 CURVE SMOOTH",
"382 125 OFFCURVE",
"284 156 OFFCURVE",
"284 325 CURVE SMOOTH",
"284 377 OFFCURVE",
"289 415 OFFCURVE",
"329 415 CURVE SMOOTH",
"712 415 LINE",
"719 567 LINE",
"179 567 LINE SMOOTH",
"83 567 OFFCURVE",
"62 479 OFFCURVE",
"62 376 CURVE SMOOTH",
"62 123 OFFCURVE",
"205 -14 OFFCURVE",
"434 -14 CURVE SMOOTH",
"692 -14 OFFCURVE",
"883 191 OFFCURVE",
"883 540 CURVE SMOOTH",
"883 879 OFFCURVE",
"713 1077 OFFCURVE",
"446 1077 CURVE SMOOTH",
"241 1077 OFFCURVE",
"114 966 OFFCURVE",
"114 901 CURVE SMOOTH",
"114 873 OFFCURVE",
"129 819 OFFCURVE",
"149 796 CURVE {name = hr00;}"
);
}
);
width = 934;
}
);
leftKerningGroup = uni018F;
leftMetricsKey = U;
rightKerningGroup = uni018F;
rightMetricsKey = O;
unicode = 018F;
},
{
color = 9;
glyphname = T;
lastChange = "2018-06-05 02:45:14 +0000";
layers = (
{
anchors = (
{
name = btm;
position = "{534, 0}";
},
{
name = top;
position = "{534, 1500}";
}
);
layerId = "184835E3-72D9-430C-A639-2454AC4A0BE8";
paths = (
{
closed = 1;
nodes = (
"928 1099 OFFCURVE",
"878 1089 OFFCURVE",
"840 1073 CURVE",
"228 1073 LINE",
"191 1089 OFFCURVE",
"139 1099 OFFCURVE",
"102 1099 CURVE",
"64 1017 OFFCURVE",
"52 821 OFFCURVE",
"52 736 CURVE",
"79 724 OFFCURVE",
"143 723 OFFCURVE",
"182 719 CURVE",
"202 897 OFFCURVE",
"271 952 OFFCURVE",
"404 952 CURVE SMOOTH",
"408 952 LINE",
"408 182 LINE SMOOTH",
"408 125 OFFCURVE",
"352 98 OFFCURVE",
"272 98 CURVE",
"272 62 OFFCURVE",
"285 25 OFFCURVE",
"306 0 CURVE",
"762 0 LINE",
"785 25 OFFCURVE",
"797 62 OFFCURVE",
"797 98 CURVE",
"717 98 OFFCURVE",
"660 125 OFFCURVE",
"660 182 CURVE SMOOTH",
"660 952 LINE",
"666 952 LINE SMOOTH {name = hr01;}",
"812 952 OFFCURVE",
"866 897 OFFCURVE",
"886 719 CURVE",
"926 723 OFFCURVE",
"988 724 OFFCURVE",
"1015 736 CURVE",
"1015 821 OFFCURVE",
"1003 1017 OFFCURVE",
"966 1099 CURVE"
);
}
);
width = 1068;
}
);
leftKerningGroup = T;
rightKerningGroup = T;
unicode = 0054;
},
{
color = 9;
glyphname = U;
lastChange = "2018-06-05 02:45:14 +0000";
layers = (
{
anchors = (
{
name = btm;
position = "{577, 0}";
},
{
name = top;
position = "{577, 1500}";
}
);
layerId = "184835E3-72D9-430C-A639-2454AC4A0BE8";
paths = (
{
closed = 1;
nodes = (
"986 951 OFFCURVE",
"1016 973 OFFCURVE",
"1094 973 CURVE",
"1094 1009 OFFCURVE",
"1082 1045 OFFCURVE",
"1060 1070 CURVE",
"722 1070 LINE",
"699 1045 OFFCURVE",
"688 1009 OFFCURVE",
"688 973 CURVE",
"766 973 OFFCURVE",
"797 951 OFFCURVE",
"797 895 CURVE SMOOTH",
"797 341 LINE SMOOTH",
"797 221 OFFCURVE",
"734 136 OFFCURVE",
"611 136 CURVE SMOOTH",
"494 136 OFFCURVE",
"422 242 OFFCURVE",
"422 380 CURVE SMOOTH",
"422 895 LINE SMOOTH",
"422 951 OFFCURVE",
"449 973 OFFCURVE",
"518 973 CURVE",
"518 1009 OFFCURVE",
"505 1045 OFFCURVE",
"483 1070 CURVE",
"97 1070 LINE",
"75 1045 OFFCURVE",
"62 1009 OFFCURVE",
"62 973 CURVE",
"131 973 OFFCURVE",
"157 951 OFFCURVE",
"157 895 CURVE SMOOTH",
"157 412 LINE SMOOTH",
"157 134 OFFCURVE",
"320 -12 OFFCURVE",
"584 -12 CURVE SMOOTH",
"852 -12 OFFCURVE",
"986 130 OFFCURVE",
"986 412 CURVE SMOOTH",
"986 895 LINE SMOOTH {name = hr00;}"
);
}
);
width = 1154;
}
);
leftKerningGroup = U;
rightKerningGroup = U;
unicode = 0055;
},
{
color = 9;
glyphname = V;
lastChange = "2018-06-05 02:45:14 +0000";
layers = (
{
anchors = (
{
name = btm;
position = "{576, 0}";
},
{
name = top;
position = "{576, 1500}";
}
);
layerId = "184835E3-72D9-430C-A639-2454AC4A0BE8";
paths = (
{
closed = 1;
nodes = (
"718 1038 OFFCURVE",
"713 1008 OFFCURVE",
"713 972 CURVE",
"773 972 OFFCURVE",
"804 944 OFFCURVE",
"804 902 CURVE SMOOTH",
"804 893 OFFCURVE",
"802 882 OFFCURVE",
"798 870 CURVE SMOOTH",
"675 446 LINE",
"628 280 LINE",
"582 448 LINE",
"452 866 LINE SMOOTH",
"447 880 OFFCURVE",
"444 892 OFFCURVE",
"444 903 CURVE SMOOTH",
"444 946 OFFCURVE",
"476 972 OFFCURVE",
"534 972 CURVE",
"534 1008 OFFCURVE",
"520 1044 OFFCURVE",
"507 1069 CURVE",
"51 1069 LINE",
"32 1038 OFFCURVE",
"27 1008 OFFCURVE",
"27 972 CURVE",
"98 972 OFFCURVE",
"134 953 OFFCURVE",
"155 899 CURVE SMOOTH",
"513 -16 LINE",
"561 -16 LINE SMOOTH",
"653 -16 OFFCURVE",
"692 27 OFFCURVE",
"728 132 CURVE SMOOTH",
"990 899 LINE SMOOTH",
"1009 955 OFFCURVE",
"1050 972 OFFCURVE",
"1119 972 CURVE",
"1119 1008 OFFCURVE",
"1112 1039 OFFCURVE",
"1095 1069 CURVE",
"737 1069 LINE {name = hr00;}"
);
}
);
width = 1152;
}
);
leftKerningGroup = V;
rightKerningGroup = V;
unicode = 0056;
},
{
color = 9;
glyphname = W;
lastChange = "2018-06-05 02:45:14 +0000";
layers = (
{
anchors = (
{
name = btm;
position = "{870, 0}";
},
{
name = top;
position = "{870, 1500}";
}
);
layerId = "184835E3-72D9-430C-A639-2454AC4A0BE8";
paths = (
{
closed = 1;
nodes = (
"1089 -5 LINE",
"1150 -5 LINE SMOOTH",
"1251 -5 OFFCURVE",
"1319 57 OFFCURVE",
"1359 203 CURVE SMOOTH",
"1553 902 LINE SMOOTH",
"1568 957 OFFCURVE",
"1608 975 OFFCURVE",
"1678 975 CURVE",
"1678 1011 OFFCURVE",
"1671 1042 OFFCURVE",
"1655 1072 CURVE",
"1293 1072 LINE",
"1276 1041 OFFCURVE",
"1271 1011 OFFCURVE",
"1271 975 CURVE",
"1338 975 OFFCURVE",
"1379 940 OFFCURVE",
"1379 888 CURVE SMOOTH",
"1379 879 OFFCURVE",
"1377 868 OFFCURVE",
"1374 857 CURVE SMOOTH",
"1222 272 LINE",
"1043 855 LINE SMOOTH",
"1039 870 OFFCURVE",
"1035 886 OFFCURVE",
"1035 899 CURVE SMOOTH",
"1035 945 OFFCURVE",
"1066 975 OFFCURVE",
"1132 975 CURVE",
"1132 1011 OFFCURVE",
"1117 1047 OFFCURVE",
"1105 1072 CURVE",
"695 1072 LINE",
"677 1041 OFFCURVE",
"671 1011 OFFCURVE",
"671 975 CURVE",
"731 975 OFFCURVE",
"776 945 OFFCURVE",
"776 894 CURVE SMOOTH",
"776 885 OFFCURVE",
"775 874 OFFCURVE",
"772 864 CURVE SMOOTH",
"614 272 LINE",
"439 883 LINE SMOOTH",
"437 891 OFFCURVE",
"435 900 OFFCURVE",
"435 908 CURVE SMOOTH",
"435 942 OFFCURVE",
"458 975 OFFCURVE",
"512 975 CURVE",
"512 1011 OFFCURVE",
"498 1047 OFFCURVE",
"485 1072 CURVE",
"86 1072 LINE",
"67 1041 OFFCURVE",
"62 1011 OFFCURVE",
"62 975 CURVE",
"132 975 OFFCURVE",
"156 957 OFFCURVE",
"174 902 CURVE SMOOTH",
"472 -5 LINE",
"532 -5 LINE SMOOTH",
"634 -5 OFFCURVE",
"699 57 OFFCURVE",
"741 203 CURVE SMOOTH",
"868 642 LINE {name = hr00;}"
);
}
);
width = 1741;
}
);
leftKerningGroup = W;
rightKerningGroup = W;
unicode = 0057;
},
{
color = 9;
glyphname = X;
lastChange = "2018-06-05 02:45:14 +0000";
layers = (
{
anchors = (
{
name = btm;
position = "{591, 0}";
},
{
name = top;
position = "{591, 1500}";
}
);
layerId = "184835E3-72D9-430C-A639-2454AC4A0BE8";
paths = (
{
closed = 1;
nodes = (
"657 632 LINE",
"660 502 LINE",
"935 899 LINE SMOOTH",
"972 953 OFFCURVE",
"1002 976 OFFCURVE",
"1086 976 CURVE",
"1086 1012 OFFCURVE",
"1073 1048 OFFCURVE",
"1050 1073 CURVE",
"699 1073 LINE",
"676 1048 OFFCURVE",
"663 1012 OFFCURVE",
"663 976 CURVE",
"711 976 OFFCURVE",
"738 950 OFFCURVE",
"738 918 CURVE SMOOTH",
"738 906 OFFCURVE",
"735 892 OFFCURVE",
"726 878 CURVE",
"586 620 LINE",
"663 623 LINE",
"495 878 LINE SMOOTH",
"482 898 OFFCURVE",
"471 918 OFFCURVE",
"471 935 CURVE SMOOTH",
"471 959 OFFCURVE",
"492 976 OFFCURVE",
"557 976 CURVE",
"557 1012 OFFCURVE",
"543 1048 OFFCURVE",
"521 1073 CURVE",
"84 1073 LINE",
"62 1048 OFFCURVE",
"49 1012 OFFCURVE",
"49 976 CURVE",
"110 976 OFFCURVE",
"165 947 OFFCURVE",
"210 882 CURVE SMOOTH",
"499 462 LINE",
"500 592 LINE",
"207 174 LINE SMOOTH",
"168 119 OFFCURVE",
"139 98 OFFCURVE",
"56 98 CURVE",
"56 62 OFFCURVE",
"69 25 OFFCURVE",
"92 0 CURVE",
"442 0 LINE",
"465 25 OFFCURVE",
"478 62 OFFCURVE",
"478 98 CURVE",
"430 98 OFFCURVE",
"402 123 OFFCURVE",
"402 155 CURVE SMOOTH",
"402 167 OFFCURVE",
"406 182 OFFCURVE",
"415 195 CURVE SMOOTH",
"588 461 LINE",
"497 460 LINE",
"681 195 LINE SMOOTH",
"694 176 OFFCURVE",
"702 157 OFFCURVE",
"702 140 CURVE SMOOTH",
"702 116 OFFCURVE",
"681 98 OFFCURVE",
"619 98 CURVE",
"619 62 OFFCURVE",
"632 25 OFFCURVE",
"655 0 CURVE",
"1092 0 LINE",
"1114 25 OFFCURVE",
"1127 62 OFFCURVE",
"1127 98 CURVE",
"1061 98 OFFCURVE",
"999 138 OFFCURVE",
"960 194 CURVE SMOOTH"
);
}
);
width = 1183;
}
);
leftKerningGroup = X;
rightKerningGroup = X;
unicode = 0058;
},
{
color = 9;
glyphname = Y;
lastChange = "2018-06-05 02:45:14 +0000";
layers = (
{
anchors = (
{
name = btm;
position = "{566, 0}";
},
{
name = top;
position = "{566, 1500}";
}
);
layerId = "184835E3-72D9-430C-A639-2454AC4A0BE8";
paths = (
{
closed = 1;
nodes = (
"733 1073 LINE",
"709 1048 OFFCURVE",
"697 1012 OFFCURVE",
"697 976 CURVE",
"745 976 OFFCURVE",
"788 946 OFFCURVE",
"788 907 CURVE SMOOTH",
"788 898 OFFCURVE",
"785 888 OFFCURVE",
"780 878 CURVE SMOOTH",
"580 517 LINE",
"653 516 LINE",
"488 839 LINE SMOOTH",
"472 869 OFFCURVE",
"464 895 OFFCURVE",
"464 915 CURVE SMOOTH",
"464 955 OFFCURVE",
"493 976 OFFCURVE",
"556 976 CURVE",
"556 1012 OFFCURVE",
"544 1048 OFFCURVE",
"520 1073 CURVE",
"80 1073 LINE",
"57 1048 OFFCURVE",
"44 1012 OFFCURVE",
"44 976 CURVE",
"85 976 OFFCURVE",
"133 947 OFFCURVE",
"157 907 CURVE SMOOTH",
"496 323 LINE",
"463 470 LINE",
"463 176 LINE SMOOTH",
"463 119 OFFCURVE",
"389 98 OFFCURVE",
"322 98 CURVE",
"322 62 OFFCURVE",
"334 25 OFFCURVE",
"356 0 CURVE",
"819 0 LINE",
"841 25 OFFCURVE",
"853 62 OFFCURVE",
"853 98 CURVE",
"781 98 OFFCURVE",
"705 119 OFFCURVE",
"705 176 CURVE SMOOTH",
"705 476 LINE",
"658 328 LINE",
"972 899 LINE SMOOTH {name = hr00;}",
"1005 959 OFFCURVE",
"1008 976 OFFCURVE",
"1091 976 CURVE",
"1091 1012 OFFCURVE",
"1078 1048 OFFCURVE",
"1055 1073 CURVE"
);
}
);
width = 1133;
}
);
leftKerningGroup = Y;
rightKerningGroup = Y;
unicode = 0059;
},
{
color = 9;
glyphname = Z;
lastChange = "2018-06-05 02:45:14 +0000";
layers = (
{
anchors = (
{
name = btm;
position = "{507, 0}";
},
{
name = top;
position = "{507, 1500}";
}
);
layerId = "184835E3-72D9-430C-A639-2454AC4A0BE8";
paths = (
{
closed = 1;
nodes = (
"946 1009 LINE",
"908 1065 LINE",
"155 1065 LINE",
"122 998 OFFCURVE",
"97 857 OFFCURVE",
"97 719 CURVE",
"242 719 LINE",
"263 872 OFFCURVE",
"343 944 OFFCURVE",
"477 944 CURVE SMOOTH",
"626 944 LINE",
"63 50 LINE",
"101 -8 LINE",
"773 -8 LINE",
"809 -25 OFFCURVE",
"851 -33 OFFCURVE",
"887 -33 CURVE",
"916 23 OFFCURVE",
"953 299 OFFCURVE",
"953 359 CURVE",
"814 359 LINE",
"785 272 OFFCURVE",
"711 113 OFFCURVE",
"607 113 CURVE",
"401 113 LINE {name = hr00;}"
);
}
);
width = 1014;
}
);
leftKerningGroup = Z;
rightKerningGroup = Z;
unicode = 005A;
},
{
color = 9;
glyphname = a;
lastChange = "2018-06-05 02:45:14 +0000";
layers = (
{
anchors = (
{
name = btm;
position = "{409, 0}";
},
{
name = top;
position = "{409, 1500}";
}
);
layerId = "184835E3-72D9-430C-A639-2454AC4A0BE8";
paths = (
{
closed = 1;
nodes = (
"32 85 OFFCURVE",
"134 -14 OFFCURVE",
"288 -14 CURVE SMOOTH",
"381 -14 OFFCURVE",
"448 22 OFFCURVE",
"490 59 CURVE",
"517 12 OFFCURVE",
"568 -14 OFFCURVE",
"637 -14 CURVE SMOOTH",
"698 -14 OFFCURVE",
"769 6 OFFCURVE",
"798 45 CURVE",
"798 94 LINE",
"750 104 OFFCURVE",
"723 135 OFFCURVE",
"723 183 CURVE SMOOTH",
"723 601 LINE SMOOTH",
"723 762 OFFCURVE",
"622 846 OFFCURVE",
"418 846 CURVE SMOOTH",
"187 846 OFFCURVE",
"85 741 OFFCURVE",
"85 639 CURVE SMOOTH",
"85 568 OFFCURVE",
"136 513 OFFCURVE",
"214 513 CURVE SMOOTH",
"284 513 OFFCURVE",
"339 560 OFFCURVE",
"339 627 CURVE SMOOTH",
"339 663 OFFCURVE",
"322 699 OFFCURVE",
"280 712 CURVE",
"301 728 OFFCURVE",
"331 736 OFFCURVE",
"364 736 CURVE SMOOTH",
"427 736 OFFCURVE",
"471 704 OFFCURVE",
"471 618 CURVE SMOOTH",
"471 413 LINE",
"430 435 OFFCURVE",
"358 447 OFFCURVE",
"298 447 CURVE SMOOTH",
"114 447 OFFCURVE",
"32 351 OFFCURVE",
"32 219 CURVE SMOOTH {name = hr00;}"
);
},
{
closed = 1;
nodes = (
"451 120 OFFCURVE",
"417 111 OFFCURVE",
"388 111 CURVE SMOOTH",
"327 111 OFFCURVE",
"286 150 OFFCURVE",
"286 217 CURVE SMOOTH",
"286 287 OFFCURVE",
"331 321 OFFCURVE",
"385 321 CURVE SMOOTH",
"416 321 OFFCURVE",
"450 309 OFFCURVE",
"471 295 CURVE",
"471 135 LINE"
);
}
);
width = 828;
}
);
leftKerningGroup = a;
rightKerningGroup = n;
unicode = 0061;
},
{
color = 9;
glyphname = ae;
lastChange = "2018-06-05 02:45:14 +0000";
layers = (
{
anchors = (
{
name = btm;
position = "{636, 0}";
},
{
name = top;
position = "{636, 1500}";
}
);
layerId = "184835E3-72D9-430C-A639-2454AC4A0BE8";
paths = (
{
closed = 1;
nodes = (
"79 84 OFFCURVE",
"180 -15 OFFCURVE",
"339 -15 CURVE SMOOTH",
"490 -15 OFFCURVE",
"610 74 OFFCURVE",
"685 174 CURVE",
"771 182 LINE",
"771 562 LINE SMOOTH",
"771 723 OFFCURVE",
"676 843 OFFCURVE",
"452 843 CURVE SMOOTH",
"241 843 OFFCURVE",
"133 738 OFFCURVE",
"133 636 CURVE SMOOTH",
"133 566 OFFCURVE",
"184 511 OFFCURVE",
"261 511 CURVE SMOOTH",
"331 511 OFFCURVE",
"386 557 OFFCURVE",
"386 624 CURVE SMOOTH",
"386 661 OFFCURVE",
"370 697 OFFCURVE",
"328 710 CURVE",
"349 725 OFFCURVE",
"379 734 OFFCURVE",
"411 734 CURVE SMOOTH",
"475 734 OFFCURVE",
"516 701 OFFCURVE",
"516 616 CURVE SMOOTH",
"516 412 LINE",
"476 434 OFFCURVE",
"406 446 OFFCURVE",
"346 446 CURVE SMOOTH",
"179 446 OFFCURVE",
"79 350 OFFCURVE",
"79 217 CURVE SMOOTH {name = hr01;}"
);
},
{
closed = 1;
nodes = (
"497 122 OFFCURVE",
"468 110 OFFCURVE",
"432 110 CURVE SMOOTH",
"379 110 OFFCURVE",
"333 147 OFFCURVE",
"333 216 CURVE SMOOTH",
"333 285 OFFCURVE",
"378 320 OFFCURVE",
"433 320 CURVE SMOOTH",
"463 320 OFFCURVE",
"496 308 OFFCURVE",
"516 294 CURVE",
"516 143 LINE"
);
},
{
closed = 1;
nodes = (
"612 62 OFFCURVE",
"730 -15 OFFCURVE",
"886 -15 CURVE SMOOTH",
"1063 -15 OFFCURVE",
"1172 86 OFFCURVE",
"1172 140 CURVE SMOOTH",
"1172 158 OFFCURVE",
"1159 202 OFFCURVE",
"1142 218 CURVE {name = hr02;}",
"1089 179 OFFCURVE",
"1032 156 OFFCURVE",
"962 156 CURVE SMOOTH",
"846 156 OFFCURVE",
"771 223 OFFCURVE",
"771 415 CURVE SMOOTH",
"771 480 LINE SMOOTH",
"771 683 OFFCURVE",
"829 734 OFFCURVE",
"886 734 CURVE SMOOTH",
"929 734 OFFCURVE",
"968 704 OFFCURVE",
"968 575 CURVE SMOOTH",
"968 534 OFFCURVE",
"964 506 OFFCURVE",
"928 506 CURVE SMOOTH",
"688 506 LINE",
"682 389 LINE",
"1093 389 LINE SMOOTH",
"1175 389 OFFCURVE",
"1193 458 OFFCURVE",
"1193 536 CURVE SMOOTH",
"1193 731 OFFCURVE",
"1079 843 OFFCURVE",
"899 843 CURVE SMOOTH",
"734 843 OFFCURVE",
"612 750 OFFCURVE",
"550 573 CURVE",
"553 194 LINE"
);
}
);
width = 1272;
}
);
leftKerningGroup = a;
rightKerningGroup = e;
unicode = 00E6;
userData = {
com.typemytype.robofont.guides = (
{
angle = 90;
isGlobal = 0;
magnetic = 5;
x = 938;
y = 0;
}
);
};
},
{
color = 9;
glyphname = b;
lastChange = "2018-06-05 02:45:14 +0000";
layers = (
{
anchors = (
{
name = btm;
position = "{428, 0}";
},
{
name = top;
position = "{428, 1500}";
}
);
layerId = "184835E3-72D9-430C-A639-2454AC4A0BE8";
paths = (
{
closed = 1;
nodes = (
"445 842 OFFCURVE",
"388 825 OFFCURVE",
"346 782 CURVE",
"351 929 LINE",
"351 1132 LINE SMOOTH",
"351 1182 OFFCURVE",
"332 1203 OFFCURVE",
"284 1203 CURVE SMOOTH",
"217 1203 OFFCURVE",
"79 1162 OFFCURVE",
"10 1115 CURVE",
"10 1066 LINE",
"77 1066 OFFCURVE",
"104 1037 OFFCURVE",
"104 990 CURVE SMOOTH",
"104 46 LINE",
"176 10 OFFCURVE",
"329 -16 OFFCURVE",
"420 -16 CURVE SMOOTH",
"649 -16 OFFCURVE",
"832 152 OFFCURVE",
"832 447 CURVE SMOOTH",
"832 716 OFFCURVE",
"685 842 OFFCURVE",
"515 842 CURVE SMOOTH"
);
},
{
closed = 1;
nodes = (
"395 97 OFFCURVE",
"371 106 OFFCURVE",
"351 125 CURVE",
"351 695 LINE",
"366 705 OFFCURVE",
"386 712 OFFCURVE",
"410 712 CURVE SMOOTH",
"503 712 OFFCURVE",
"575 619 OFFCURVE",
"575 394 CURVE SMOOTH",
"575 174 OFFCURVE",
"508 97 OFFCURVE",
"425 97 CURVE SMOOTH"
);
}
);
width = 885;
}
);
leftKerningGroup = h;
rightKerningGroup = o;
rightMetricsKey = o;
unicode = 0062;
},
{
color = 9;
glyphname = c;
lastChange = "2018-06-05 02:45:14 +0000";
layers = (
{
anchors = (
{
name = btm;
position = "{372, 0}";
},
{
name = top;
position = "{372, 1500}";
}
);
layerId = "184835E3-72D9-430C-A639-2454AC4A0BE8";
paths = (
{
closed = 1;
nodes = (
"623 173 OFFCURVE",
"562 156 OFFCURVE",
"506 156 CURVE SMOOTH",
"388 156 OFFCURVE",
"314 235 OFFCURVE",
"314 462 CURVE SMOOTH",
"314 671 OFFCURVE",
"387 734 OFFCURVE",
"446 734 CURVE SMOOTH",
"459 734 OFFCURVE",
"470 733 OFFCURVE",
"491 720 CURVE",
"464 701 OFFCURVE",
"444 672 OFFCURVE",
"444 626 CURVE SMOOTH",
"444 561 OFFCURVE",
"492 509 OFFCURVE",
"561 509 CURVE SMOOTH",
"638 509 OFFCURVE",
"694 562 OFFCURVE",
"694 658 CURVE SMOOTH",
"694 762 OFFCURVE",
"610 843 OFFCURVE",
"453 843 CURVE SMOOTH",
"225 843 OFFCURVE",
"53 682 OFFCURVE",
"53 408 CURVE SMOOTH",
"53 144 OFFCURVE",
"207 -15 OFFCURVE",
"432 -15 CURVE SMOOTH",
"576 -15 OFFCURVE",
"691 61 OFFCURVE",
"691 126 CURVE SMOOTH",
"691 148 OFFCURVE",
"679 183 OFFCURVE",
"662 203 CURVE {name = hr00;}"
);
}
);
width = 734;
}
);
leftKerningGroup = o;
leftMetricsKey = o;
rightKerningGroup = c;
unicode = 0063;
},
{
color = 9;
glyphname = d;
lastChange = "2018-06-05 02:45:14 +0000";
layers = (
{
anchors = (
{
name = btm;
position = "{457, 0}";
},
{
name = top;
position = "{457, 1500}";
}
);
layerId = "184835E3-72D9-430C-A639-2454AC4A0BE8";
paths = (
{
closed = 1;
nodes = (
"820 96 OFFCURVE",
"794 127 OFFCURVE",
"794 176 CURVE SMOOTH",
"794 1134 LINE SMOOTH",
"794 1185 OFFCURVE",
"774 1205 OFFCURVE",
"726 1205 CURVE SMOOTH",
"659 1205 OFFCURVE",
"518 1171 OFFCURVE",
"443 1130 CURVE",
"443 1067 LINE",
"528 1067 OFFCURVE",
"546 1038 OFFCURVE",
"546 991 CURVE SMOOTH",
"546 930 LINE",
"550 837 LINE",
"516 841 OFFCURVE",
"483 843 OFFCURVE",
"457 843 CURVE SMOOTH",
"228 843 OFFCURVE",
"53 675 OFFCURVE",
"53 380 CURVE SMOOTH",
"53 111 OFFCURVE",
"199 -15 OFFCURVE",
"368 -15 CURVE SMOOTH",
"450 -15 OFFCURVE",
"514 1 OFFCURVE",
"557 57 CURVE",
"582 8 OFFCURVE",
"650 -15 OFFCURVE",
"707 -15 CURVE SMOOTH",
"769 -15 OFFCURVE",
"839 5 OFFCURVE",
"869 44 CURVE",
"867 86 LINE"
);
},
{
closed = 1;
nodes = (
"382 116 OFFCURVE",
"310 214 OFFCURVE",
"310 434 CURVE SMOOTH",
"310 659 OFFCURVE",
"376 734 OFFCURVE",
"460 734 CURVE SMOOTH",
"497 734 OFFCURVE",
"525 719 OFFCURVE",
"546 689 CURVE",
"546 143 LINE",
"530 127 OFFCURVE",
"506 116 OFFCURVE",
"474 116 CURVE SMOOTH"
);
}
);
width = 904;
}
);
leftKerningGroup = o;
leftMetricsKey = o;
rightKerningGroup = l;
unicode = 0064;
},
{
color = 9;
glyphname = eth;
lastChange = "2018-06-05 02:45:14 +0000";
layers = (
{
anchors = (
{
name = btm;
position = "{433, 0}";
},
{
name = top;
position = "{433, 1500}";
}
);
layerId = "184835E3-72D9-430C-A639-2454AC4A0BE8";
paths = (
{
closed = 1;
nodes = (
"696 1222 OFFCURVE",
"671 1239 OFFCURVE",
"641 1255 CURVE",
"254 1002 LINE",
"254 980 OFFCURVE",
"289 929 OFFCURVE",
"326 923 CURVE",
"705 1178 LINE {name = hr00;}"
);
},
{
closed = 1;
nodes = (
"379 95 OFFCURVE",
"325 150 OFFCURVE",
"325 390 CURVE SMOOTH",
"325 631 OFFCURVE",
"367 682 OFFCURVE",
"440 682 CURVE SMOOTH",
"497 682 OFFCURVE",
"568 654 OFFCURVE",
"568 529 CURVE",
"611 602 LINE",
"611 718 OFFCURVE",
"523 792 OFFCURVE",
"394 792 CURVE SMOOTH",
"221 792 OFFCURVE",
"53 653 OFFCURVE",
"53 378 CURVE SMOOTH",
"53 131 OFFCURVE",
"211 -15 OFFCURVE",
"437 -15 CURVE SMOOTH",
"668 -15 OFFCURVE",
"814 147 OFFCURVE",
"814 464 CURVE SMOOTH",
"814 938 OFFCURVE",
"527 1244 OFFCURVE",
"305 1244 CURVE SMOOTH",
"253 1244 OFFCURVE",
"230 1226 OFFCURVE",
"211 1174 CURVE",
"506 1038 OFFCURVE",
"568 769 OFFCURVE",
"568 529 CURVE SMOOTH",
"568 150 OFFCURVE",
"531 95 OFFCURVE",
"445 95 CURVE SMOOTH"
);
}
);
width = 867;
}
);
leftKerningGroup = eth;
leftMetricsKey = o;
rightKerningGroup = eth;
rightMetricsKey = o;
unicode = 00F0;
},
{
color = 9;
glyphname = e;
lastChange = "2018-06-05 02:45:14 +0000";
layers = (
{
anchors = (
{
name = btm;
position = "{394, 0}";
},
{
name = top;
position = "{394, 1500}";
}
);
layerId = "184835E3-72D9-430C-A639-2454AC4A0BE8";
paths = (
{
closed = 1;
nodes = (
"392 155 OFFCURVE",
"319 216 OFFCURVE",
"312 388 CURVE",
"641 388 LINE SMOOTH",
"722 388 OFFCURVE",
"740 456 OFFCURVE",
"740 535 CURVE SMOOTH",
"740 730 OFFCURVE",
"621 842 OFFCURVE",
"437 842 CURVE SMOOTH",
"215 842 OFFCURVE",
"53 676 OFFCURVE",
"53 409 CURVE SMOOTH",
"53 148 OFFCURVE",
"198 -16 OFFCURVE",
"428 -16 CURVE SMOOTH",
"605 -16 OFFCURVE",
"713 86 OFFCURVE",
"713 136 CURVE SMOOTH",
"713 158 OFFCURVE",
"701 199 OFFCURVE",
"683 217 CURVE {name = hr00;}",
"630 178 OFFCURVE",
"572 155 OFFCURVE",
"503 155 CURVE SMOOTH"
);
},
{
closed = 1;
nodes = (
"471 736 OFFCURVE",
"508 705 OFFCURVE",
"508 575 CURVE SMOOTH",
"508 535 OFFCURVE",
"503 505 OFFCURVE",
"468 505 CURVE SMOOTH",
"312 505 LINE",
"317 687 OFFCURVE",
"373 736 OFFCURVE",
"427 736 CURVE SMOOTH"
);
}
);
width = 789;
}
);
leftKerningGroup = o;
leftMetricsKey = o;
rightKerningGroup = e;
unicode = 0065;
},
{
color = 9;
glyphname = schwa;
lastChange = "2018-06-05 02:45:14 +0000";
layers = (
{
anchors = (
{
name = btm;
position = "{393, 0}";
}
);
layerId = "184835E3-72D9-430C-A639-2454AC4A0BE8";
paths = (
{
closed = 1;
nodes = (
"184 843 OFFCURVE",
"76 741 OFFCURVE",
"76 691 CURVE SMOOTH",
"76 669 OFFCURVE",
"88 628 OFFCURVE",
"106 610 CURVE {name = hr00;}",
"159 649 OFFCURVE",
"217 672 OFFCURVE",
"286 672 CURVE SMOOTH",
"397 672 OFFCURVE",
"470 611 OFFCURVE",
"477 439 CURVE",
"148 439 LINE SMOOTH",
"67 439 OFFCURVE",
"49 371 OFFCURVE",
"49 292 CURVE SMOOTH",
"49 97 OFFCURVE",
"168 -15 OFFCURVE",
"352 -15 CURVE SMOOTH",
"574 -15 OFFCURVE",
"736 151 OFFCURVE",
"736 418 CURVE SMOOTH",
"736 679 OFFCURVE",
"591 843 OFFCURVE",
"361 843 CURVE SMOOTH"
);
},
{
closed = 1;
nodes = (
"318 91 OFFCURVE",
"281 122 OFFCURVE",
"281 252 CURVE SMOOTH",
"281 292 OFFCURVE",
"286 322 OFFCURVE",
"321 322 CURVE SMOOTH",
"477 322 LINE",
"472 140 OFFCURVE",
"416 91 OFFCURVE",
"362 91 CURVE SMOOTH"
);
}
);
width = 789;
}
);
leftKerningGroup = uni0259;
rightKerningGroup = uni0259;
rightMetricsKey = o;
unicode = 0259;
},
{
color = 9;
glyphname = f;
lastChange = "2018-06-05 02:45:14 +0000";
layers = (
{
anchors = (
{
name = btm;
position = "{328, 0}";
},
{
name = top;
position = "{328, 1500}";
}
);
layerId = "184835E3-72D9-430C-A639-2454AC4A0BE8";
paths = (
{
closed = 1;
nodes = (
"516 692 LINE",
"540 728 OFFCURVE",
"542 784 OFFCURVE",
"542 830 CURVE",
"395 830 LINE SMOOTH",
"375 830 OFFCURVE",
"344 902 OFFCURVE",
"344 995 CURVE SMOOTH",
"344 1081 OFFCURVE",
"388 1130 OFFCURVE",
"442 1130 CURVE SMOOTH {name = hr02;}",
"457 1130 OFFCURVE",
"464 1123 OFFCURVE",
"466 1115 CURVE",
"442 1098 OFFCURVE",
"433 1065 OFFCURVE",
"433 1037 CURVE SMOOTH",
"433 974 OFFCURVE",
"494 928 OFFCURVE",
"559 928 CURVE SMOOTH",
"634 928 OFFCURVE",
"679 991 OFFCURVE",
"679 1073 CURVE SMOOTH",
"679 1157 OFFCURVE",
"596 1264 OFFCURVE",
"437 1264 CURVE SMOOTH",
"252 1264 OFFCURVE",
"126 1160 OFFCURVE",
"126 946 CURVE SMOOTH",
"126 893 OFFCURVE",
"141 854 OFFCURVE",
"141 778 CURVE",
"158 845 LINE",
"125 819 OFFCURVE",
"105 801 OFFCURVE",
"47 787 CURVE",
"47 692 LINE {name = hr03;}",
"220 692 LINE",
"141 770 LINE",
"141 167 LINE SMOOTH",
"141 107 OFFCURVE",
"118 83 OFFCURVE",
"56 83 CURVE",
"56 50 OFFCURVE",
"69 23 OFFCURVE",
"92 0 CURVE",
"499 0 LINE",
"522 23 OFFCURVE",
"535 50 OFFCURVE",
"535 83 CURVE",
"412 83 OFFCURVE",
"391 112 OFFCURVE",
"391 182 CURVE SMOOTH",
"391 770 LINE {name = hr01;}",
"312 692 LINE {name = hr01;}"
);
}
);
width = 577;
}
);
leftKerningGroup = f;
rightKerningGroup = f;
unicode = 0066;
},
{
color = 9;
glyphname = g;
lastChange = "2018-06-05 02:45:14 +0000";
layers = (
{
anchors = (
{
name = btm;
position = "{426, 0}";
},
{
name = top;
position = "{420, 1549}";
}
);
layerId = "184835E3-72D9-430C-A639-2454AC4A0BE8";
paths = (
{
closed = 1;
nodes = (
"773 383 OFFCURVE",
"773 579 CURVE SMOOTH",
"773 638 OFFCURVE",
"750 701 OFFCURVE",
"695 751 CURVE",
"701 772 OFFCURVE",
"710 788 OFFCURVE",
"725 801 CURVE",
"752 763 OFFCURVE",
"789 756 OFFCURVE",
"820 756 CURVE SMOOTH",
"887 756 OFFCURVE",
"922 799 OFFCURVE",
"922 853 CURVE SMOOTH",
"922 895 OFFCURVE",
"888 956 OFFCURVE",
"789 956 CURVE SMOOTH",
"703 956 OFFCURVE",
"611 909 OFFCURVE",
"604 807 CURVE",
"552 827 OFFCURVE",
"487 840 OFFCURVE",
"406 840 CURVE SMOOTH",
"405 840 LINE SMOOTH",
"195 840 OFFCURVE",
"65 724 OFFCURVE",
"65 569 CURVE SMOOTH",
"65 412 OFFCURVE",
"206 290 OFFCURVE",
"393 290 CURVE SMOOTH",
"597 290 OFFCURVE"
);
},
{
closed = 1;
nodes = (
"368 400 OFFCURVE",
"329 446 OFFCURVE",
"329 552 CURVE SMOOTH {name = hr00;}",
"329 670 OFFCURVE",
"362 731 OFFCURVE",
"419 731 CURVE SMOOTH",
"467 731 OFFCURVE",
"510 698 OFFCURVE",
"510 589 CURVE SMOOTH",
"510 457 OFFCURVE",
"475 400 OFFCURVE",
"418 400 CURVE SMOOTH"
);
},
{
closed = 1;
nodes = (
"665 -380 OFFCURVE",
"824 -253 OFFCURVE",
"824 -83 CURVE SMOOTH",
"824 75 OFFCURVE",
"671 143 OFFCURVE",
"430 182 CURVE SMOOTH",
"330 198 OFFCURVE",
"281 207 OFFCURVE",
"281 260 CURVE SMOOTH",
"281 284 OFFCURVE",
"292 307 OFFCURVE",
"311 322 CURVE",
"303 339 LINE",
"183 339 OFFCURVE",
"123 239 OFFCURVE",
"123 194 CURVE SMOOTH",
"123 104 OFFCURVE",
"167 31 OFFCURVE",
"373 -10 CURVE SMOOTH",
"510 -37 OFFCURVE",
"586 -53 OFFCURVE",
"586 -125 CURVE SMOOTH",
"586 -187 OFFCURVE",
"545 -249 OFFCURVE",
"443 -249 CURVE SMOOTH",
"307 -249 OFFCURVE",
"260 -178 OFFCURVE",
"260 -88 CURVE SMOOTH",
"260 -37 OFFCURVE",
"271 26 OFFCURVE",
"351 51 CURVE",
"293 74 LINE",
"120 65 OFFCURVE",
"30 -25 OFFCURVE",
"30 -130 CURVE SMOOTH",
"30 -273 OFFCURVE",
"157 -380 OFFCURVE",
"422 -380 CURVE SMOOTH"
);
}
);
width = 852;
}
);
leftKerningGroup = g;
rightKerningGroup = g;
unicode = 0067;
},
{
color = 9;
glyphname = h;
lastChange = "2018-06-05 02:45:14 +0000";
layers = (
{
anchors = (
{
name = btm;
position = "{455, 0}";
},
{
name = top;
position = "{455, 1500}";
}
);
layerId = "184835E3-72D9-430C-A639-2454AC4A0BE8";
paths = (
{
closed = 1;
nodes = (
"820 763 OFFCURVE",
"746 836 OFFCURVE",
"602 836 CURVE SMOOTH",
"483 836 OFFCURVE",
"394 790 OFFCURVE",
"343 715 CURVE",
"347 602 LINE",
"373 654 OFFCURVE",
"420 686 OFFCURVE",
"466 686 CURVE SMOOTH",
"526 686 OFFCURVE",
"568 649 OFFCURVE",
"568 583 CURVE SMOOTH",
"568 58 LINE SMOOTH",
"568 -10 OFFCURVE",
"630 -22 OFFCURVE",
"706 -22 CURVE SMOOTH",
"781 -22 OFFCURVE",
"859 -4 OFFCURVE",
"895 30 CURVE",
"893 73 LINE",
"845 82 OFFCURVE",
"820 112 OFFCURVE",
"820 162 CURVE SMOOTH",
"820 627 LINE SMOOTH {name = hr00;}"
);
},
{
closed = 1;
nodes = (
"112 106 OFFCURVE",
"89 82 OFFCURVE",
"28 82 CURVE",
"28 49 OFFCURVE",
"40 23 OFFCURVE",
"64 0 CURVE",
"411 0 LINE",
"434 23 OFFCURVE",
"447 49 OFFCURVE",
"447 82 CURVE",
"385 82 OFFCURVE",
"362 105 OFFCURVE",
"362 166 CURVE SMOOTH",
"362 667 LINE",
"358 691 LINE",
"362 838 LINE",
"362 1126 LINE SMOOTH",
"362 1177 OFFCURVE",
"342 1197 OFFCURVE",
"295 1197 CURVE SMOOTH",
"227 1197 OFFCURVE",
"85 1163 OFFCURVE",
"10 1123 CURVE",
"10 1060 LINE",
"94 1060 OFFCURVE",
"112 1031 OFFCURVE",
"112 984 CURVE SMOOTH",
"112 166 LINE SMOOTH"
);
}
);
width = 930;
}
);
leftKerningGroup = h;
leftMetricsKey = b;
rightKerningGroup = n;
rightMetricsKey = n;
unicode = 0068;
},
{
color = 9;
glyphname = i;
lastChange = "2018-06-05 02:47:57 +0000";
layers = (
{
anchors = (
{
name = btm;
position = "{250, 0}";
},
{
name = top;
position = "{250, 1500}";
}
);
layerId = "184835E3-72D9-430C-A639-2454AC4A0BE8";
paths = (
{
closed = 1;
nodes = (
"381 816 OFFCURVE",
"360 836 OFFCURVE",
"312 836 CURVE SMOOTH",
"245 836 OFFCURVE",
"118 803 OFFCURVE",
"43 761 CURVE",
"43 693 LINE",
"128 693 OFFCURVE",
"133 664 OFFCURVE",
"133 617 CURVE SMOOTH",
"133 167 LINE SMOOTH",
"133 106 OFFCURVE",
"109 83 OFFCURVE",
"49 83 CURVE",
"49 48 OFFCURVE",
"61 23 OFFCURVE",
"85 0 CURVE",
"429 0 LINE",
"453 23 OFFCURVE",
"465 48 OFFCURVE",
"465 83 CURVE",
"404 83 OFFCURVE",
"381 105 OFFCURVE",
"381 166 CURVE SMOOTH",
"381 765 LINE SMOOTH {name = hr00;}"
);
},
{
closed = 1;
nodes = (
"394 1163 OFFCURVE",
"340 1218 OFFCURVE",
"256 1218 CURVE SMOOTH",
"171 1218 OFFCURVE",
"115 1163 OFFCURVE",
"115 1081 CURVE SMOOTH",
"115 998 OFFCURVE",
"168 943 OFFCURVE",
"253 943 CURVE SMOOTH",
"337 943 OFFCURVE",
"394 998 OFFCURVE",
"394 1081 CURVE SMOOTH"
);
}
);
width = 500;
}
);
leftKerningGroup = i;
rightKerningGroup = i;
unicode = 0069;
},
{
glyphname = idotless;
lastChange = "2018-06-03 05:48:24 +0000";
layers = (
{
anchors = (
{
name = btm;
position = "{250, 0}";
},
{
name = top;
position = "{250, 1500}";
}
);
layerId = "184835E3-72D9-430C-A639-2454AC4A0BE8";
paths = (
{
closed = 1;
nodes = (
"381 816 OFFCURVE",
"360 836 OFFCURVE",
"312 836 CURVE SMOOTH",
"245 836 OFFCURVE",
"118 803 OFFCURVE",
"43 761 CURVE",
"43 693 LINE",
"128 693 OFFCURVE",
"133 664 OFFCURVE",
"133 617 CURVE SMOOTH",
"133 167 LINE SMOOTH",
"133 106 OFFCURVE",
"109 83 OFFCURVE",
"49 83 CURVE",
"49 48 OFFCURVE",
"61 23 OFFCURVE",
"85 0 CURVE",
"429 0 LINE",
"453 23 OFFCURVE",
"465 48 OFFCURVE",
"465 83 CURVE",
"404 83 OFFCURVE",
"381 105 OFFCURVE",
"381 166 CURVE SMOOTH",
"381 765 LINE SMOOTH {name = hr00;}"
);
}
);
width = 500;
}
);
leftKerningGroup = idotless;
rightKerningGroup = idotless;
unicode = 0131;
},
{
color = 9;
glyphname = j;
lastChange = "2018-06-05 02:47:52 +0000";
layers = (
{
anchors = (
{
name = btm;
position = "{250, 0}";
},
{
name = top;
position = "{250, 1500}";
}
);
background = {
paths = (
{
closed = 1;
nodes = (
"381 816 OFFCURVE",
"360 836 OFFCURVE",
"312 836 CURVE SMOOTH",
"245 836 OFFCURVE",
"118 803 OFFCURVE",
"43 761 CURVE",
"43 693 LINE",
"128 693 OFFCURVE",
"133 664 OFFCURVE",
"133 617 CURVE SMOOTH",
"133 167 LINE SMOOTH",
"133 106 OFFCURVE",
"109 83 OFFCURVE",
"49 83 CURVE",
"49 48 OFFCURVE",
"61 23 OFFCURVE",
"85 0 CURVE",
"429 0 LINE",
"453 23 OFFCURVE",
"465 48 OFFCURVE",
"465 83 CURVE",
"404 83 OFFCURVE",
"381 105 OFFCURVE",
"381 166 CURVE SMOOTH",
"381 765 LINE SMOOTH {name = hr00;}"
);
},
{
closed = 1;
nodes = (
"394 1163 OFFCURVE",
"340 1218 OFFCURVE",
"256 1218 CURVE SMOOTH",
"171 1218 OFFCURVE",
"115 1163 OFFCURVE",
"115 1081 CURVE SMOOTH",
"115 998 OFFCURVE",
"168 943 OFFCURVE",
"253 943 CURVE SMOOTH",
"337 943 OFFCURVE",
"394 998 OFFCURVE",
"394 1081 CURVE SMOOTH"
);
}
);
};
layerId = "184835E3-72D9-430C-A639-2454AC4A0BE8";
paths = (
{
closed = 1;
nodes = (
"395 1165 OFFCURVE",
"339 1218 OFFCURVE",
"255 1218 CURVE SMOOTH",
"171 1218 OFFCURVE",
"117 1165 OFFCURVE",
"117 1082 CURVE SMOOTH",
"117 1002 OFFCURVE",
"171 946 OFFCURVE",
"255 946 CURVE SMOOTH",
"339 946 OFFCURVE",
"395 1002 OFFCURVE",
"395 1082 CURVE SMOOTH {name = hr00;}"
);
},
{
closed = 1;
nodes = (
"266 -276 OFFCURVE",
"380 -185 OFFCURVE",
"380 8 CURVE SMOOTH",
"380 779 LINE SMOOTH",
"380 830 OFFCURVE",
"363 849 OFFCURVE",
"314 849 CURVE SMOOTH",
"249 849 OFFCURVE",
"110 815 OFFCURVE",
"34 776 CURVE",
"34 707 LINE",
"118 707 OFFCURVE",
"136 680 OFFCURVE",
"136 632 CURVE SMOOTH",
"136 19 LINE SMOOTH",
"136 -109 OFFCURVE",
"90 -148 OFFCURVE",
"10 -148 CURVE",
"3 -158 OFFCURVE",
"-5 -179 OFFCURVE",
"-5 -193 CURVE SMOOTH",
"-5 -231 OFFCURVE",
"38 -276 OFFCURVE",
"133 -276 CURVE SMOOTH"
);
}
);
width = 430;
}
);
rightMetricsKey = i;
unicode = 006A;
},
{
color = 9;
glyphname = k;
lastChange = "2018-06-05 02:45:14 +0000";
layers = (
{
anchors = (
{
name = btm;
position = "{447, 0}";
},
{
name = top;
position = "{447, 1500}";
}
);
layerId = "184835E3-72D9-430C-A639-2454AC4A0BE8";
paths = (
{
closed = 1;
nodes = (
"515 352 OFFCURVE",
"452 -10 OFFCURVE",
"742 -10 CURVE SMOOTH",
"817 -10 OFFCURVE",
"888 14 OFFCURVE",
"894 57 CURVE",
"894 94 LINE",
"814 123 OFFCURVE",
"809 161 OFFCURVE",
"704 330 CURVE SMOOTH",
"639 435 OFFCURVE",
"575 460 OFFCURVE",
"445 460 CURVE",
"350 406 LINE {name = hr00;}"
);
},
{
closed = 1;
nodes = (
"112 106 OFFCURVE",
"89 82 OFFCURVE",
"28 82 CURVE",
"28 49 OFFCURVE",
"40 23 OFFCURVE",
"64 0 CURVE",
"411 0 LINE",
"434 23 OFFCURVE",
"447 49 OFFCURVE",
"447 82 CURVE",
"385 82 OFFCURVE",
"362 105 OFFCURVE",
"362 166 CURVE SMOOTH",
"362 1126 LINE SMOOTH",
"362 1178 OFFCURVE",
"342 1197 OFFCURVE",
"293 1197 CURVE SMOOTH",
"228 1197 OFFCURVE",
"85 1163 OFFCURVE",
"10 1123 CURVE",
"10 1060 LINE",
"94 1060 OFFCURVE",
"112 1031 OFFCURVE",
"112 984 CURVE SMOOTH",
"112 166 LINE SMOOTH"
);
},
{
closed = 1;
nodes = (
"794 714 OFFCURVE",
"816 736 OFFCURVE",
"871 736 CURVE",
"871 770 OFFCURVE",
"866 806 OFFCURVE",
"842 830 CURVE",
"496 830 LINE",
"472 806 OFFCURVE",
"460 770 OFFCURVE",
"460 736 CURVE",
"501 736 OFFCURVE",
"535 717 OFFCURVE",
"555 686 CURVE SMOOTH",
"564 672 OFFCURVE",
"541 646 OFFCURVE",
"527 631 CURVE SMOOTH",
"357 451 LINE",
"357 408 LINE",
"516 443 LINE",
"773 694 LINE SMOOTH"
);
}
);
width = 879;
}
);
leftKerningGroup = h;
leftMetricsKey = b;
rightKerningGroup = k;
unicode = 006B;
},
{
color = 9;
glyphname = kgreenlandic;
lastChange = "2018-06-05 02:48:13 +0000";
layers = (
{
layerId = "184835E3-72D9-430C-A639-2454AC4A0BE8";
paths = (
{
closed = 1;
nodes = (
"567 336 OFFCURVE",
"518 -22 OFFCURVE",
"808 -22 CURVE SMOOTH",
"883 -22 OFFCURVE",
"953 1 OFFCURVE",
"959 45 CURVE",
"959 88 LINE",
"879 118 OFFCURVE",
"860 149 OFFCURVE",
"755 313 CURVE SMOOTH",
"688 418 OFFCURVE",
"627 444 OFFCURVE",
"496 444 CURVE",
"403 391 LINE {name = hr00;}"
);
},
{
closed = 1;
nodes = (
"162 112 OFFCURVE",
"139 89 OFFCURVE",
"77 89 CURVE",
"77 55 OFFCURVE",
"90 23 OFFCURVE",
"113 0 CURVE",
"462 0 LINE",
"486 23 OFFCURVE",
"498 55 OFFCURVE",
"498 89 CURVE",
"437 89 OFFCURVE",
"414 112 OFFCURVE",
"414 172 CURVE SMOOTH",
"414 766 LINE SMOOTH",
"414 817 OFFCURVE",
"394 836 OFFCURVE",
"344 836 CURVE SMOOTH",
"280 836 OFFCURVE",
"134 803 OFFCURVE",
"59 762 CURVE",
"59 700 LINE",
"144 700 OFFCURVE",
"162 670 OFFCURVE",
"162 623 CURVE SMOOTH",
"162 173 LINE SMOOTH"
);
},
{
closed = 1;
nodes = (
"845 697 OFFCURVE",
"866 721 OFFCURVE",
"917 721 CURVE",
"917 754 OFFCURVE",
"911 790 OFFCURVE",
"888 814 CURVE",
"575 814 LINE",
"551 790 OFFCURVE",
"539 754 OFFCURVE",
"539 721 CURVE",
"580 721 OFFCURVE",
"607 692 OFFCURVE",
"607 661 CURVE SMOOTH",
"607 645 OFFCURVE",
"600 630 OFFCURVE",
"586 616 CURVE SMOOTH",
"409 442 LINE",
"409 392 LINE",
"568 427 LINE",
"826 678 LINE SMOOTH"
);
}
);
width = 997;
}
);
leftKerningGroup = h;
rightKerningGroup = k;
unicode = 0138;
},
{
color = 9;
glyphname = l;
lastChange = "2018-06-05 02:45:14 +0000";
layers = (
{
anchors = (
{
name = btm;
position = "{233, 0}";
},
{
name = top;
position = "{233, 1500}";
}
);
layerId = "184835E3-72D9-430C-A639-2454AC4A0BE8";
paths = (
{
closed = 1;
nodes = (
"118 106 OFFCURVE",
"94 83 OFFCURVE",
"33 83 CURVE",
"33 49 OFFCURVE",
"46 24 OFFCURVE",
"69 0 CURVE",
"414 0 LINE",
"437 24 OFFCURVE",
"450 49 OFFCURVE",
"450 83 CURVE",
"389 83 OFFCURVE",
"365 105 OFFCURVE",
"365 167 CURVE SMOOTH",
"365 1127 LINE SMOOTH",
"365 1178 OFFCURVE",
"345 1197 OFFCURVE",
"298 1197 CURVE SMOOTH",
"230 1197 OFFCURVE",
"90 1164 OFFCURVE",
"14 1123 CURVE",
"14 1061 LINE",
"100 1061 OFFCURVE",
"118 1031 OFFCURVE",
"118 984 CURVE SMOOTH",
"118 167 LINE SMOOTH {name = hr00;}"
);
}
);
width = 462;
}
);
leftKerningGroup = h;
rightKerningGroup = l;
unicode = 006C;
},
{
color = 9;
glyphname = m;
lastChange = "2018-06-05 02:45:14 +0000";
layers = (
{
anchors = (
{
name = btm;
position = "{701, 0}";
},
{
name = top;
position = "{701, 1500}";
}
);
layerId = "184835E3-72D9-430C-A639-2454AC4A0BE8";
paths = (
{
closed = 1;
nodes = (
"1290 763 OFFCURVE",
"1217 836 OFFCURVE",
"1070 836 CURVE SMOOTH",
"954 836 OFFCURVE",
"867 790 OFFCURVE",
"816 715 CURVE",
"819 607 LINE",
"846 659 OFFCURVE",
"892 686 OFFCURVE",
"942 686 CURVE SMOOTH {name = hr02;}",
"998 686 OFFCURVE",
"1038 649 OFFCURVE",
"1038 583 CURVE SMOOTH",
"1038 58 LINE SMOOTH",
"1038 -6 OFFCURVE",
"1100 -22 OFFCURVE",
"1176 -22 CURVE SMOOTH",
"1272 -22 OFFCURVE",
"1329 -4 OFFCURVE",
"1365 29 CURVE",
"1365 73 LINE",
"1317 82 OFFCURVE",
"1290 106 OFFCURVE",
"1290 154 CURVE SMOOTH",
"1290 626 LINE SMOOTH {name = hr01;}"
);
},
{
closed = 1;
nodes = (
"852 763 OFFCURVE",
"777 836 OFFCURVE",
"630 836 CURVE SMOOTH",
"513 836 OFFCURVE",
"423 787 OFFCURVE",
"374 712 CURVE",
"377 602 LINE",
"404 655 OFFCURVE",
"453 686 OFFCURVE",
"503 686 CURVE SMOOTH",
"558 686 OFFCURVE",
"600 649 OFFCURVE",
"600 583 CURVE SMOOTH",
"600 166 LINE SMOOTH",
"600 106 OFFCURVE",
"580 82 OFFCURVE",
"528 82 CURVE {name = hr03;}",
"528 48 OFFCURVE",
"542 23 OFFCURVE",
"564 0 CURVE",
"892 0 LINE",
"915 23 OFFCURVE",
"928 48 OFFCURVE",
"928 82 CURVE",
"875 82 OFFCURVE",
"851 106 OFFCURVE",
"851 166 CURVE SMOOTH",
"852 626 LINE SMOOTH"
);
},
{
closed = 1;
nodes = (
"453 23 OFFCURVE",
"465 48 OFFCURVE",
"465 82 CURVE",
"414 82 OFFCURVE",
"395 105 OFFCURVE",
"395 166 CURVE SMOOTH",
"396 700 LINE SMOOTH",
"396 812 OFFCURVE",
"364 836 OFFCURVE",
"316 836 CURVE SMOOTH",
"260 836 OFFCURVE",
"112 802 OFFCURVE",
"40 761 CURVE",
"40 693 LINE",
"119 693 OFFCURVE",
"143 670 OFFCURVE",
"143 616 CURVE SMOOTH",
"143 166 LINE SMOOTH",
"143 106 OFFCURVE",
"119 82 OFFCURVE",
"58 82 CURVE",
"58 48 OFFCURVE",
"71 23 OFFCURVE",
"94 0 CURVE",
"429 0 LINE"
);
}
);
width = 1400;
}
);
leftKerningGroup = n;
leftMetricsKey = n;
rightKerningGroup = n;
rightMetricsKey = n;
unicode = 006D;
},
{
color = 9;
glyphname = n;
lastChange = "2018-06-05 02:45:14 +0000";
layers = (
{
anchors = (
{
name = btm;
position = "{502, 0}";
},
{
name = top;
position = "{479, 1500}";
}
);
layerId = "184835E3-72D9-430C-A639-2454AC4A0BE8";
paths = (
{
closed = 1;
nodes = (
"845 769 OFFCURVE",
"772 836 OFFCURVE",
"628 836 CURVE SMOOTH",
"512 836 OFFCURVE",
"424 780 OFFCURVE",
"376 705 CURVE",
"380 616 LINE",
"406 658 OFFCURVE",
"450 686 OFFCURVE",
"501 686 CURVE SMOOTH",
"553 686 OFFCURVE",
"593 658 OFFCURVE",
"593 574 CURVE SMOOTH",
"593 58 LINE SMOOTH",
"593 -3 OFFCURVE",
"643 -9 OFFCURVE",
"731 -9 CURVE SMOOTH",
"798 -9 OFFCURVE",
"889 9 OFFCURVE",
"921 42 CURVE",
"919 86 LINE",
"871 95 OFFCURVE",
"845 125 OFFCURVE",
"845 175 CURVE SMOOTH",
"845 595 LINE SMOOTH {name = hr00;}"
);
},
{
closed = 1;
nodes = (
"467 23 OFFCURVE",
"479 49 OFFCURVE",
"479 82 CURVE",
"418 82 OFFCURVE",
"395 106 OFFCURVE",
"395 166 CURVE SMOOTH",
"395 700 LINE SMOOTH",
"395 812 OFFCURVE",
"364 836 OFFCURVE",
"316 836 CURVE SMOOTH",
"260 836 OFFCURVE",
"112 802 OFFCURVE",
"40 761 CURVE",
"40 693 LINE",
"119 693 OFFCURVE",
"143 670 OFFCURVE",
"143 616 CURVE SMOOTH",
"143 167 LINE SMOOTH",
"143 106 OFFCURVE",
"119 82 OFFCURVE",
"58 82 CURVE",
"58 49 OFFCURVE",
"71 23 OFFCURVE",
"94 0 CURVE",
"443 0 LINE"
);
}
);
width = 956;
}
);
leftKerningGroup = n;
rightKerningGroup = n;
unicode = 006E;
},
{
color = 9;
glyphname = eng;
lastChange = "2018-06-05 02:45:14 +0000";
layers = (
{
layerId = "184835E3-72D9-430C-A639-2454AC4A0BE8";
paths = (
{
closed = 1;
nodes = (
"466 24 OFFCURVE",
"479 57 OFFCURVE",
"479 90 CURVE",
"418 90 OFFCURVE",
"394 113 OFFCURVE",
"394 175 CURVE SMOOTH",
"394 701 LINE SMOOTH",
"394 813 OFFCURVE",
"364 837 OFFCURVE",
"316 837 CURVE SMOOTH",
"260 837 OFFCURVE",
"112 803 OFFCURVE",
"40 763 CURVE",
"40 694 LINE",
"119 694 OFFCURVE",
"143 671 OFFCURVE",
"143 617 CURVE SMOOTH",
"143 175 LINE SMOOTH",
"143 114 OFFCURVE",
"119 90 OFFCURVE",
"58 90 CURVE",
"58 57 OFFCURVE",
"71 24 OFFCURVE",
"94 0 CURVE",
"443 0 LINE {name = hr00;}"
);
},
{
closed = 1;
nodes = (
"728 -301 OFFCURVE",
"846 -211 OFFCURVE",
"846 -13 CURVE SMOOTH",
"845 628 LINE SMOOTH",
"845 763 OFFCURVE",
"772 837 OFFCURVE",
"627 837 CURVE SMOOTH",
"512 837 OFFCURVE",
"424 791 OFFCURVE",
"376 715 CURVE",
"379 617 LINE",
"404 658 OFFCURVE",
"450 687 OFFCURVE",
"501 687 CURVE SMOOTH",
"553 687 OFFCURVE",
"593 650 OFFCURVE",
"593 584 CURVE SMOOTH",
"594 -3 LINE SMOOTH",
"594 -131 OFFCURVE",
"550 -172 OFFCURVE",
"469 -172 CURVE",
"460 -183 OFFCURVE",
"455 -204 OFFCURVE",
"455 -218 CURVE SMOOTH",
"455 -255 OFFCURVE",
"497 -301 OFFCURVE",
"593 -301 CURVE SMOOTH"
);
}
);
width = 881;
}
);
leftKerningGroup = n;
leftMetricsKey = n;
rightKerningGroup = j;
rightMetricsKey = n;
unicode = 014B;
},
{
color = 9;
glyphname = o;
lastChange = "2018-06-05 02:45:14 +0000";
layers = (
{
anchors = (
{
name = btm;
position = "{435, 0}";
},
{
name = top;
position = "{435, 1500}";
}
);
layerId = "184835E3-72D9-430C-A639-2454AC4A0BE8";
paths = (
{
closed = 1;
nodes = (
"655 -15 OFFCURVE",
"817 138 OFFCURVE",
"817 425 CURVE SMOOTH",
"817 698 OFFCURVE",
"663 843 OFFCURVE",
"442 843 CURVE SMOOTH",
"214 843 OFFCURVE",
"53 689 OFFCURVE",
"53 400 CURVE SMOOTH",
"53 129 OFFCURVE",
"207 -15 OFFCURVE",
"427 -15 CURVE SMOOTH"
);
},
{
closed = 1;
nodes = (
"369 95 OFFCURVE",
"325 152 OFFCURVE",
"325 442 CURVE SMOOTH {name = hr00;}",
"325 682 OFFCURVE",
"365 734 OFFCURVE",
"430 734 CURVE SMOOTH",
"501 734 OFFCURVE",
"545 677 OFFCURVE",
"545 388 CURVE SMOOTH",
"545 148 OFFCURVE",
"505 95 OFFCURVE",
"440 95 CURVE SMOOTH"
);
}
);
width = 870;
}
);
leftKerningGroup = o;
rightKerningGroup = o;
unicode = 006F;
},
{
color = 9;
glyphname = oe;
lastChange = "2018-06-05 02:45:14 +0000";
layers = (
{
anchors = (
{
name = btm;
position = "{643, 0}";
},
{
name = top;
position = "{643, 1500}";
}
);
layerId = "184835E3-72D9-430C-A639-2454AC4A0BE8";
paths = (
{
closed = 1;
nodes = (
"655 -15 OFFCURVE",
"817 138 OFFCURVE",
"817 425 CURVE SMOOTH",
"817 698 OFFCURVE",
"663 843 OFFCURVE",
"443 843 CURVE SMOOTH",
"213 843 OFFCURVE",
"53 689 OFFCURVE",
"53 400 CURVE SMOOTH",
"53 129 OFFCURVE",
"206 -15 OFFCURVE",
"426 -15 CURVE SMOOTH"
);
},
{
closed = 1;
nodes = (
"369 95 OFFCURVE",
"325 152 OFFCURVE",
"325 442 CURVE SMOOTH {name = hr00;}",
"325 682 OFFCURVE",
"365 734 OFFCURVE",
"429 734 CURVE SMOOTH",
"500 734 OFFCURVE",
"545 677 OFFCURVE",
"545 388 CURVE SMOOTH",
"545 148 OFFCURVE",
"505 95 OFFCURVE",
"440 95 CURVE SMOOTH"
);
},
{
closed = 1;
nodes = (
"1133 179 OFFCURVE",
"1076 156 OFFCURVE",
"1006 156 CURVE SMOOTH",
"890 156 OFFCURVE",
"815 223 OFFCURVE",
"815 415 CURVE SMOOTH",
"815 480 LINE SMOOTH",
"815 683 OFFCURVE",
"872 737 OFFCURVE",
"929 737 CURVE SMOOTH",
"974 737 OFFCURVE",
"1012 706 OFFCURVE",
"1012 576 CURVE SMOOTH",
"1012 536 OFFCURVE",
"1007 506 OFFCURVE",
"972 506 CURVE SMOOTH",
"731 506 LINE",
"726 389 LINE",
"1137 389 LINE SMOOTH",
"1219 389 OFFCURVE",
"1237 457 OFFCURVE",
"1237 536 CURVE SMOOTH",
"1237 731 OFFCURVE",
"1124 843 OFFCURVE",
"941 843 CURVE SMOOTH",
"719 843 OFFCURVE",
"555 679 OFFCURVE",
"555 410 CURVE SMOOTH",
"555 149 OFFCURVE",
"701 -15 OFFCURVE",
"931 -15 CURVE SMOOTH",
"1107 -15 OFFCURVE",
"1216 87 OFFCURVE",
"1216 137 CURVE SMOOTH",
"1216 159 OFFCURVE",
"1203 200 OFFCURVE",
"1186 218 CURVE {name = hr00;}"
);
}
);
width = 1286;
}
);
leftKerningGroup = o;
leftMetricsKey = o;
rightKerningGroup = e;
rightMetricsKey = e;
unicode = 0153;
},
{
color = 9;
glyphname = p;
lastChange = "2018-06-05 02:45:14 +0000";
layers = (
{
anchors = (
{
name = btm;
position = "{425, 0}";
},
{
name = top;
position = "{425, 1500}";
}
);
layerId = "184835E3-72D9-430C-A639-2454AC4A0BE8";
paths = (
{
closed = 1;
nodes = (
"650 -10 OFFCURVE",
"826 158 OFFCURVE",
"826 453 CURVE SMOOTH",
"826 712 OFFCURVE",
"686 837 OFFCURVE",
"523 837 CURVE SMOOTH",
"451 837 OFFCURVE",
"387 820 OFFCURVE",
"340 775 CURVE",
"328 824 OFFCURVE",
"299 837 OFFCURVE",
"259 837 CURVE SMOOTH",
"205 837 OFFCURVE",
"77 803 OFFCURVE",
"10 763 CURVE",
"10 694 LINE",
"88 694 OFFCURVE",
"112 671 OFFCURVE",
"112 617 CURVE SMOOTH",
"112 -120 LINE SMOOTH",
"112 -180 OFFCURVE",
"102 -204 OFFCURVE",
"41 -204 CURVE",
"41 -238 OFFCURVE",
"54 -263 OFFCURVE",
"77 -286 CURVE",
"423 -286 LINE",
"447 -263 OFFCURVE",
"459 -238 OFFCURVE",
"459 -204 CURVE",
"413 -204 OFFCURVE",
"361 -180 OFFCURVE",
"361 -120 CURVE SMOOTH",
"361 -7 LINE",
"383 -9 OFFCURVE",
"403 -10 OFFCURVE",
"421 -10 CURVE SMOOTH"
);
},
{
closed = 1;
nodes = (
"568 179 OFFCURVE",
"502 101 OFFCURVE",
"418 101 CURVE SMOOTH",
"397 101 OFFCURVE",
"378 106 OFFCURVE",
"361 117 CURVE",
"361 691 LINE",
"373 697 OFFCURVE",
"388 700 OFFCURVE",
"404 700 CURVE SMOOTH",
"496 700 OFFCURVE",
"568 613 OFFCURVE",
"568 400 CURVE SMOOTH"
);
}
);
width = 879;
}
);
leftKerningGroup = p;
leftMetricsKey = b;
rightKerningGroup = o;
rightMetricsKey = b;
unicode = 0070;
},
{
glyphname = thorn;
lastChange = "2018-06-03 05:49:19 +0000";
layers = (
{
anchors = (
{
name = btm;
position = "{462, -270}";
},
{
name = top;
position = "{462, 664}";
}
);
components = (
{
name = b;
transform = "{0.75, 0, 0, 0.75, 11, -101}";
}
);
layerId = "184835E3-72D9-430C-A639-2454AC4A0BE8";
paths = (
{
closed = 1;
nodes = (
"456 -379 OFFCURVE",
"469 -354 OFFCURVE",
"469 -320 CURVE",
"411 -320 OFFCURVE",
"388 -296 OFFCURVE",
"387 -236 CURVE SMOOTH",
"385 -33 LINE",
"145 32 LINE",
"145 -236 LINE SMOOTH",
"145 -296 OFFCURVE",
"124 -320 OFFCURVE",
"63 -320 CURVE",
"63 -354 OFFCURVE",
"76 -379 OFFCURVE",
"99 -402 CURVE",
"433 -402 LINE"
);
}
);
width = 798;
}
);
leftKerningGroup = h;
leftMetricsKey = b;
rightKerningGroup = o;
rightMetricsKey = b;
unicode = 00FE;
},
{
color = 9;
glyphname = q;
lastChange = "2018-06-05 02:45:14 +0000";
layers = (
{
anchors = (
{
name = btm;
position = "{450, 0}";
},
{
name = top;
position = "{450, 1500}";
}
);
layerId = "184835E3-72D9-430C-A639-2454AC4A0BE8";
paths = (
{
closed = 1;
nodes = (
"781 644 LINE SMOOTH {name = hr00;}",
"781 705 OFFCURVE",
"784 729 OFFCURVE",
"845 729 CURVE",
"845 763 OFFCURVE",
"833 799 OFFCURVE",
"809 822 CURVE",
"708 822 LINE SMOOTH",
"684 822 OFFCURVE",
"661 819 OFFCURVE",
"639 814 CURVE",
"582 833 OFFCURVE",
"519 845 OFFCURVE",
"458 845 CURVE SMOOTH",
"228 845 OFFCURVE",
"53 676 OFFCURVE",
"53 382 CURVE SMOOTH",
"53 112 OFFCURVE",
"200 -14 OFFCURVE",
"369 -14 CURVE SMOOTH",
"435 -14 OFFCURVE",
"490 4 OFFCURVE",
"531 43 CURVE",
"531 -241 LINE SMOOTH",
"531 -305 OFFCURVE",
"592 -321 OFFCURVE",
"667 -321 CURVE SMOOTH",
"763 -321 OFFCURVE",
"820 -303 OFFCURVE",
"856 -269 CURVE",
"856 -227 LINE",
"808 -217 OFFCURVE",
"781 -194 OFFCURVE",
"781 -144 CURVE SMOOTH"
);
},
{
closed = 1;
nodes = (
"382 120 OFFCURVE",
"310 215 OFFCURVE",
"310 435 CURVE SMOOTH",
"310 660 OFFCURVE",
"377 735 OFFCURVE",
"460 735 CURVE SMOOTH",
"485 735 OFFCURVE",
"510 728 OFFCURVE",
"531 715 CURVE",
"531 135 LINE",
"516 126 OFFCURVE",
"498 120 OFFCURVE",
"475 120 CURVE SMOOTH"
);
}
);
width = 891;
}
);
leftKerningGroup = o;
leftMetricsKey = d;
rightKerningGroup = q;
rightMetricsKey = d;
unicode = 0071;
},
{
color = 9;
glyphname = r;
lastChange = "2018-06-05 02:45:14 +0000";
layers = (
{
anchors = (
{
name = btm;
position = "{278, 0}";
},
{
name = top;
position = "{367, 1500}";
}
);
layerId = "184835E3-72D9-430C-A639-2454AC4A0BE8";
paths = (
{
closed = 1;
nodes = (
"490 708 OFFCURVE",
"471 694 OFFCURVE",
"471 653 CURVE SMOOTH",
"471 602 OFFCURVE",
"508 554 OFFCURVE",
"579 554 CURVE SMOOTH",
"659 554 OFFCURVE",
"717 615 OFFCURVE",
"717 703 CURVE SMOOTH",
"717 781 OFFCURVE",
"677 836 OFFCURVE",
"576 836 CURVE SMOOTH",
"469 836 OFFCURVE",
"385 752 OFFCURVE",
"358 683 CURVE",
"328 557 LINE",
"400 680 OFFCURVE",
"462 690 OFFCURVE",
"538 697 CURVE",
"511 720 LINE {name = hr00;}"
);
},
{
closed = 1;
nodes = (
"381 701 LINE",
"381 812 OFFCURVE",
"360 836 OFFCURVE",
"312 836 CURVE SMOOTH",
"256 836 OFFCURVE",
"112 803 OFFCURVE",
"40 761 CURVE",
"40 693 LINE",
"119 693 OFFCURVE",
"142 671 OFFCURVE",
"142 617 CURVE SMOOTH",
"142 167 LINE SMOOTH",
"142 106 OFFCURVE",
"119 83 OFFCURVE",
"58 83 CURVE",
"58 48 OFFCURVE",
"71 23 OFFCURVE",
"94 0 CURVE",
"508 0 LINE",
"531 23 OFFCURVE",
"544 48 OFFCURVE",
"544 83 CURVE",
"421 83 OFFCURVE",
"394 111 OFFCURVE",
"394 181 CURVE SMOOTH",
"394 677 LINE"
);
}
);
width = 702;
}
);
leftKerningGroup = n;
leftMetricsKey = n;
rightKerningGroup = r;
unicode = 0072;
},
{
color = 9;
glyphname = s;
lastChange = "2018-06-05 02:45:14 +0000";
layers = (
{
anchors = (
{
name = btm;
position = "{367, 0}";
},
{
name = top;
position = "{367, 1500}";
}
);
layerId = "184835E3-72D9-430C-A639-2454AC4A0BE8";
paths = (
{
closed = 1;
nodes = (
"532 -15 OFFCURVE",
"701 55 OFFCURVE",
"701 228 CURVE SMOOTH",
"701 387 OFFCURVE",
"573 448 OFFCURVE",
"461 507 CURVE SMOOTH",
"378 551 OFFCURVE",
"299 588 OFFCURVE",
"299 659 CURVE SMOOTH",
"299 704 OFFCURVE",
"336 745 OFFCURVE",
"404 745 CURVE SMOOTH",
"443 745 OFFCURVE",
"473 734 OFFCURVE",
"496 716 CURVE",
"481 698 OFFCURVE",
"472 665 OFFCURVE",
"472 641 CURVE SMOOTH",
"472 588 OFFCURVE",
"518 554 OFFCURVE",
"569 554 CURVE SMOOTH",
"626 554 OFFCURVE",
"672 596 OFFCURVE",
"672 659 CURVE SMOOTH",
"672 746 OFFCURVE",
"592 843 OFFCURVE",
"378 843 CURVE SMOOTH",
"170 843 OFFCURVE",
"52 740 OFFCURVE",
"52 605 CURVE SMOOTH",
"52 443 OFFCURVE",
"184 381 OFFCURVE",
"297 320 CURVE SMOOTH",
"381 275 OFFCURVE",
"459 236 OFFCURVE",
"459 174 CURVE SMOOTH",
"459 134 OFFCURVE",
"417 98 OFFCURVE",
"346 98 CURVE SMOOTH",
"301 98 OFFCURVE",
"247 113 OFFCURVE",
"228 131 CURVE",
"245 152 OFFCURVE",
"253 170 OFFCURVE",
"253 197 CURVE SMOOTH",
"253 258 OFFCURVE",
"207 297 OFFCURVE",
"149 297 CURVE SMOOTH",
"87 297 OFFCURVE",
"40 250 OFFCURVE",
"40 177 CURVE SMOOTH",
"40 59 OFFCURVE",
"214 -15 OFFCURVE",
"360 -15 CURVE SMOOTH {name = hr00;}"
);
}
);
width = 741;
}
);
leftKerningGroup = s;
rightKerningGroup = s;
unicode = 0073;
},
{
glyphname = germandbls;
lastChange = "2018-06-03 05:48:24 +0000";
layers = (
{
anchors = (
{
name = btm;
position = "{541, 0}";
},
{
name = top;
position = "{541, 1500}";
}
);
layerId = "184835E3-72D9-430C-A639-2454AC4A0BE8";
paths = (
{
closed = 1;
nodes = (
"194 837 LINE",
"161 811 OFFCURVE",
"126 786 OFFCURVE",
"68 771 CURVE",
"68 676 LINE",
"162 676 LINE",
"162 174 LINE SMOOTH",
"162 113 OFFCURVE",
"138 90 OFFCURVE",
"78 90 CURVE",
"78 55 OFFCURVE",
"90 23 OFFCURVE",
"114 0 CURVE",
"411 0 LINE",
"411 919 LINE SMOOTH",
"411 1058 OFFCURVE",
"495 1102 OFFCURVE",
"553 1102 CURVE SMOOTH",
"618 1102 OFFCURVE",
"663 1072 OFFCURVE",
"663 1000 CURVE SMOOTH {name = hr02;}",
"663 848 OFFCURVE",
"542 812 OFFCURVE",
"542 664 CURVE SMOOTH",
"542 394 OFFCURVE",
"798 362 OFFCURVE",
"798 167 CURVE SMOOTH {name = hr03;}",
"798 119 OFFCURVE",
"773 91 OFFCURVE",
"721 91 CURVE SMOOTH",
"687 91 OFFCURVE",
"663 104 OFFCURVE",
"649 121 CURVE",
"664 137 OFFCURVE",
"675 163 OFFCURVE",
"675 191 CURVE SMOOTH",
"675 247 OFFCURVE",
"637 287 OFFCURVE",
"588 287 CURVE SMOOTH",
"522 287 OFFCURVE",
"480 232 OFFCURVE",
"480 167 CURVE SMOOTH",
"480 72 OFFCURVE",
"562 -15 OFFCURVE",
"726 -15 CURVE SMOOTH",
"873 -15 OFFCURVE",
"1020 48 OFFCURVE",
"1020 240 CURVE SMOOTH",
"1020 527 OFFCURVE",
"785 534 OFFCURVE",
"785 729 CURVE SMOOTH",
"785 817 OFFCURVE",
"880 859 OFFCURVE",
"876 987 CURVE SMOOTH {name = hr04;}",
"871 1143 OFFCURVE",
"762 1211 OFFCURVE",
"583 1211 CURVE SMOOTH",
"360 1211 OFFCURVE",
"177 1053 OFFCURVE",
"177 760 CURVE",
"220 769 LINE {name = hr01;}"
);
}
);
width = 1082;
}
);
leftKerningGroup = h;
rightKerningGroup = germandbls;
unicode = 00DF;
},
{
color = 9;
glyphname = t;
lastChange = "2018-06-05 02:45:14 +0000";
layers = (
{
anchors = (
{
name = btm;
position = "{305, 0}";
},
{
name = top;
position = "{305, 1500}";
}
);
background = {
paths = (
{
closed = 1;
nodes = (
"615 978 LINE",
"650 1031 OFFCURVE",
"653 1111 OFFCURVE",
"653 1177 CURVE",
"448 1177 LINE SMOOTH",
"400 1177 OFFCURVE",
"372 1281 OFFCURVE",
"372 1416 CURVE SMOOTH",
"372 1541 OFFCURVE",
"433 1612 OFFCURVE",
"508 1612 CURVE SMOOTH {name = hr02;}",
"531 1612 OFFCURVE",
"540 1601 OFFCURVE",
"543 1589 CURVE",
"509 1566 OFFCURVE",
"496 1518 OFFCURVE",
"496 1478 CURVE SMOOTH",
"496 1385 OFFCURVE",
"582 1326 OFFCURVE",
"671 1326 CURVE SMOOTH",
"779 1326 OFFCURVE",
"853 1417 OFFCURVE",
"853 1536 CURVE SMOOTH",
"853 1656 OFFCURVE",
"735 1805 OFFCURVE",
"501 1805 CURVE SMOOTH",
"233 1805 OFFCURVE",
"51 1655 OFFCURVE",
"51 1345 CURVE SMOOTH",
"51 1268 OFFCURVE",
"73 1212 OFFCURVE",
"73 1103 CURVE",
"98 1200 LINE",
"50 1162 OFFCURVE",
"21 1136 OFFCURVE",
"-63 1115 CURVE",
"-63 978 LINE {name = hr03;}",
"187 978 LINE",
"73 1092 LINE",
"73 242 LINE SMOOTH",
"73 154 OFFCURVE",
"39 120 OFFCURVE",
"-49 120 CURVE",
"-49 71 OFFCURVE",
"-31 34 OFFCURVE",
"3 0 CURVE",
"591 0 LINE",
"624 34 OFFCURVE",
"643 71 OFFCURVE",
"643 120 CURVE",
"465 120 OFFCURVE",
"434 162 OFFCURVE",
"434 262 CURVE SMOOTH",
"434 1092 LINE {name = hr01;}",
"320 978 LINE {name = hr01;}"
);
}
);
};
layerId = "184835E3-72D9-430C-A639-2454AC4A0BE8";
paths = (
{
closed = 1;
nodes = (
"544 728 OFFCURVE",
"545 779 OFFCURVE",
"545 829 CURVE",
"347 829 LINE",
"348 1014 LINE SMOOTH",
"349 1063 OFFCURVE",
"282 1096 OFFCURVE",
"206 1080 CURVE",
"206 925 OFFCURVE",
"155 799 OFFCURVE",
"29 786 CURVE",
"29 691 LINE",
"108 691 LINE",
"108 280 LINE SMOOTH",
"108 67 OFFCURVE",
"221 -7 OFFCURVE",
"359 -7 CURVE SMOOTH",
"519 -7 OFFCURVE",
"574 55 OFFCURVE",
"574 122 CURVE SMOOTH",
"574 141 OFFCURVE",
"568 185 OFFCURVE",
"545 203 CURVE",
"529 185 OFFCURVE",
"474 167 OFFCURVE",
"434 167 CURVE SMOOTH",
"392 167 OFFCURVE",
"350 167 OFFCURVE",
"350 270 CURVE SMOOTH",
"350 691 LINE",
"520 691 LINE {name = hr00;}"
);
}
);
width = 586;
}
);
leftKerningGroup = t;
rightKerningGroup = t;
unicode = 0074;
userData = {
com.typemytype.robofont.guides = (
{
angle = 0;
isGlobal = 0;
magnetic = 5;
x = 0;
y = -31;
}
);
};
},
{
color = 9;
glyphname = u;
lastChange = "2018-06-05 02:45:14 +0000";
layers = (
{
anchors = (
{
name = btm;
position = "{450, 0}";
},
{
name = top;
position = "{450, 1500}";
}
);
layerId = "184835E3-72D9-430C-A639-2454AC4A0BE8";
paths = (
{
closed = 1;
nodes = (
"540 46 OFFCURVE",
"602 -10 OFFCURVE",
"686 -10 CURVE SMOOTH",
"752 -10 OFFCURVE",
"832 10 OFFCURVE",
"865 49 CURVE",
"865 91 LINE",
"818 96 OFFCURVE",
"791 132 OFFCURVE",
"791 181 CURVE SMOOTH",
"791 747 LINE SMOOTH",
"791 819 OFFCURVE",
"769 835 OFFCURVE",
"689 835 CURVE SMOOTH",
"573 835 OFFCURVE",
"482 794 OFFCURVE",
"455 773 CURVE",
"455 705 LINE",
"509 705 OFFCURVE",
"540 693 OFFCURVE",
"540 658 CURVE",
"540 145 LINE SMOOTH {name = hr01;}"
);
},
{
closed = 1;
nodes = (
"110 85 OFFCURVE",
"193 -10 OFFCURVE",
"337 -10 CURVE SMOOTH",
"431 -10 OFFCURVE",
"508 31 OFFCURVE",
"558 112 CURVE",
"554 223 LINE",
"530 178 OFFCURVE",
"480 135 OFFCURVE",
"429 135 CURVE SMOOTH {name = hr02;}",
"377 135 OFFCURVE",
"361 169 OFFCURVE",
"361 230 CURVE SMOOTH",
"361 747 LINE SMOOTH",
"361 819 OFFCURVE",
"343 835 OFFCURVE",
"263 835 CURVE SMOOTH",
"154 835 OFFCURVE",
"61 794 OFFCURVE",
"35 773 CURVE",
"35 705 LINE",
"82 705 OFFCURVE",
"110 693 OFFCURVE",
"110 658 CURVE",
"110 235 LINE"
);
}
);
width = 900;
}
);
leftKerningGroup = u;
rightKerningGroup = u;
unicode = 0075;
},
{
color = 9;
glyphname = v;
lastChange = "2018-06-05 02:45:14 +0000";
layers = (
{
anchors = (
{
name = btm;
position = "{417, 0}";
},
{
name = top;
position = "{417, 1500}";
}
);
layerId = "184835E3-72D9-430C-A639-2454AC4A0BE8";
paths = (
{
closed = 1;
nodes = (
"318 646 OFFCURVE",
"317 657 OFFCURVE",
"317 667 CURVE SMOOTH",
"317 714 OFFCURVE",
"347 736 OFFCURVE",
"389 736 CURVE",
"389 769 OFFCURVE",
"376 805 OFFCURVE",
"353 829 CURVE",
"3 829 LINE",
"-21 805 OFFCURVE",
"-30 769 OFFCURVE",
"-30 736 CURVE",
"25 736 OFFCURVE",
"38 711 OFFCURVE",
"59 656 CURVE SMOOTH",
"308 -7 LINE",
"458 -7 LINE SMOOTH",
"550 -7 OFFCURVE",
"578 44 OFFCURVE",
"610 158 CURVE",
"772 656 LINE SMOOTH",
"790 712 OFFCURVE",
"810 736 OFFCURVE",
"865 736 CURVE",
"865 769 OFFCURVE",
"857 805 OFFCURVE",
"833 829 CURVE",
"542 829 LINE",
"519 805 OFFCURVE",
"513 769 OFFCURVE",
"513 736 CURVE",
"563 736 OFFCURVE",
"593 715 OFFCURVE",
"593 671 CURVE SMOOTH",
"593 660 OFFCURVE",
"591 647 OFFCURVE",
"588 634 CURVE SMOOTH",
"531 418 LINE",
"461 149 LINE",
"389 417 LINE",
"322 634 LINE SMOOTH {name = hr00;}"
);
}
);
width = 835;
}
);
leftKerningGroup = v;
rightKerningGroup = v;
unicode = 0076;
},
{
color = 9;
glyphname = w;
lastChange = "2018-06-05 02:45:14 +0000";
layers = (
{
anchors = (
{
name = btm;
position = "{661, 0}";
},
{
name = top;
position = "{661, 1500}";
}
);
layerId = "184835E3-72D9-430C-A639-2454AC4A0BE8";
paths = (
{
closed = 1;
nodes = (
"456 -7 LINE SMOOTH",
"553 -7 OFFCURVE",
"574 41 OFFCURVE",
"603 158 CURVE SMOOTH",
"763 802 LINE",
"612 802 LINE",
"452 163 LINE",
"323 643 LINE SMOOTH",
"318 660 OFFCURVE",
"317 673 OFFCURVE",
"317 685 CURVE SMOOTH",
"317 722 OFFCURVE",
"337 736 OFFCURVE",
"378 736 CURVE",
"378 769 OFFCURVE",
"372 805 OFFCURVE",
"347 829 CURVE",
"0 829 LINE",
"-24 805 OFFCURVE",
"-30 769 OFFCURVE",
"-30 736 CURVE",
"27 736 OFFCURVE",
"55 721 OFFCURVE",
"73 665 CURVE SMOOTH",
"290 -7 LINE {name = hr00;}"
);
},
{
closed = 1;
nodes = (
"824 659 OFFCURVE",
"823 673 OFFCURVE",
"823 684 CURVE SMOOTH",
"823 722 OFFCURVE",
"843 736 OFFCURVE",
"884 736 CURVE",
"884 769 OFFCURVE",
"878 805 OFFCURVE",
"854 829 CURVE",
"515 829 LINE",
"489 805 OFFCURVE",
"484 769 OFFCURVE",
"484 736 CURVE",
"540 736 OFFCURVE",
"570 722 OFFCURVE",
"587 665 CURVE SMOOTH",
"791 -7 LINE",
"951 -7 LINE SMOOTH",
"1052 -7 OFFCURVE",
"1073 44 OFFCURVE",
"1106 160 CURVE SMOOTH",
"1247 665 LINE SMOOTH",
"1262 721 OFFCURVE",
"1293 736 OFFCURVE",
"1350 736 CURVE",
"1350 769 OFFCURVE",
"1344 805 OFFCURVE",
"1319 829 CURVE",
"1041 829 LINE",
"1017 805 OFFCURVE",
"1012 769 OFFCURVE",
"1012 736 CURVE",
"1052 736 OFFCURVE",
"1073 722 OFFCURVE",
"1073 685 CURVE SMOOTH",
"1073 673 OFFCURVE",
"1070 660 OFFCURVE",
"1067 643 CURVE SMOOTH",
"955 163 LINE",
"828 643 LINE SMOOTH"
);
}
);
width = 1320;
}
);
leftKerningGroup = w;
rightKerningGroup = w;
unicode = 0077;
},
{
color = 9;
glyphname = x;
lastChange = "2018-06-05 02:45:14 +0000";
layers = (
{
anchors = (
{
name = btm;
position = "{421, 0}";
},
{
name = top;
position = "{421, 1500}";
}
);
layerId = "184835E3-72D9-430C-A639-2454AC4A0BE8";
paths = (
{
closed = 1;
nodes = (
"364 672 OFFCURVE",
"357 691 OFFCURVE",
"357 704 CURVE SMOOTH",
"357 726 OFFCURVE",
"376 737 OFFCURVE",
"408 737 CURVE",
"408 771 OFFCURVE",
"403 807 OFFCURVE",
"377 830 CURVE",
"21 830 LINE",
"-4 807 OFFCURVE",
"-10 771 OFFCURVE",
"-10 737 CURVE",
"47 737 OFFCURVE",
"82 692 OFFCURVE",
"116 643 CURVE",
"281 407 LINE",
"328 361 LINE",
"444 198 LINE",
"457 180 OFFCURVE",
"462 164 OFFCURVE",
"462 150 CURVE SMOOTH",
"462 124 OFFCURVE",
"441 106 OFFCURVE",
"400 106 CURVE",
"400 72 OFFCURVE",
"408 40 OFFCURVE",
"432 17 CURVE",
"805 17 LINE",
"828 40 OFFCURVE",
"843 72 OFFCURVE",
"843 106 CURVE",
"798 106 OFFCURVE",
"748 143 OFFCURVE",
"707 205 CURVE",
"505 477 LINE",
"460 524 LINE",
"379 649 LINE {name = hr00;}"
);
},
{
closed = 1;
nodes = (
"736 716 OFFCURVE",
"772 737 OFFCURVE",
"825 737 CURVE",
"825 771 OFFCURVE",
"818 807 OFFCURVE",
"793 830 CURVE",
"526 830 LINE",
"502 807 OFFCURVE",
"495 771 OFFCURVE",
"495 737 CURVE",
"517 737 OFFCURVE",
"543 725 OFFCURVE",
"543 696 CURVE SMOOTH",
"543 682 OFFCURVE",
"537 664 OFFCURVE",
"522 642 CURVE",
"398 475 LINE",
"460 385 LINE",
"691 658 LINE"
);
},
{
closed = 1;
nodes = (
"77 150 OFFCURVE",
"25 113 OFFCURVE",
"-20 106 CURVE",
"-20 72 OFFCURVE",
"-5 40 OFFCURVE",
"18 17 CURVE",
"298 17 LINE",
"321 40 OFFCURVE",
"329 72 OFFCURVE",
"329 106 CURVE",
"285 106 OFFCURVE",
"259 130 OFFCURVE",
"259 161 CURVE SMOOTH",
"259 175 OFFCURVE",
"264 190 OFFCURVE",
"276 206 CURVE SMOOTH",
"452 452 LINE",
"360 510 LINE",
"107 190 LINE"
);
}
);
width = 823;
}
);
leftKerningGroup = x;
rightKerningGroup = x;
unicode = 0078;
},
{
color = 9;
glyphname = y;
lastChange = "2018-06-05 02:45:14 +0000";
layers = (
{
anchors = (
{
name = btm;
position = "{420, 0}";
},
{
name = top;
position = "{420, 1500}";
}
);
layerId = "184835E3-72D9-430C-A639-2454AC4A0BE8";
paths = (
{
closed = 1;
nodes = (
"334 633 OFFCURVE",
"331 651 OFFCURVE",
"331 666 CURVE SMOOTH",
"331 707 OFFCURVE",
"351 736 OFFCURVE",
"402 736 CURVE",
"402 771 OFFCURVE",
"389 806 OFFCURVE",
"366 830 CURVE",
"3 830 LINE",
"-21 806 OFFCURVE",
"-30 771 OFFCURVE",
"-30 736 CURVE",
"34 736 OFFCURVE",
"40 704 OFFCURVE",
"64 645 CURVE SMOOTH",
"301 56 LINE",
"526 56 LINE",
"339 615 LINE {name = hr00;}"
);
},
{
closed = 1;
nodes = (
"794 713 OFFCURVE",
"819 736 OFFCURVE",
"870 736 CURVE",
"870 771 OFFCURVE",
"863 806 OFFCURVE",
"840 830 CURVE",
"543 830 LINE",
"520 806 OFFCURVE",
"513 771 OFFCURVE",
"513 736 CURVE",
"564 736 OFFCURVE",
"589 714 OFFCURVE",
"589 672 CURVE SMOOTH",
"589 662 OFFCURVE",
"587 648 OFFCURVE",
"584 635 CURVE",
"463 99 LINE",
"435 84 LINE",
"393 -65 OFFCURVE",
"318 -102 OFFCURVE",
"251 -102 CURVE SMOOTH",
"198 -102 OFFCURVE",
"157 -85 OFFCURVE",
"128 -53 CURVE",
"92 -70 OFFCURVE",
"65 -111 OFFCURVE",
"65 -160 CURVE SMOOTH",
"65 -235 OFFCURVE",
"129 -296 OFFCURVE",
"257 -296 CURVE SMOOTH",
"410 -296 OFFCURVE",
"510 -195 OFFCURVE",
"601 97 CURVE",
"777 657 LINE"
);
}
);
width = 830;
}
);
leftKerningGroup = y;
rightKerningGroup = y;
unicode = 0079;
},
{
color = 9;
glyphname = z;
lastChange = "2018-06-05 02:45:14 +0000";
layers = (
{
anchors = (
{
name = btm;
position = "{411, 0}";
},
{
name = top;
position = "{411, 1500}";
}
);
layerId = "184835E3-72D9-430C-A639-2454AC4A0BE8";
paths = (
{
closed = 1;
nodes = (
"105 0 LINE",
"251 46 LINE",
"371 202 LINE",
"765 768 LINE {name = hr02;}",
"714 830 LINE {name = hr03;}",
"521 785 LINE",
"410 646 LINE",
"0 58 LINE",
"45 0 LINE {name = hr01;}"
);
},
{
closed = 1;
nodes = (
"714 830 LINE",
"66 830 LINE",
"67 731 OFFCURVE",
"66 629 OFFCURVE",
"92 556 CURVE",
"215 556 LINE",
"215 678 OFFCURVE",
"255 728 OFFCURVE",
"351 728 CURVE SMOOTH",
"655 728 LINE"
);
},
{
closed = 1;
nodes = (
"105 0 LINE",
"712 0 LINE",
"749 73 OFFCURVE",
"752 168 OFFCURVE",
"752 247 CURVE SMOOTH",
"752 266 OFFCURVE",
"752 284 OFFCURVE",
"752 301 CURVE",
"636 301 LINE",
"605 181 OFFCURVE",
"570 103 OFFCURVE",
"413 103 CURVE SMOOTH",
"106 103 LINE"
);
}
);
width = 803;
}
);
leftKerningGroup = z;
rightKerningGroup = z;
unicode = 007A;
},
{
color = 9;
glyphname = f_f;
lastChange = "2018-06-05 02:48:23 +0000";
layers = (
{
layerId = "184835E3-72D9-430C-A639-2454AC4A0BE8";
paths = (
{
closed = 1;
nodes = (
"724 677 LINE",
"724 168 LINE SMOOTH",
"724 107 OFFCURVE",
"700 83 OFFCURVE",
"639 83 CURVE",
"639 50 OFFCURVE",
"652 24 OFFCURVE",
"675 0 CURVE",
"1096 0 LINE",
"1118 24 OFFCURVE",
"1132 50 OFFCURVE",
"1132 83 CURVE",
"1009 83 OFFCURVE",
"975 113 OFFCURVE",
"975 182 CURVE SMOOTH",
"975 677 LINE",
"1133 677 LINE",
"1157 713 OFFCURVE",
"1159 769 OFFCURVE",
"1159 815 CURVE",
"983 815 LINE SMOOTH",
"913 815 OFFCURVE",
"901 875 OFFCURVE",
"901 968 CURVE SMOOTH",
"901 1055 OFFCURVE",
"949 1110 OFFCURVE",
"991 1110 CURVE SMOOTH",
"1004 1110 OFFCURVE",
"1010 1108 OFFCURVE",
"1021 1100 CURVE",
"997 1084 OFFCURVE",
"988 1051 OFFCURVE",
"988 1023 CURVE SMOOTH",
"988 959 OFFCURVE",
"1054 917 OFFCURVE",
"1115 917 CURVE SMOOTH",
"1189 917 OFFCURVE",
"1241 980 OFFCURVE",
"1241 1063 CURVE SMOOTH",
"1241 1146 OFFCURVE",
"1164 1219 OFFCURVE",
"1023 1219 CURVE SMOOTH",
"841 1219 OFFCURVE",
"707 1090 OFFCURVE",
"707 895 CURVE SMOOTH",
"707 869 OFFCURVE",
"709 842 OFFCURVE",
"715 815 CURVE",
"429 815 LINE SMOOTH",
"359 815 OFFCURVE",
"347 875 OFFCURVE",
"347 968 CURVE SMOOTH",
"347 1055 OFFCURVE",
"395 1110 OFFCURVE",
"437 1110 CURVE SMOOTH",
"450 1110 OFFCURVE",
"456 1108 OFFCURVE",
"466 1100 CURVE",
"443 1084 OFFCURVE",
"434 1051 OFFCURVE",
"434 1023 CURVE SMOOTH",
"434 959 OFFCURVE",
"499 917 OFFCURVE",
"561 917 CURVE SMOOTH",
"636 917 OFFCURVE",
"687 980 OFFCURVE",
"687 1063 CURVE SMOOTH",
"687 1146 OFFCURVE",
"610 1219 OFFCURVE",
"469 1219 CURVE SMOOTH",
"287 1219 OFFCURVE",
"154 1090 OFFCURVE",
"154 895 CURVE SMOOTH",
"154 868 OFFCURVE",
"155 839 OFFCURVE",
"161 810 CURVE",
"139 794 OFFCURVE",
"118 782 OFFCURVE",
"75 772 CURVE",
"75 677 LINE",
"169 677 LINE",
"169 168 LINE SMOOTH",
"169 107 OFFCURVE",
"145 83 OFFCURVE",
"85 83 CURVE",
"85 50 OFFCURVE",
"97 24 OFFCURVE",
"121 0 CURVE",
"541 0 LINE",
"565 24 OFFCURVE",
"577 50 OFFCURVE",
"577 83 CURVE",
"454 83 OFFCURVE",
"421 113 OFFCURVE",
"421 182 CURVE SMOOTH",
"421 677 LINE {name = hr00;}"
);
}
);
width = 1278;
}
);
leftKerningGroup = f;
rightKerningGroup = f;
unicode = FB00;
},
{
glyphname = fi;
lastChange = "2018-06-03 05:48:24 +0000";
layers = (
{
components = (
{
name = i;
transform = "{0.69178, 0, 0, 0.69178, 588, 39}";
}
);
layerId = "184835E3-72D9-430C-A639-2454AC4A0BE8";
paths = (
{
closed = 1;
nodes = (
"566 715 LINE",
"590 751 OFFCURVE",
"592 807 OFFCURVE",
"592 853 CURVE",
"416 853 LINE SMOOTH",
"347 853 OFFCURVE",
"334 913 OFFCURVE",
"334 1006 CURVE SMOOTH",
"334 1093 OFFCURVE",
"376 1148 OFFCURVE",
"414 1148 CURVE SMOOTH {name = hr02;}",
"427 1148 OFFCURVE",
"432 1146 OFFCURVE",
"444 1138 CURVE",
"420 1122 OFFCURVE",
"411 1089 OFFCURVE",
"411 1061 CURVE SMOOTH",
"411 997 OFFCURVE",
"476 955 OFFCURVE",
"537 955 CURVE SMOOTH",
"612 955 OFFCURVE",
"663 1018 OFFCURVE",
"663 1101 CURVE SMOOTH",
"663 1184 OFFCURVE",
"587 1257 OFFCURVE",
"446 1257 CURVE SMOOTH",
"270 1257 OFFCURVE",
"141 1128 OFFCURVE",
"141 933 CURVE SMOOTH",
"141 892 OFFCURVE",
"147 848 OFFCURVE",
"159 802 CURVE",
"174 868 LINE",
"141 842 OFFCURVE",
"120 824 OFFCURVE",
"63 810 CURVE",
"63 715 LINE {name = hr03;}",
"156 715 LINE",
"156 206 LINE SMOOTH",
"156 145 OFFCURVE",
"133 121 OFFCURVE",
"72 121 CURVE",
"72 88 OFFCURVE",
"84 62 OFFCURVE",
"108 38 CURVE",
"528 38 LINE",
"552 62 OFFCURVE",
"564 88 OFFCURVE",
"564 121 CURVE",
"441 121 OFFCURVE",
"408 151 OFFCURVE",
"408 220 CURVE SMOOTH",
"408 715 LINE {name = hr01;}"
);
}
);
width = 1033;
}
);
leftKerningGroup = f;
rightKerningGroup = i;
unicode = FB01;
},
{
glyphname = fl;
lastChange = "2018-06-03 05:48:24 +0000";
layers = (
{
components = (
{
name = l;
transform = "{0.69178, 0, 0, 0.69178, 579, 39}";
}
);
layerId = "184835E3-72D9-430C-A639-2454AC4A0BE8";
paths = (
{
closed = 1;
nodes = (
"565 715 LINE",
"589 751 OFFCURVE",
"591 807 OFFCURVE",
"591 853 CURVE",
"414 853 LINE SMOOTH",
"345 853 OFFCURVE",
"333 913 OFFCURVE",
"333 1006 CURVE SMOOTH",
"333 1093 OFFCURVE",
"375 1148 OFFCURVE",
"413 1148 CURVE SMOOTH",
"426 1148 OFFCURVE",
"432 1146 OFFCURVE",
"442 1138 CURVE",
"419 1122 OFFCURVE",
"410 1089 OFFCURVE",
"410 1061 CURVE SMOOTH",
"410 997 OFFCURVE",
"475 955 OFFCURVE",
"537 955 CURVE SMOOTH",
"611 955 OFFCURVE",
"663 1018 OFFCURVE",
"663 1101 CURVE SMOOTH",
"663 1184 OFFCURVE",
"585 1257 OFFCURVE",
"444 1257 CURVE SMOOTH",
"270 1257 OFFCURVE",
"140 1128 OFFCURVE",
"140 933 CURVE SMOOTH",
"140 892 OFFCURVE",
"146 848 OFFCURVE",
"158 802 CURVE",
"173 868 LINE",
"139 842 OFFCURVE",
"120 824 OFFCURVE",
"61 810 CURVE",
"61 715 LINE",
"155 715 LINE",
"155 206 LINE SMOOTH",
"155 145 OFFCURVE",
"132 121 OFFCURVE",
"71 121 CURVE",
"71 88 OFFCURVE",
"84 62 OFFCURVE",
"107 38 CURVE",
"528 38 LINE",
"550 62 OFFCURVE",
"564 88 OFFCURVE",
"564 121 CURVE",
"440 121 OFFCURVE",
"407 151 OFFCURVE",
"407 220 CURVE SMOOTH",
"407 715 LINE"
);
}
);
width = 1011;
}
);
leftKerningGroup = f;
rightKerningGroup = l;
unicode = FB02;
},
{
glyphname = ordfeminine;
lastChange = "2018-06-03 05:48:24 +0000";
layers = (
{
layerId = "184835E3-72D9-430C-A639-2454AC4A0BE8";
paths = (
{
closed = 1;
nodes = (
"74 779 OFFCURVE",
"154 705 OFFCURVE",
"271 705 CURVE SMOOTH",
"337 705 OFFCURVE",
"383 728 OFFCURVE",
"416 759 CURVE",
"438 724 OFFCURVE",
"479 705 OFFCURVE",
"533 705 CURVE SMOOTH",
"583 705 OFFCURVE",
"638 720 OFFCURVE",
"661 749 CURVE",
"660 786 LINE",
"624 793 OFFCURVE",
"605 816 OFFCURVE",
"605 852 CURVE SMOOTH",
"605 1163 LINE SMOOTH",
"605 1283 OFFCURVE",
"527 1346 OFFCURVE",
"369 1346 CURVE SMOOTH",
"193 1346 OFFCURVE",
"114 1268 OFFCURVE",
"114 1193 CURVE SMOOTH",
"114 1139 OFFCURVE",
"155 1098 OFFCURVE",
"217 1098 CURVE SMOOTH",
"270 1098 OFFCURVE",
"311 1129 OFFCURVE",
"311 1176 CURVE SMOOTH",
"311 1203 OFFCURVE",
"297 1226 OFFCURVE",
"267 1239 CURVE",
"283 1252 OFFCURVE",
"306 1257 OFFCURVE",
"329 1257 CURVE SMOOTH",
"373 1257 OFFCURVE",
"401 1235 OFFCURVE",
"401 1176 CURVE SMOOTH",
"401 1024 LINE",
"372 1040 OFFCURVE",
"323 1049 OFFCURVE",
"279 1049 CURVE SMOOTH",
"152 1049 OFFCURVE",
"74 977 OFFCURVE",
"74 878 CURVE SMOOTH {name = hr00;}"
);
},
{
closed = 1;
nodes = (
"388 812 OFFCURVE",
"367 806 OFFCURVE",
"347 806 CURVE SMOOTH",
"307 806 OFFCURVE",
"278 832 OFFCURVE",
"278 878 CURVE SMOOTH",
"278 925 OFFCURVE",
"309 948 OFFCURVE",
"344 948 CURVE SMOOTH",
"366 948 OFFCURVE",
"387 938 OFFCURVE",
"401 929 CURVE",
"401 824 LINE"
);
}
);
width = 727;
}
);
leftKerningGroup = ordfeminine;
rightKerningGroup = ordfeminine;
unicode = 00AA;
},
{
glyphname = ordmasculine;
lastChange = "2018-06-03 05:48:24 +0000";
layers = (
{
layerId = "184835E3-72D9-430C-A639-2454AC4A0BE8";
paths = (
{
closed = 1;
nodes = (
"287 1219 OFFCURVE",
"315 1257 OFFCURVE",
"358 1257 CURVE SMOOTH",
"408 1257 OFFCURVE",
"439 1216 OFFCURVE",
"439 1005 CURVE SMOOTH",
"439 830 OFFCURVE",
"411 793 OFFCURVE",
"367 793 CURVE SMOOTH",
"318 793 OFFCURVE",
"287 836 OFFCURVE",
"287 1045 CURVE SMOOTH {name = hr00;}"
);
},
{
closed = 1;
nodes = (
"532 704 OFFCURVE",
"655 818 OFFCURVE",
"655 1033 CURVE SMOOTH",
"655 1237 OFFCURVE",
"538 1346 OFFCURVE",
"368 1346 CURVE SMOOTH",
"193 1346 OFFCURVE",
"70 1231 OFFCURVE",
"70 1015 CURVE SMOOTH",
"70 812 OFFCURVE",
"188 704 OFFCURVE",
"357 704 CURVE SMOOTH"
);
}
);
width = 725;
}
);
leftKerningGroup = ordmasculine;
rightKerningGroup = ordmasculine;
unicode = 00BA;
},
{
color = 9;
glyphname = Delta;
lastChange = "2018-06-05 02:48:28 +0000";
layers = (
{
layerId = "184835E3-72D9-430C-A639-2454AC4A0BE8";
paths = (
{
closed = 1;
nodes = (
"745 1073 LINE",
"309 1073 LINE",
"287 1044 OFFCURVE",
"274 1004 OFFCURVE",
"274 962 CURVE",
"341 962 OFFCURVE",
"398 954 OFFCURVE",
"445 937 CURVE",
"188 198 LINE SMOOTH",
"165 131 OFFCURVE",
"113 98 OFFCURVE",
"58 98 CURVE",
"58 62 OFFCURVE",
"71 25 OFFCURVE",
"93 0 CURVE",
"1142 0 LINE",
"1164 25 OFFCURVE",
"1177 62 OFFCURVE",
"1177 98 CURVE",
"1124 98 OFFCURVE",
"1069 131 OFFCURVE",
"1046 198 CURVE SMOOTH"
);
},
{
closed = 1;
nodes = (
"471 121 LINE",
"410 121 OFFCURVE",
"374 122 OFFCURVE",
"374 177 CURVE SMOOTH",
"374 196 OFFCURVE",
"379 218 OFFCURVE",
"386 244 CURVE SMOOTH",
"560 849 LINE",
"574 829 OFFCURVE",
"585 805 OFFCURVE",
"593 778 CURVE SMOOTH",
"759 244 LINE SMOOTH",
"768 215 OFFCURVE",
"772 191 OFFCURVE",
"772 172 CURVE SMOOTH",
"772 120 OFFCURVE",
"743 121 OFFCURVE",
"689 121 CURVE",
"689 120 LINE",
"471 120 LINE"
);
}
);
width = 1236;
}
);
leftKerningGroup = A;
rightKerningGroup = A;
unicode = 0394;
},
{
color = 9;
glyphname = Omega;
lastChange = "2018-06-05 02:48:28 +0000";
layers = (
{
layerId = "184835E3-72D9-430C-A639-2454AC4A0BE8";
paths = (
{
closed = 1;
nodes = (
"1123 312 LINE",
"1123 188 OFFCURVE",
"1072 117 OFFCURVE",
"870 132 CURVE",
"870 168 OFFCURVE",
"1150 338 OFFCURVE",
"1150 614 CURVE SMOOTH",
"1150 911 OFFCURVE",
"973 1082 OFFCURVE",
"659 1082 CURVE SMOOTH",
"345 1082 OFFCURVE",
"169 911 OFFCURVE",
"169 614 CURVE SMOOTH",
"169 334 OFFCURVE",
"448 172 OFFCURVE",
"448 132 CURVE",
"196 132 OFFCURVE",
"195 188 OFFCURVE",
"195 312 CURVE",
"121 312 LINE",
"87 285 OFFCURVE",
"77 232 OFFCURVE",
"77 168 CURVE SMOOTH",
"77 82 OFFCURVE",
"111 0 OFFCURVE",
"240 0 CURVE SMOOTH {name = hr01;}",
"557 0 LINE",
"600 113 LINE",
"564 209 OFFCURVE",
"457 289 OFFCURVE",
"457 608 CURVE SMOOTH",
"457 860 OFFCURVE",
"519 968 OFFCURVE",
"662 968 CURVE SMOOTH",
"758 968 OFFCURVE",
"861 920 OFFCURVE",
"861 608 CURVE SMOOTH",
"861 289 OFFCURVE",
"754 209 OFFCURVE",
"718 113 CURVE",
"761 0 LINE",
"1078 0 LINE SMOOTH {name = hr01;}",
"1207 0 OFFCURVE",
"1241 82 OFFCURVE",
"1241 168 CURVE SMOOTH",
"1241 232 OFFCURVE",
"1231 285 OFFCURVE",
"1197 312 CURVE"
);
}
);
width = 1319;
}
);
leftKerningGroup = Omega;
rightKerningGroup = Omega;
unicode = 03A9;
},
{
color = 9;
glyphname = mu;
lastChange = "2018-06-05 02:48:28 +0000";
layers = (
{
layerId = "184835E3-72D9-430C-A639-2454AC4A0BE8";
paths = (
{
closed = 1;
nodes = (
"537 -65 OFFCURVE",
"625 -120 OFFCURVE",
"718 -120 CURVE SMOOTH",
"773 -120 OFFCURVE",
"842 -101 OFFCURVE",
"902 -17 CURVE",
"861 33 LINE {name = hr02;}",
"847 26 OFFCURVE",
"835 23 OFFCURVE",
"825 23 CURVE SMOOTH",
"802 23 OFFCURVE",
"787 41 OFFCURVE",
"787 77 CURVE SMOOTH",
"787 672 LINE SMOOTH",
"787 719 OFFCURVE",
"724 743 OFFCURVE",
"661 743 CURVE SMOOTH",
"599 743 OFFCURVE",
"537 720 OFFCURVE",
"537 674 CURVE SMOOTH",
"537 35 LINE SMOOTH {name = hr01;}"
);
},
{
closed = 1;
nodes = (
"225 -72 OFFCURVE",
"275 -120 OFFCURVE",
"354 -120 CURVE SMOOTH",
"424 -120 OFFCURVE",
"501 -82 OFFCURVE",
"555 1 CURVE",
"551 113 LINE",
"524 65 OFFCURVE",
"477 25 OFFCURVE",
"423 25 CURVE SMOOTH",
"375 25 OFFCURVE",
"336 59 OFFCURVE",
"336 120 CURVE SMOOTH",
"336 672 LINE SMOOTH",
"336 719 OFFCURVE",
"273 743 OFFCURVE",
"211 743 CURVE SMOOTH",
"149 743 OFFCURVE",
"87 720 OFFCURVE",
"87 674 CURVE SMOOTH",
"87 137 LINE",
"82 -396 LINE",
"167 -396 LINE SMOOTH",
"229 -396 OFFCURVE",
"266 -360 OFFCURVE",
"266 -304 CURVE SMOOTH",
"266 -298 OFFCURVE",
"265 -293 OFFCURVE",
"265 -286 CURVE SMOOTH",
"222 65 LINE",
"193 -32 LINE"
);
}
);
width = 959;
}
);
leftKerningGroup = uni03BC;
rightKerningGroup = uni03BC;
unicode = 03BC;
},
{
color = 9;
glyphname = pi;
lastChange = "2018-06-05 02:48:28 +0000";
layers = (
{
layerId = "184835E3-72D9-430C-A639-2454AC4A0BE8";
paths = (
{
closed = 1;
nodes = (
"594 719 LINE",
"624 44 LINE SMOOTH",
"627 -17 OFFCURVE",
"674 -22 OFFCURVE",
"762 -22 CURVE SMOOTH",
"828 -22 OFFCURVE",
"918 -4 OFFCURVE",
"951 29 CURVE",
"949 72 LINE",
"901 81 OFFCURVE",
"882 112 OFFCURVE",
"876 161 CURVE SMOOTH",
"811 719 LINE {name = hr00;}"
);
},
{
closed = 1;
nodes = (
"414 -1 OFFCURVE",
"421 92 OFFCURVE",
"423 166 CURVE SMOOTH",
"438 728 LINE",
"208 728 LINE",
"171 167 LINE SMOOTH",
"167 106 OFFCURVE",
"147 82 OFFCURVE",
"86 82 CURVE",
"86 48 OFFCURVE",
"99 23 OFFCURVE",
"122 -1 CURVE",
"358 -1 LINE"
);
},
{
closed = 1;
nodes = (
"84 618 LINE",
"970 618 LINE",
"970 830 LINE",
"84 830 LINE"
);
}
);
width = 1036;
}
);
leftKerningGroup = pi;
rightKerningGroup = pi;
unicode = 03C0;
},
{
color = 9;
glyphname = zero;
lastChange = "2018-06-05 02:48:40 +0000";
layers = (
{
layerId = "184835E3-72D9-430C-A639-2454AC4A0BE8";
paths = (
{
closed = 1;
nodes = (
"780 -11 OFFCURVE",
"957 130 OFFCURVE",
"957 526 CURVE SMOOTH",
"957 919 OFFCURVE",
"785 1083 OFFCURVE",
"518 1083 CURVE SMOOTH",
"253 1083 OFFCURVE",
"76 923 OFFCURVE",
"76 527 CURVE SMOOTH",
"76 135 OFFCURVE",
"248 -11 OFFCURVE",
"515 -11 CURVE SMOOTH"
);
},
{
closed = 1;
nodes = (
"426 96 OFFCURVE",
"355 159 OFFCURVE",
"355 524 CURVE SMOOTH",
"355 905 OFFCURVE",
"428 975 OFFCURVE",
"518 975 CURVE SMOOTH",
"607 975 OFFCURVE",
"678 905 OFFCURVE",
"678 529 CURVE SMOOTH",
"678 159 OFFCURVE",
"605 96 OFFCURVE",
"515 96 CURVE SMOOTH {name = hr00;}"
);
}
);
width = 1034;
}
);
leftKerningGroup = zero;
rightKerningGroup = zero;
unicode = 0030;
userData = {
com.typemytype.robofont.guides = (
{
angle = 0;
isGlobal = 0;
magnetic = 5;
x = 0;
y = -27;
}
);
};
},
{
color = 9;
glyphname = one;
lastChange = "2018-06-05 02:48:40 +0000";
layers = (
{
layerId = "184835E3-72D9-430C-A639-2454AC4A0BE8";
paths = (
{
closed = 1;
nodes = (
"507 1044 OFFCURVE",
"484 1093 OFFCURVE",
"417 1093 CURVE SMOOTH",
"389 1093 OFFCURVE",
"355 1085 OFFCURVE",
"286 1044 CURVE SMOOTH",
"46 904 LINE",
"87 828 LINE",
"115 840 OFFCURVE",
"155 848 OFFCURVE",
"185 848 CURVE SMOOTH",
"231 848 OFFCURVE",
"253 830 OFFCURVE",
"253 798 CURVE SMOOTH",
"253 239 LINE SMOOTH",
"253 130 OFFCURVE",
"185 85 OFFCURVE",
"85 85 CURVE",
"85 54 OFFCURVE",
"98 21 OFFCURVE",
"121 0 CURVE",
"632 0 LINE",
"655 21 OFFCURVE",
"668 54 OFFCURVE",
"668 85 CURVE",
"561 85 OFFCURVE",
"507 129 OFFCURVE",
"507 238 CURVE SMOOTH",
"507 1009 LINE SMOOTH {name = hr00;}"
);
}
);
width = 712;
}
);
leftKerningGroup = one;
rightKerningGroup = one;
unicode = 0031;
},
{
color = 9;
glyphname = two;
lastChange = "2018-06-05 02:48:40 +0000";
layers = (
{
layerId = "184835E3-72D9-430C-A639-2454AC4A0BE8";
paths = (
{
closed = 1;
nodes = (
"204 73 LINE",
"250 383 OFFCURVE",
"829 422 OFFCURVE",
"829 808 CURVE SMOOTH",
"829 1017 OFFCURVE",
"660 1117 OFFCURVE",
"450 1117 CURVE SMOOTH",
"215 1117 OFFCURVE",
"67 992 OFFCURVE",
"67 852 CURVE SMOOTH",
"67 758 OFFCURVE",
"134 704 OFFCURVE",
"208 704 CURVE SMOOTH",
"278 704 OFFCURVE",
"346 751 OFFCURVE",
"346 823 CURVE SMOOTH",
"346 871 OFFCURVE",
"313 922 OFFCURVE",
"262 937 CURVE",
"295 983 OFFCURVE",
"342 1009 OFFCURVE",
"402 1009 CURVE SMOOTH",
"487 1009 OFFCURVE",
"555 958 OFFCURVE",
"555 834 CURVE SMOOTH",
"555 529 OFFCURVE",
"136 405 OFFCURVE",
"68 43 CURVE",
"117 5 LINE {name = hr01;}"
);
},
{
closed = 1;
nodes = (
"174 28 OFFCURVE",
"241 38 OFFCURVE",
"308 38 CURVE SMOOTH",
"430 38 OFFCURVE",
"497 6 OFFCURVE",
"604 6 CURVE SMOOTH {name = hr02;}",
"809 6 OFFCURVE",
"870 124 OFFCURVE",
"870 220 CURVE SMOOTH",
"870 280 OFFCURVE",
"846 338 OFFCURVE",
"814 366 CURVE",
"778 366 LINE",
"755 283 OFFCURVE",
"670 235 OFFCURVE",
"571 235 CURVE SMOOTH {name = hr03;}",
"466 235 LINE SMOOTH",
"378 235 OFFCURVE",
"300 216 OFFCURVE",
"217 173 CURVE",
"118 5 LINE"
);
}
);
width = 931;
}
);
leftKerningGroup = two;
rightKerningGroup = two;
unicode = 0032;
},
{
color = 9;
glyphname = three;
lastChange = "2018-06-05 02:48:40 +0000";
layers = (
{
layerId = "184835E3-72D9-430C-A639-2454AC4A0BE8";
paths = (
{
closed = 1;
nodes = (
"824 1025 OFFCURVE",
"670 1116 OFFCURVE",
"458 1116 CURVE SMOOTH",
"259 1116 OFFCURVE",
"97 1035 OFFCURVE",
"97 895 CURVE SMOOTH",
"97 823 OFFCURVE",
"140 771 OFFCURVE",
"217 771 CURVE SMOOTH",
"293 771 OFFCURVE",
"331 822 OFFCURVE",
"331 867 CURVE SMOOTH",
"331 907 OFFCURVE",
"303 941 OFFCURVE",
"276 952 CURVE",
"307 990 OFFCURVE",
"353 1008 OFFCURVE",
"403 1008 CURVE SMOOTH",
"499 1008 OFFCURVE",
"551 946 OFFCURVE",
"551 844 CURVE SMOOTH",
"551 750 OFFCURVE",
"506 639 OFFCURVE",
"312 588 CURVE",
"516 571 LINE",
"721 626 OFFCURVE",
"824 713 OFFCURVE",
"824 870 CURVE SMOOTH {name = hr00;}"
);
},
{
closed = 1;
nodes = (
"901 483 OFFCURVE",
"765 597 OFFCURVE",
"571 609 CURVE",
"312 588 LINE",
"340 510 LINE",
"404 510 LINE SMOOTH",
"538 510 OFFCURVE",
"620 420 OFFCURVE",
"620 314 CURVE SMOOTH",
"620 207 OFFCURVE",
"537 138 OFFCURVE",
"418 138 CURVE SMOOTH",
"357 138 OFFCURVE",
"296 156 OFFCURVE",
"272 178 CURVE",
"302 204 OFFCURVE",
"313 234 OFFCURVE",
"313 261 CURVE SMOOTH",
"313 316 OFFCURVE",
"268 360 OFFCURVE",
"199 360 CURVE SMOOTH",
"130 360 OFFCURVE",
"76 318 OFFCURVE",
"76 233 CURVE SMOOTH",
"76 89 OFFCURVE",
"232 1 OFFCURVE",
"446 1 CURVE SMOOTH",
"710 1 OFFCURVE",
"901 134 OFFCURVE",
"901 323 CURVE SMOOTH"
);
}
);
width = 967;
}
);
leftKerningGroup = three;
rightKerningGroup = three;
unicode = 0033;
},
{
color = 9;
glyphname = four;
lastChange = "2018-06-05 02:48:40 +0000";
layers = (
{
layerId = "184835E3-72D9-430C-A639-2454AC4A0BE8";
paths = (
{
closed = 1;
nodes = (
"931 463 OFFCURVE",
"874 421 OFFCURVE",
"792 421 CURVE SMOOTH",
"283 421 LINE",
"627 986 LINE",
"714 1093 LINE",
"563 1093 LINE",
"67 369 LINE",
"107 295 LINE",
"753 295 LINE SMOOTH",
"985 295 OFFCURVE",
"1056 356 OFFCURVE",
"1056 442 CURVE SMOOTH",
"1056 486 OFFCURVE",
"1028 524 OFFCURVE",
"994 536 CURVE",
"958 536 LINE {name = hr00;}"
);
},
{
closed = 1;
nodes = (
"538 110 OFFCURVE",
"468 90 OFFCURVE",
"370 90 CURVE",
"370 60 OFFCURVE",
"382 21 OFFCURVE",
"405 0 CURVE",
"916 0 LINE",
"939 21 OFFCURVE",
"952 60 OFFCURVE",
"952 90 CURVE",
"846 90 OFFCURVE",
"792 110 OFFCURVE",
"792 174 CURVE SMOOTH",
"792 1093 LINE",
"714 1093 LINE",
"538 974 LINE",
"538 175 LINE SMOOTH"
);
}
);
width = 1116;
}
);
leftKerningGroup = four;
rightKerningGroup = four;
unicode = 0034;
},
{
color = 9;
glyphname = five;
lastChange = "2018-06-05 02:48:40 +0000";
layers = (
{
layerId = "184835E3-72D9-430C-A639-2454AC4A0BE8";
paths = (
{
closed = 1;
nodes = (
"299 145 OFFCURVE",
"325 179 OFFCURVE",
"325 225 CURVE SMOOTH",
"325 290 OFFCURVE",
"272 339 OFFCURVE",
"202 339 CURVE SMOOTH",
"130 339 OFFCURVE",
"70 287 OFFCURVE",
"70 202 CURVE SMOOTH",
"70 72 OFFCURVE",
"212 -20 OFFCURVE",
"429 -20 CURVE SMOOTH",
"719 -20 OFFCURVE",
"874 144 OFFCURVE",
"874 333 CURVE SMOOTH",
"874 521 OFFCURVE",
"722 649 OFFCURVE",
"497 649 CURVE SMOOTH",
"390 649 OFFCURVE",
"314 620 OFFCURVE",
"261 590 CURVE",
"296 537 LINE",
"344 984 LINE",
"164 891 LINE",
"165 889 OFFCURVE",
"168 888 OFFCURVE",
"172 888 CURVE SMOOTH",
"203 888 OFFCURVE",
"298 929 OFFCURVE",
"316 929 CURVE SMOOTH",
"443 929 OFFCURVE",
"474 834 OFFCURVE",
"620 834 CURVE SMOOTH",
"748 834 OFFCURVE",
"824 908 OFFCURVE",
"824 1002 CURVE SMOOTH",
"824 1049 OFFCURVE",
"806 1092 OFFCURVE",
"779 1112 CURVE",
"743 1112 LINE",
"694 1080 OFFCURVE",
"621 1065 OFFCURVE",
"507 1065 CURVE SMOOTH",
"155 1065 LINE",
"134 548 LINE",
"194 479 LINE",
"240 500 OFFCURVE",
"311 513 OFFCURVE",
"368 513 CURVE SMOOTH",
"496 513 OFFCURVE",
"593 444 OFFCURVE",
"593 313 CURVE SMOOTH",
"593 195 OFFCURVE",
"514 109 OFFCURVE",
"374 109 CURVE SMOOTH",
"312 109 OFFCURVE",
"260 126 OFFCURVE",
"245 140 CURVE",
"226 114 LINE {name = hr00;}"
);
}
);
width = 938;
}
);
leftKerningGroup = five;
rightKerningGroup = five;
unicode = 0035;
},
{
color = 9;
glyphname = six;
lastChange = "2018-06-05 02:48:40 +0000";
layers = (
{
layerId = "184835E3-72D9-430C-A639-2454AC4A0BE8";
paths = (
{
closed = 1;
nodes = (
"481 668 OFFCURVE",
"401 639 OFFCURVE",
"346 588 CURVE",
"345 593 OFFCURVE",
"345 599 OFFCURVE",
"345 604 CURVE SMOOTH",
"345 886 OFFCURVE",
"442 987 OFFCURVE",
"555 987 CURVE SMOOTH {name = hr00;}",
"603 987 OFFCURVE",
"647 969 OFFCURVE",
"673 939 CURVE",
"637 920 OFFCURVE",
"616 882 OFFCURVE",
"616 843 CURVE SMOOTH",
"616 778 OFFCURVE",
"670 729 OFFCURVE",
"743 729 CURVE SMOOTH",
"824 729 OFFCURVE",
"871 789 OFFCURVE",
"871 867 CURVE SMOOTH",
"871 1005 OFFCURVE",
"727 1095 OFFCURVE",
"547 1095 CURVE SMOOTH",
"288 1095 OFFCURVE",
"73 912 OFFCURVE",
"73 519 CURVE SMOOTH",
"73 153 OFFCURVE",
"250 -20 OFFCURVE",
"504 -20 CURVE SMOOTH",
"753 -20 OFFCURVE",
"910 147 OFFCURVE",
"910 351 CURVE SMOOTH",
"910 546 OFFCURVE",
"765 668 OFFCURVE",
"575 668 CURVE SMOOTH"
);
},
{
closed = 1;
nodes = (
"424 96 OFFCURVE",
"343 173 OFFCURVE",
"343 398 CURVE SMOOTH",
"343 418 OFFCURVE",
"343 440 OFFCURVE",
"345 462 CURVE",
"373 515 OFFCURVE",
"428 542 OFFCURVE",
"495 542 CURVE SMOOTH",
"584 542 OFFCURVE",
"650 491 OFFCURVE",
"650 327 CURVE SMOOTH",
"650 165 OFFCURVE",
"586 96 OFFCURVE",
"508 96 CURVE SMOOTH"
);
}
);
width = 981;
}
);
leftKerningGroup = six;
rightKerningGroup = six;
unicode = 0036;
},
{
color = 9;
glyphname = seven;
lastChange = "2018-06-05 02:48:40 +0000";
layers = (
{
layerId = "184835E3-72D9-430C-A639-2454AC4A0BE8";
paths = (
{
closed = 1;
nodes = (
"807 1062 OFFCURVE",
"731 1046 OFFCURVE",
"660 1046 CURVE SMOOTH",
"525 1046 OFFCURVE",
"430 1103 OFFCURVE",
"287 1103 CURVE SMOOTH {name = hr02;}",
"121 1103 OFFCURVE",
"57 1026 OFFCURVE",
"57 924 CURVE SMOOTH",
"57 845 OFFCURVE",
"95 791 OFFCURVE",
"136 761 CURVE",
"179 761 LINE",
"218 828 OFFCURVE",
"287 868 OFFCURVE",
"394 868 CURVE SMOOTH",
"458 868 LINE SMOOTH",
"602 868 OFFCURVE",
"707 894 OFFCURVE",
"778 935 CURVE",
"863 1103 LINE {name = hr01;}"
);
},
{
closed = 1;
nodes = (
"335 -14 OFFCURVE",
"397 -18 OFFCURVE",
"439 -18 CURVE SMOOTH",
"597 -18 OFFCURVE",
"604 50 OFFCURVE",
"608 102 CURVE SMOOTH",
"632 374 OFFCURVE",
"608 635 OFFCURVE",
"919 1028 CURVE",
"863 1103 LINE",
"821 1040 LINE",
"476 653 OFFCURVE",
"344 353 OFFCURVE",
"301 11 CURVE"
);
}
);
width = 971;
}
);
leftKerningGroup = seven;
rightKerningGroup = seven;
unicode = 0037;
userData = {
com.typemytype.robofont.guides = (
{
angle = 0;
isGlobal = 0;
magnetic = 5;
x = 0;
y = -32;
}
);
};
},
{
color = 9;
glyphname = eight;
lastChange = "2018-06-05 02:48:40 +0000";
layers = (
{
layerId = "184835E3-72D9-430C-A639-2454AC4A0BE8";
paths = (
{
closed = 1;
nodes = (
"752 694 OFFCURVE",
"818 777 OFFCURVE",
"818 875 CURVE SMOOTH",
"818 987 OFFCURVE",
"731 1116 OFFCURVE",
"490 1116 CURVE SMOOTH",
"248 1116 OFFCURVE",
"116 986 OFFCURVE",
"116 825 CURVE SMOOTH",
"116 710 OFFCURVE",
"185 629 OFFCURVE",
"278 561 CURVE",
"160 510 OFFCURVE",
"80 408 OFFCURVE",
"80 289 CURVE SMOOTH",
"80 144 OFFCURVE",
"199 1 OFFCURVE",
"464 1 CURVE SMOOTH",
"727 1 OFFCURVE",
"887 142 OFFCURVE",
"887 324 CURVE SMOOTH",
"887 448 OFFCURVE",
"812 551 OFFCURVE",
"655 640 CURVE"
);
},
{
closed = 1;
nodes = (
"600 1008 OFFCURVE",
"645 943 OFFCURVE",
"645 867 CURVE SMOOTH",
"645 800 OFFCURVE",
"609 741 OFFCURVE",
"542 694 CURVE",
"398 762 OFFCURVE",
"360 822 OFFCURVE",
"360 884 CURVE SMOOTH",
"360 957 OFFCURVE",
"415 1008 OFFCURVE",
"502 1008 CURVE SMOOTH"
);
},
{
closed = 1;
nodes = (
"346 115 OFFCURVE",
"274 204 OFFCURVE",
"274 311 CURVE SMOOTH",
"274 389 OFFCURVE",
"312 456 OFFCURVE",
"383 495 CURVE",
"569 424 OFFCURVE",
"626 354 OFFCURVE",
"626 270 CURVE SMOOTH",
"626 183 OFFCURVE",
"566 115 OFFCURVE",
"463 115 CURVE SMOOTH"
);
}
);
width = 954;
}
);
leftKerningGroup = eight;
rightKerningGroup = eight;
unicode = 0038;
},
{
color = 9;
glyphname = nine;
lastChange = "2018-06-05 02:48:40 +0000";
layers = (
{
layerId = "184835E3-72D9-430C-A639-2454AC4A0BE8";
paths = (
{
closed = 1;
nodes = (
"365 119 OFFCURVE",
"328 135 OFFCURVE",
"297 174 CURVE",
"347 192 OFFCURVE",
"365 228 OFFCURVE",
"365 269 CURVE SMOOTH",
"365 341 OFFCURVE",
"307 376 OFFCURVE",
"244 376 CURVE SMOOTH",
"163 376 OFFCURVE",
"111 319 OFFCURVE",
"111 237 CURVE SMOOTH",
"111 98 OFFCURVE",
"261 1 OFFCURVE",
"444 1 CURVE SMOOTH",
"693 1 OFFCURVE",
"898 186 OFFCURVE",
"898 573 CURVE SMOOTH",
"898 581 OFFCURVE",
"898 590 OFFCURVE",
"898 598 CURVE SMOOTH",
"890 956 OFFCURVE",
"719 1116 OFFCURVE",
"460 1116 CURVE SMOOTH",
"202 1116 OFFCURVE",
"65 951 OFFCURVE",
"65 751 CURVE SMOOTH",
"65 549 OFFCURVE",
"207 430 OFFCURVE",
"402 430 CURVE SMOOTH",
"575 430 OFFCURVE",
"702 523 OFFCURVE",
"712 655 CURVE",
"646 681 LINE",
"646 600 OFFCURVE",
"575 556 OFFCURVE",
"493 556 CURVE SMOOTH",
"393 556 OFFCURVE",
"317 621 OFFCURVE",
"317 780 CURVE SMOOTH",
"317 952 OFFCURVE",
"405 1002 OFFCURVE",
"475 1002 CURVE SMOOTH",
"549 1002 OFFCURVE",
"627 945 OFFCURVE",
"627 671 CURVE SMOOTH",
"627 634 OFFCURVE",
"626 594 OFFCURVE",
"623 548 CURVE",
"625 486 LINE",
"625 477 OFFCURVE",
"625 469 OFFCURVE",
"625 462 CURVE SMOOTH",
"625 209 OFFCURVE",
"540 119 OFFCURVE",
"417 119 CURVE SMOOTH {name = hr00;}"
);
}
);
width = 969;
}
);
leftKerningGroup = nine;
rightKerningGroup = nine;
unicode = 0039;
},
{
color = 9;
glyphname = zero.osf;
lastChange = "2018-06-05 02:48:52 +0000";
layers = (
{
layerId = "184835E3-72D9-430C-A639-2454AC4A0BE8";
paths = (
{
closed = 1;
nodes = (
"780 -11 OFFCURVE",
"957 114 OFFCURVE",
"957 464 CURVE SMOOTH",
"957 811 OFFCURVE",
"785 955 OFFCURVE",
"518 955 CURVE SMOOTH",
"253 955 OFFCURVE",
"76 814 OFFCURVE",
"76 465 CURVE SMOOTH",
"76 117 OFFCURVE",
"248 -11 OFFCURVE",
"515 -11 CURVE SMOOTH"
);
},
{
closed = 1;
nodes = (
"426 84 OFFCURVE",
"355 140 OFFCURVE",
"355 462 CURVE SMOOTH",
"355 798 OFFCURVE",
"428 861 OFFCURVE",
"518 861 CURVE SMOOTH",
"607 861 OFFCURVE",
"678 798 OFFCURVE",
"678 466 CURVE SMOOTH",
"678 140 OFFCURVE",
"605 84 OFFCURVE",
"515 84 CURVE SMOOTH {name = hr00;}"
);
}
);
width = 1034;
}
);
leftKerningGroup = zero.osf;
rightKerningGroup = zero.osf;
},
{
color = 9;
glyphname = one.osf;
lastChange = "2018-06-05 02:48:52 +0000";
layers = (
{
layerId = "184835E3-72D9-430C-A639-2454AC4A0BE8";
paths = (
{
closed = 1;
nodes = (
"507 915 OFFCURVE",
"484 957 OFFCURVE",
"417 957 CURVE SMOOTH",
"389 957 OFFCURVE",
"355 951 OFFCURVE",
"286 915 CURVE SMOOTH",
"46 791 LINE",
"87 723 LINE",
"115 735 OFFCURVE",
"155 741 OFFCURVE",
"185 741 CURVE SMOOTH",
"231 741 OFFCURVE",
"253 725 OFFCURVE",
"253 697 CURVE SMOOTH",
"253 203 LINE SMOOTH",
"253 107 OFFCURVE",
"185 67 OFFCURVE",
"85 67 CURVE",
"85 40 OFFCURVE",
"98 11 OFFCURVE",
"121 -8 CURVE",
"632 -8 LINE",
"655 11 OFFCURVE",
"668 40 OFFCURVE",
"668 67 CURVE",
"561 67 OFFCURVE",
"507 106 OFFCURVE",
"507 202 CURVE SMOOTH",
"507 883 LINE SMOOTH {name = hr00;}"
);
}
);
width = 712;
}
);
leftKerningGroup = one.osf;
rightKerningGroup = one.osf;
},
{
color = 9;
glyphname = two.osf;
lastChange = "2018-06-05 02:48:52 +0000";
layers = (
{
layerId = "184835E3-72D9-430C-A639-2454AC4A0BE8";
paths = (
{
closed = 1;
nodes = (
"204 64 LINE",
"250 332 OFFCURVE",
"829 335 OFFCURVE",
"829 670 CURVE SMOOTH",
"829 850 OFFCURVE",
"660 959 OFFCURVE",
"450 959 CURVE SMOOTH",
"183 959 OFFCURVE",
"67 829 OFFCURVE",
"67 708 CURVE SMOOTH",
"67 626 OFFCURVE",
"134 565 OFFCURVE",
"208 565 CURVE SMOOTH",
"278 565 OFFCURVE",
"346 606 OFFCURVE",
"346 667 CURVE SMOOTH",
"346 709 OFFCURVE",
"313 768 OFFCURVE",
"262 781 CURVE",
"295 821 OFFCURVE",
"324 866 OFFCURVE",
"402 866 CURVE SMOOTH",
"487 866 OFFCURVE",
"555 799 OFFCURVE",
"555 692 CURVE SMOOTH",
"555 427 OFFCURVE",
"136 352 OFFCURVE",
"68 37 CURVE",
"117 5 LINE {name = hr01;}"
);
},
{
closed = 1;
nodes = (
"174 25 OFFCURVE",
"241 34 OFFCURVE",
"308 34 CURVE SMOOTH",
"430 34 OFFCURVE",
"497 6 OFFCURVE",
"604 6 CURVE SMOOTH {name = hr02;}",
"809 6 OFFCURVE",
"870 109 OFFCURVE",
"870 192 CURVE SMOOTH",
"870 244 OFFCURVE",
"846 293 OFFCURVE",
"814 318 CURVE",
"778 318 LINE",
"755 245 OFFCURVE",
"670 205 OFFCURVE",
"571 205 CURVE SMOOTH {name = hr03;}",
"466 205 LINE SMOOTH",
"378 205 OFFCURVE",
"300 187 OFFCURVE",
"217 151 CURVE",
"118 5 LINE"
);
}
);
width = 931;
}
);
leftKerningGroup = two.osf;
rightKerningGroup = two.osf;
},
{
color = 9;
glyphname = three.osf;
lastChange = "2018-06-05 02:48:52 +0000";
layers = (
{
layerId = "184835E3-72D9-430C-A639-2454AC4A0BE8";
paths = (
{
closed = 1;
nodes = (
"824 810 OFFCURVE",
"670 901 OFFCURVE",
"458 901 CURVE SMOOTH",
"259 901 OFFCURVE",
"97 820 OFFCURVE",
"97 680 CURVE SMOOTH",
"97 608 OFFCURVE",
"140 556 OFFCURVE",
"217 556 CURVE SMOOTH",
"293 556 OFFCURVE",
"331 607 OFFCURVE",
"331 652 CURVE SMOOTH",
"331 692 OFFCURVE",
"303 726 OFFCURVE",
"276 737 CURVE",
"307 775 OFFCURVE",
"353 793 OFFCURVE",
"403 793 CURVE SMOOTH",
"499 793 OFFCURVE",
"551 731 OFFCURVE",
"551 629 CURVE SMOOTH",
"551 535 OFFCURVE",
"506 416 OFFCURVE",
"312 365 CURVE",
"516 358 LINE",
"721 413 OFFCURVE",
"824 498 OFFCURVE",
"824 655 CURVE SMOOTH {name = hr00;}"
);
},
{
closed = 1;
nodes = (
"901 253 OFFCURVE",
"765 375 OFFCURVE",
"571 387 CURVE",
"312 365 LINE",
"340 287 LINE",
"404 287 LINE SMOOTH",
"538 287 OFFCURVE",
"620 190 OFFCURVE",
"620 84 CURVE SMOOTH",
"620 -24 OFFCURVE",
"537 -93 OFFCURVE",
"418 -93 CURVE SMOOTH",
"357 -93 OFFCURVE",
"296 -75 OFFCURVE",
"272 -52 CURVE",
"302 -26 OFFCURVE",
"313 4 OFFCURVE",
"313 31 CURVE SMOOTH",
"313 86 OFFCURVE",
"268 130 OFFCURVE",
"199 130 CURVE SMOOTH",
"130 130 OFFCURVE",
"76 88 OFFCURVE",
"76 3 CURVE SMOOTH",
"76 -141 OFFCURVE",
"232 -229 OFFCURVE",
"446 -229 CURVE SMOOTH",
"710 -229 OFFCURVE",
"901 -96 OFFCURVE",
"901 93 CURVE SMOOTH"
);
}
);
width = 967;
}
);
leftKerningGroup = three.osf;
rightKerningGroup = three.osf;
},
{
color = 9;
glyphname = four.osf;
lastChange = "2018-06-05 02:48:52 +0000";
layers = (
{
layerId = "184835E3-72D9-430C-A639-2454AC4A0BE8";
paths = (
{
closed = 1;
nodes = (
"931 463 OFFCURVE",
"874 421 OFFCURVE",
"792 421 CURVE SMOOTH",
"283 421 LINE",
"627 986 LINE",
"714 1093 LINE",
"563 1093 LINE",
"67 369 LINE",
"107 295 LINE",
"753 295 LINE SMOOTH",
"985 295 OFFCURVE",
"1056 356 OFFCURVE",
"1056 442 CURVE SMOOTH",
"1056 486 OFFCURVE",
"1028 524 OFFCURVE",
"994 536 CURVE",
"958 536 LINE {name = hr00;}"
);
},
{
closed = 1;
nodes = (
"538 110 OFFCURVE",
"468 90 OFFCURVE",
"370 90 CURVE",
"370 60 OFFCURVE",
"382 21 OFFCURVE",
"405 0 CURVE",
"916 0 LINE",
"939 21 OFFCURVE",
"952 60 OFFCURVE",
"952 90 CURVE",
"846 90 OFFCURVE",
"792 110 OFFCURVE",
"792 174 CURVE SMOOTH",
"792 1093 LINE",
"714 1093 LINE",
"538 974 LINE",
"538 175 LINE SMOOTH"
);
}
);
width = 1116;
}
);
leftKerningGroup = four.osf;
rightKerningGroup = four.osf;
},
{
color = 9;
glyphname = five.osf;
lastChange = "2018-06-05 02:48:52 +0000";
layers = (
{
layerId = "184835E3-72D9-430C-A639-2454AC4A0BE8";
paths = (
{
closed = 1;
nodes = (
"299 -64 OFFCURVE",
"325 -30 OFFCURVE",
"325 16 CURVE SMOOTH",
"325 81 OFFCURVE",
"272 130 OFFCURVE",
"202 130 CURVE SMOOTH",
"130 130 OFFCURVE",
"70 78 OFFCURVE",
"70 -7 CURVE SMOOTH",
"70 -137 OFFCURVE",
"212 -229 OFFCURVE",
"429 -229 CURVE SMOOTH",
"719 -229 OFFCURVE",
"874 -65 OFFCURVE",
"874 124 CURVE SMOOTH",
"874 312 OFFCURVE",
"722 471 OFFCURVE",
"497 471 CURVE SMOOTH",
"390 471 OFFCURVE",
"314 442 OFFCURVE",
"261 412 CURVE",
"296 359 LINE",
"344 805 LINE",
"164 712 LINE",
"165 711 OFFCURVE",
"168 710 OFFCURVE",
"172 710 CURVE SMOOTH",
"203 710 OFFCURVE",
"298 751 OFFCURVE",
"316 751 CURVE SMOOTH",
"443 751 OFFCURVE",
"474 656 OFFCURVE",
"620 656 CURVE SMOOTH",
"748 656 OFFCURVE",
"824 730 OFFCURVE",
"824 823 CURVE SMOOTH",
"824 871 OFFCURVE",
"806 913 OFFCURVE",
"779 934 CURVE",
"743 934 LINE",
"694 902 OFFCURVE",
"621 886 OFFCURVE",
"507 886 CURVE SMOOTH",
"155 886 LINE",
"134 370 LINE",
"194 301 LINE",
"240 322 OFFCURVE",
"311 334 OFFCURVE",
"368 334 CURVE SMOOTH",
"496 334 OFFCURVE",
"593 235 OFFCURVE",
"593 104 CURVE SMOOTH",
"593 -15 OFFCURVE",
"514 -100 OFFCURVE",
"374 -100 CURVE SMOOTH",
"312 -100 OFFCURVE",
"260 -84 OFFCURVE",
"245 -69 CURVE",
"226 -96 LINE {name = hr00;}"
);
}
);
width = 938;
}
);
leftKerningGroup = five.osf;
rightKerningGroup = five.osf;
},
{
color = 9;
glyphname = six.osf;
lastChange = "2018-06-05 02:48:52 +0000";
layers = (
{
layerId = "184835E3-72D9-430C-A639-2454AC4A0BE8";
paths = (
{
closed = 1;
nodes = (
"603 976 OFFCURVE",
"647 958 OFFCURVE",
"673 928 CURVE",
"637 909 OFFCURVE",
"616 871 OFFCURVE",
"616 832 CURVE SMOOTH",
"616 767 OFFCURVE",
"670 718 OFFCURVE",
"743 718 CURVE SMOOTH",
"824 718 OFFCURVE",
"871 778 OFFCURVE",
"871 856 CURVE SMOOTH",
"871 994 OFFCURVE",
"727 1084 OFFCURVE",
"547 1084 CURVE SMOOTH",
"288 1084 OFFCURVE",
"73 905 OFFCURVE",
"73 512 CURVE SMOOTH",
"73 147 OFFCURVE",
"250 -16 OFFCURVE",
"504 -16 CURVE SMOOTH",
"753 -16 OFFCURVE",
"910 151 OFFCURVE",
"910 355 CURVE SMOOTH",
"910 540 OFFCURVE",
"765 661 OFFCURVE",
"575 661 CURVE SMOOTH",
"395 661 OFFCURVE",
"270 555 OFFCURVE",
"259 395 CURVE",
"325 370 LINE",
"325 478 OFFCURVE",
"398 535 OFFCURVE",
"495 535 CURVE SMOOTH",
"584 535 OFFCURVE",
"650 484 OFFCURVE",
"650 331 CURVE SMOOTH",
"650 169 OFFCURVE",
"586 100 OFFCURVE",
"508 100 CURVE SMOOTH",
"424 100 OFFCURVE",
"343 166 OFFCURVE",
"343 391 CURVE SMOOTH",
"343 425 OFFCURVE",
"344 462 OFFCURVE",
"349 502 CURVE",
"346 565 LINE",
"346 576 OFFCURVE",
"345 587 OFFCURVE",
"345 598 CURVE SMOOTH",
"345 878 OFFCURVE",
"442 976 OFFCURVE",
"555 976 CURVE SMOOTH {name = hr00;}"
);
}
);
width = 981;
}
);
leftKerningGroup = six.osf;
rightKerningGroup = six.osf;
},
{
color = 9;
glyphname = seven.osf;
lastChange = "2018-06-05 02:48:52 +0000";
layers = (
{
layerId = "184835E3-72D9-430C-A639-2454AC4A0BE8";
paths = (
{
closed = 1;
nodes = (
"807 859 OFFCURVE",
"731 844 OFFCURVE",
"660 844 CURVE SMOOTH",
"525 844 OFFCURVE",
"430 901 OFFCURVE",
"287 901 CURVE SMOOTH {name = hr02;}",
"121 901 OFFCURVE",
"57 823 OFFCURVE",
"57 721 CURVE SMOOTH",
"57 643 OFFCURVE",
"95 589 OFFCURVE",
"136 559 CURVE",
"179 559 LINE",
"218 625 OFFCURVE",
"287 665 OFFCURVE",
"394 665 CURVE SMOOTH",
"458 665 LINE SMOOTH",
"602 665 OFFCURVE",
"707 691 OFFCURVE",
"778 732 CURVE",
"863 900 LINE {name = hr01;}"
);
},
{
closed = 1;
nodes = (
"316 -225 OFFCURVE",
"377 -229 OFFCURVE",
"419 -229 CURVE SMOOTH",
"578 -229 OFFCURVE",
"584 -161 OFFCURVE",
"589 -109 CURVE SMOOTH",
"613 163 OFFCURVE",
"608 433 OFFCURVE",
"919 825 CURVE",
"863 901 LINE",
"821 837 LINE",
"476 451 OFFCURVE",
"324 142 OFFCURVE",
"281 -201 CURVE"
);
}
);
width = 971;
}
);
leftKerningGroup = seven.osf;
rightKerningGroup = seven.osf;
},
{
color = 9;
glyphname = eight.osf;
lastChange = "2018-06-05 02:48:52 +0000";
layers = (
{
layerId = "184835E3-72D9-430C-A639-2454AC4A0BE8";
paths = (
{
closed = 1;
nodes = (
"752 660 OFFCURVE",
"818 742 OFFCURVE",
"818 840 CURVE SMOOTH",
"818 952 OFFCURVE",
"731 1081 OFFCURVE",
"490 1081 CURVE SMOOTH",
"248 1081 OFFCURVE",
"116 951 OFFCURVE",
"116 791 CURVE SMOOTH",
"116 675 OFFCURVE",
"185 594 OFFCURVE",
"278 543 CURVE",
"160 492 OFFCURVE",
"80 390 OFFCURVE",
"80 271 CURVE SMOOTH",
"80 126 OFFCURVE",
"199 -17 OFFCURVE",
"464 -17 CURVE SMOOTH",
"727 -17 OFFCURVE",
"887 124 OFFCURVE",
"887 306 CURVE SMOOTH",
"887 430 OFFCURVE",
"812 516 OFFCURVE",
"655 606 CURVE"
);
},
{
closed = 1;
nodes = (
"600 974 OFFCURVE",
"645 909 OFFCURVE",
"645 833 CURVE SMOOTH",
"645 765 OFFCURVE",
"609 707 OFFCURVE",
"542 660 CURVE",
"398 728 OFFCURVE",
"360 787 OFFCURVE",
"360 849 CURVE SMOOTH",
"360 923 OFFCURVE",
"415 974 OFFCURVE",
"502 974 CURVE SMOOTH"
);
},
{
closed = 1;
nodes = (
"346 97 OFFCURVE",
"274 186 OFFCURVE",
"274 293 CURVE SMOOTH",
"274 371 OFFCURVE",
"312 438 OFFCURVE",
"383 477 CURVE",
"569 406 OFFCURVE",
"626 336 OFFCURVE",
"626 252 CURVE SMOOTH",
"626 165 OFFCURVE",
"566 97 OFFCURVE",
"463 97 CURVE SMOOTH"
);
}
);
width = 954;
}
);
leftKerningGroup = eight.osf;
rightKerningGroup = eight.osf;
},
{
color = 9;
glyphname = nine.osf;
lastChange = "2018-06-05 02:48:52 +0000";
layers = (
{
layerId = "184835E3-72D9-430C-A639-2454AC4A0BE8";
paths = (
{
closed = 1;
nodes = (
"365 -109 OFFCURVE",
"328 -93 OFFCURVE",
"297 -55 CURVE",
"347 -37 OFFCURVE",
"365 0 OFFCURVE",
"365 41 CURVE SMOOTH",
"365 113 OFFCURVE",
"307 148 OFFCURVE",
"244 148 CURVE SMOOTH",
"163 148 OFFCURVE",
"111 91 OFFCURVE",
"111 9 CURVE SMOOTH",
"111 -130 OFFCURVE",
"261 -227 OFFCURVE",
"444 -227 CURVE SMOOTH",
"693 -227 OFFCURVE",
"898 -42 OFFCURVE",
"898 358 CURVE SMOOTH",
"898 366 OFFCURVE",
"898 375 OFFCURVE",
"898 384 CURVE SMOOTH",
"890 741 OFFCURVE",
"719 901 OFFCURVE",
"460 901 CURVE SMOOTH",
"202 901 OFFCURVE",
"65 737 OFFCURVE",
"65 537 CURVE SMOOTH",
"65 334 OFFCURVE",
"207 216 OFFCURVE",
"402 216 CURVE SMOOTH",
"575 216 OFFCURVE",
"702 309 OFFCURVE",
"712 441 CURVE",
"646 466 LINE",
"646 385 OFFCURVE",
"575 342 OFFCURVE",
"493 342 CURVE SMOOTH",
"393 342 OFFCURVE",
"317 406 OFFCURVE",
"317 566 CURVE SMOOTH",
"317 738 OFFCURVE",
"405 788 OFFCURVE",
"475 788 CURVE SMOOTH",
"549 788 OFFCURVE",
"627 730 OFFCURVE",
"627 456 CURVE SMOOTH",
"627 420 OFFCURVE",
"626 379 OFFCURVE",
"623 333 CURVE",
"625 271 LINE",
"625 263 OFFCURVE",
"625 255 OFFCURVE",
"625 247 CURVE SMOOTH",
"625 -19 OFFCURVE",
"540 -109 OFFCURVE",
"417 -109 CURVE SMOOTH {name = hr00;}"
);
}
);
width = 969;
}
);
leftKerningGroup = nine.osf;
rightKerningGroup = nine.osf;
},
{
glyphname = zero.osf.zero;
lastChange = "2018-06-05 02:48:57 +0000";
layers = (
{
components = (
{
name = zero.osf;
transform = "{0.75, 0, 0, 0.75, 47, 283}";
}
);
layerId = "184835E3-72D9-430C-A639-2454AC4A0BE8";
paths = (
{
closed = 1;
nodes = (
"502 344 LINE",
"768 1131 LINE",
"688 1163 LINE",
"422 376 LINE"
);
}
);
width = 922;
}
);
},
{
color = 9;
glyphname = zero.tf;
lastChange = "2018-06-05 02:48:52 +0000";
layers = (
{
layerId = "184835E3-72D9-430C-A639-2454AC4A0BE8";
paths = (
{
closed = 1;
nodes = (
"739 -11 OFFCURVE",
"915 130 OFFCURVE",
"915 526 CURVE SMOOTH",
"915 919 OFFCURVE",
"744 1083 OFFCURVE",
"476 1083 CURVE SMOOTH",
"211 1083 OFFCURVE",
"35 923 OFFCURVE",
"35 527 CURVE SMOOTH",
"35 135 OFFCURVE",
"207 -11 OFFCURVE",
"474 -11 CURVE SMOOTH"
);
},
{
closed = 1;
nodes = (
"385 96 OFFCURVE",
"314 159 OFFCURVE",
"314 524 CURVE SMOOTH",
"314 905 OFFCURVE",
"387 975 OFFCURVE",
"476 975 CURVE SMOOTH",
"565 975 OFFCURVE",
"636 905 OFFCURVE",
"636 529 CURVE SMOOTH",
"636 159 OFFCURVE",
"563 96 OFFCURVE",
"474 96 CURVE SMOOTH {name = hr00;}"
);
}
);
width = 950;
}
);
leftKerningGroup = zero.tf;
rightKerningGroup = zero.tf;
},
{
color = 9;
glyphname = one.tf;
lastChange = "2018-06-05 02:48:52 +0000";
layers = (
{
layerId = "184835E3-72D9-430C-A639-2454AC4A0BE8";
paths = (
{
closed = 1;
nodes = (
"625 1044 OFFCURVE",
"593 1088 OFFCURVE",
"527 1088 CURVE SMOOTH",
"497 1088 OFFCURVE",
"472 1074 OFFCURVE",
"436 1053 CURVE SMOOTH",
"406 1036 OFFCURVE",
"370 1016 OFFCURVE",
"320 996 CURVE SMOOTH",
"59 893 LINE",
"101 771 LINE",
"128 783 OFFCURVE",
"233 801 OFFCURVE",
"306 801 CURVE SMOOTH",
"353 801 OFFCURVE",
"374 783 OFFCURVE",
"374 752 CURVE SMOOTH",
"374 232 LINE SMOOTH",
"374 123 OFFCURVE",
"255 103 OFFCURVE",
"73 103 CURVE",
"73 72 OFFCURVE",
"86 21 OFFCURVE",
"109 0 CURVE",
"863 0 LINE",
"887 21 OFFCURVE",
"899 72 OFFCURVE",
"899 103 CURVE",
"700 103 OFFCURVE",
"625 122 OFFCURVE",
"625 231 CURVE SMOOTH",
"625 1009 LINE SMOOTH {name = hr00;}"
);
}
);
width = 950;
}
);
leftKerningGroup = one.tf;
rightKerningGroup = one.tf;
},
{
color = 9;
glyphname = two.tf;
lastChange = "2018-06-05 02:48:52 +0000";
layers = (
{
layerId = "184835E3-72D9-430C-A639-2454AC4A0BE8";
paths = (
{
closed = 1;
nodes = (
"810 366 LINE",
"787 283 OFFCURVE",
"703 235 OFFCURVE",
"603 235 CURVE SMOOTH",
"498 235 LINE SMOOTH",
"423 235 OFFCURVE",
"355 221 OFFCURVE",
"285 190 CURVE",
"340 268 OFFCURVE",
"434 328 OFFCURVE",
"529 388 CURVE SMOOTH",
"694 492 OFFCURVE",
"862 599 OFFCURVE",
"862 808 CURVE SMOOTH",
"862 1017 OFFCURVE",
"692 1117 OFFCURVE",
"482 1117 CURVE SMOOTH",
"247 1117 OFFCURVE",
"100 992 OFFCURVE",
"100 852 CURVE SMOOTH",
"100 758 OFFCURVE",
"166 704 OFFCURVE",
"241 704 CURVE SMOOTH",
"310 704 OFFCURVE",
"378 751 OFFCURVE",
"378 823 CURVE SMOOTH",
"378 871 OFFCURVE",
"346 922 OFFCURVE",
"295 937 CURVE",
"328 983 OFFCURVE",
"374 1009 OFFCURVE",
"434 1009 CURVE SMOOTH",
"519 1009 OFFCURVE",
"587 958 OFFCURVE",
"587 834 CURVE SMOOTH",
"587 679 OFFCURVE",
"482 572 OFFCURVE",
"366 456 CURVE SMOOTH",
"253 343 OFFCURVE",
"134 222 OFFCURVE",
"100 43 CURVE",
"149 5 LINE",
"151 6 LINE",
"150 5 LINE",
"206 28 OFFCURVE",
"273 38 OFFCURVE",
"340 38 CURVE SMOOTH",
"403 38 OFFCURVE",
"451 30 OFFCURVE",
"496 22 CURVE SMOOTH",
"541 14 OFFCURVE",
"583 6 OFFCURVE",
"636 6 CURVE SMOOTH",
"841 6 OFFCURVE",
"902 124 OFFCURVE",
"902 220 CURVE SMOOTH",
"902 280 OFFCURVE",
"878 338 OFFCURVE",
"847 366 CURVE"
);
}
);
width = 950;
}
);
leftKerningGroup = two.tf;
rightKerningGroup = two.tf;
},
{
color = 9;
glyphname = three.tf;
lastChange = "2018-06-05 02:48:52 +0000";
layers = (
{
layerId = "184835E3-72D9-430C-A639-2454AC4A0BE8";
paths = (
{
closed = 1;
nodes = (
"750 660 OFFCURVE",
"819 741 OFFCURVE",
"819 870 CURVE SMOOTH",
"819 1025 OFFCURVE",
"665 1116 OFFCURVE",
"453 1116 CURVE SMOOTH",
"254 1116 OFFCURVE",
"92 1035 OFFCURVE",
"92 895 CURVE SMOOTH",
"92 823 OFFCURVE",
"135 771 OFFCURVE",
"212 771 CURVE SMOOTH",
"288 771 OFFCURVE",
"326 822 OFFCURVE",
"326 867 CURVE SMOOTH",
"326 907 OFFCURVE",
"298 941 OFFCURVE",
"271 952 CURVE",
"302 990 OFFCURVE",
"348 1008 OFFCURVE",
"398 1008 CURVE SMOOTH",
"494 1008 OFFCURVE",
"546 946 OFFCURVE",
"546 844 CURVE SMOOTH",
"546 750 OFFCURVE",
"501 639 OFFCURVE",
"307 588 CURVE",
"335 510 LINE",
"399 510 LINE SMOOTH",
"533 510 OFFCURVE",
"615 420 OFFCURVE",
"615 314 CURVE SMOOTH",
"615 207 OFFCURVE",
"532 138 OFFCURVE",
"413 138 CURVE SMOOTH",
"352 138 OFFCURVE",
"291 156 OFFCURVE",
"267 178 CURVE",
"297 204 OFFCURVE",
"308 234 OFFCURVE",
"308 261 CURVE SMOOTH",
"308 316 OFFCURVE",
"263 360 OFFCURVE",
"194 360 CURVE SMOOTH",
"125 360 OFFCURVE",
"71 318 OFFCURVE",
"71 233 CURVE SMOOTH",
"71 89 OFFCURVE",
"227 1 OFFCURVE",
"441 1 CURVE SMOOTH",
"705 1 OFFCURVE",
"895 134 OFFCURVE",
"895 323 CURVE SMOOTH",
"895 470 OFFCURVE",
"781 578 OFFCURVE",
"612 604 CURVE"
);
}
);
width = 950;
}
);
leftKerningGroup = three.tf;
rightKerningGroup = three.tf;
},
{
color = 9;
glyphname = four.tf;
lastChange = "2018-06-05 02:48:52 +0000";
layers = (
{
layerId = "184835E3-72D9-430C-A639-2454AC4A0BE8";
paths = (
{
closed = 1;
nodes = (
"833 409 OFFCURVE",
"776 367 OFFCURVE",
"709 367 CURVE SMOOTH",
"253 367 LINE",
"523 985 LINE",
"646 1092 LINE",
"415 1092 LINE",
"37 316 LINE",
"76 241 LINE",
"670 241 LINE SMOOTH",
"887 241 OFFCURVE",
"958 302 OFFCURVE",
"958 388 CURVE SMOOTH",
"958 433 OFFCURVE",
"930 471 OFFCURVE",
"896 482 CURVE",
"860 482 LINE {name = hr00;}"
);
},
{
closed = 1;
nodes = (
"470 110 OFFCURVE",
"400 90 OFFCURVE",
"302 90 CURVE",
"302 60 OFFCURVE",
"314 21 OFFCURVE",
"337 0 CURVE",
"848 0 LINE",
"871 21 OFFCURVE",
"884 60 OFFCURVE",
"884 90 CURVE",
"778 90 OFFCURVE",
"724 109 OFFCURVE",
"724 174 CURVE SMOOTH",
"724 1092 LINE",
"646 1092 LINE",
"470 974 LINE",
"470 174 LINE SMOOTH"
);
}
);
width = 950;
}
);
leftKerningGroup = four.tf;
rightKerningGroup = four.tf;
},
{
color = 9;
glyphname = five.tf;
lastChange = "2018-06-05 02:48:52 +0000";
layers = (
{
layerId = "184835E3-72D9-430C-A639-2454AC4A0BE8";
paths = (
{
closed = 1;
nodes = (
"316 145 OFFCURVE",
"342 179 OFFCURVE",
"342 225 CURVE SMOOTH",
"342 290 OFFCURVE",
"289 339 OFFCURVE",
"219 339 CURVE SMOOTH",
"147 339 OFFCURVE",
"87 287 OFFCURVE",
"87 202 CURVE SMOOTH",
"87 72 OFFCURVE",
"229 -20 OFFCURVE",
"446 -20 CURVE SMOOTH",
"737 -20 OFFCURVE",
"891 144 OFFCURVE",
"891 333 CURVE SMOOTH",
"891 521 OFFCURVE",
"740 649 OFFCURVE",
"515 649 CURVE SMOOTH",
"407 649 OFFCURVE",
"332 620 OFFCURVE",
"278 590 CURVE",
"314 537 LINE",
"362 984 LINE",
"181 891 LINE",
"182 889 OFFCURVE",
"185 888 OFFCURVE",
"189 888 CURVE SMOOTH",
"221 888 OFFCURVE",
"315 929 OFFCURVE",
"333 929 CURVE SMOOTH",
"460 929 OFFCURVE",
"491 834 OFFCURVE",
"637 834 CURVE SMOOTH",
"765 834 OFFCURVE",
"842 908 OFFCURVE",
"842 1002 CURVE SMOOTH",
"842 1049 OFFCURVE",
"823 1092 OFFCURVE",
"797 1112 CURVE",
"760 1112 LINE",
"711 1080 OFFCURVE",
"638 1065 OFFCURVE",
"524 1065 CURVE SMOOTH",
"172 1065 LINE",
"151 548 LINE",
"211 479 LINE",
"257 500 OFFCURVE",
"328 513 OFFCURVE",
"385 513 CURVE SMOOTH",
"513 513 OFFCURVE",
"611 444 OFFCURVE",
"611 313 CURVE SMOOTH",
"611 195 OFFCURVE",
"531 109 OFFCURVE",
"391 109 CURVE SMOOTH",
"329 109 OFFCURVE",
"277 126 OFFCURVE",
"262 140 CURVE",
"243 114 LINE {name = hr00;}"
);
}
);
width = 950;
}
);
leftKerningGroup = five.tf;
rightKerningGroup = five.tf;
},
{
color = 9;
glyphname = eight.tf;
lastChange = "2018-06-05 02:48:52 +0000";
layers = (
{
layerId = "184835E3-72D9-430C-A639-2454AC4A0BE8";
paths = (
{
closed = 1;
nodes = (
"770 679 OFFCURVE",
"836 762 OFFCURVE",
"836 860 CURVE SMOOTH",
"836 972 OFFCURVE",
"749 1101 OFFCURVE",
"507 1101 CURVE SMOOTH",
"265 1101 OFFCURVE",
"134 971 OFFCURVE",
"134 810 CURVE SMOOTH",
"134 695 OFFCURVE",
"203 614 OFFCURVE",
"296 546 CURVE",
"177 495 OFFCURVE",
"97 393 OFFCURVE",
"97 274 CURVE SMOOTH",
"97 129 OFFCURVE",
"216 -14 OFFCURVE",
"481 -14 CURVE SMOOTH",
"744 -14 OFFCURVE",
"904 127 OFFCURVE",
"904 309 CURVE SMOOTH",
"904 433 OFFCURVE",
"830 536 OFFCURVE",
"672 625 CURVE"
);
},
{
closed = 1;
nodes = (
"618 993 OFFCURVE",
"663 928 OFFCURVE",
"663 852 CURVE SMOOTH",
"663 785 OFFCURVE",
"627 726 OFFCURVE",
"559 679 CURVE",
"415 747 OFFCURVE",
"378 807 OFFCURVE",
"378 869 CURVE SMOOTH",
"378 942 OFFCURVE",
"432 993 OFFCURVE",
"519 993 CURVE SMOOTH"
);
},
{
closed = 1;
nodes = (
"371 100 OFFCURVE",
"299 189 OFFCURVE",
"299 296 CURVE SMOOTH",
"299 374 OFFCURVE",
"337 441 OFFCURVE",
"408 480 CURVE",
"594 409 OFFCURVE",
"651 339 OFFCURVE",
"651 255 CURVE SMOOTH",
"651 168 OFFCURVE",
"591 100 OFFCURVE",
"488 100 CURVE SMOOTH"
);
}
);
width = 950;
}
);
leftKerningGroup = eight.tf;
rightKerningGroup = eight.tf;
},
{
glyphname = zero.tf.zero;
lastChange = "2018-06-03 05:48:24 +0000";
layers = (
{
components = (
{
name = zero.tf;
transform = "{1, 0, 0, 1, 41, 20}";
}
);
layerId = "184835E3-72D9-430C-A639-2454AC4A0BE8";
paths = (
{
closed = 1;
nodes = (
"424 81 LINE",
"704 982 LINE",
"624 1014 LINE",
"344 113 LINE"
);
}
);
width = 1034;
}
);
leftMetricsKey = zero;
widthMetricsKey = zero;
},
{
color = 9;
glyphname = zero.tosf;
lastChange = "2018-06-05 02:49:04 +0000";
layers = (
{
layerId = "184835E3-72D9-430C-A639-2454AC4A0BE8";
paths = (
{
closed = 1;
nodes = (
"764 -11 OFFCURVE",
"941 114 OFFCURVE",
"941 464 CURVE SMOOTH",
"941 811 OFFCURVE",
"769 955 OFFCURVE",
"501 955 CURVE SMOOTH",
"236 955 OFFCURVE",
"60 814 OFFCURVE",
"60 465 CURVE SMOOTH",
"60 117 OFFCURVE",
"231 -11 OFFCURVE",
"499 -11 CURVE SMOOTH"
);
},
{
closed = 1;
nodes = (
"410 84 OFFCURVE",
"339 140 OFFCURVE",
"339 462 CURVE SMOOTH",
"339 798 OFFCURVE",
"412 861 OFFCURVE",
"501 861 CURVE SMOOTH",
"590 861 OFFCURVE",
"662 798 OFFCURVE",
"662 466 CURVE SMOOTH",
"662 140 OFFCURVE",
"589 84 OFFCURVE",
"500 84 CURVE SMOOTH {name = hr00;}"
);
}
);
width = 1001;
}
);
leftKerningGroup = zero.tosf;
rightKerningGroup = zero.tosf;
},
{
color = 9;
glyphname = one.tosf;
lastChange = "2018-06-05 02:49:04 +0000";
layers = (
{
layerId = "184835E3-72D9-430C-A639-2454AC4A0BE8";
paths = (
{
closed = 1;
nodes = (
"635 849 OFFCURVE",
"603 893 OFFCURVE",
"537 893 CURVE SMOOTH",
"507 893 OFFCURVE",
"482 879 OFFCURVE",
"446 858 CURVE SMOOTH",
"416 841 OFFCURVE",
"380 821 OFFCURVE",
"330 801 CURVE SMOOTH",
"69 698 LINE",
"111 576 LINE",
"138 588 OFFCURVE",
"243 606 OFFCURVE",
"316 606 CURVE SMOOTH",
"363 606 OFFCURVE",
"384 588 OFFCURVE",
"384 557 CURVE SMOOTH",
"384 232 LINE SMOOTH",
"384 123 OFFCURVE",
"265 103 OFFCURVE",
"83 103 CURVE",
"83 72 OFFCURVE",
"96 21 OFFCURVE",
"119 0 CURVE",
"873 0 LINE",
"897 21 OFFCURVE",
"909 72 OFFCURVE",
"909 103 CURVE",
"710 103 OFFCURVE",
"635 122 OFFCURVE",
"635 231 CURVE SMOOTH",
"635 814 LINE SMOOTH {name = hr00;}"
);
}
);
width = 971;
}
);
leftKerningGroup = one.tosf;
rightKerningGroup = one.tosf;
},
{
color = 9;
glyphname = two.tosf;
lastChange = "2018-06-05 02:49:04 +0000";
layers = (
{
layerId = "184835E3-72D9-430C-A639-2454AC4A0BE8";
paths = (
{
closed = 1;
nodes = (
"211 64 LINE",
"258 332 OFFCURVE",
"837 335 OFFCURVE",
"837 670 CURVE SMOOTH",
"837 850 OFFCURVE",
"667 959 OFFCURVE",
"457 959 CURVE SMOOTH",
"190 959 OFFCURVE",
"75 829 OFFCURVE",
"75 708 CURVE SMOOTH",
"75 626 OFFCURVE",
"142 565 OFFCURVE",
"216 565 CURVE SMOOTH",
"286 565 OFFCURVE",
"353 606 OFFCURVE",
"353 667 CURVE SMOOTH",
"353 709 OFFCURVE",
"321 768 OFFCURVE",
"270 781 CURVE",
"303 821 OFFCURVE",
"331 866 OFFCURVE",
"409 866 CURVE SMOOTH",
"494 866 OFFCURVE",
"562 799 OFFCURVE",
"562 692 CURVE SMOOTH",
"562 427 OFFCURVE",
"144 352 OFFCURVE",
"76 37 CURVE",
"124 5 LINE {name = hr01;}"
);
},
{
closed = 1;
nodes = (
"181 25 OFFCURVE",
"248 34 OFFCURVE",
"316 34 CURVE SMOOTH",
"438 34 OFFCURVE",
"505 6 OFFCURVE",
"611 6 CURVE SMOOTH {name = hr02;}",
"817 6 OFFCURVE",
"877 109 OFFCURVE",
"877 192 CURVE SMOOTH",
"877 244 OFFCURVE",
"853 293 OFFCURVE",
"822 318 CURVE",
"785 318 LINE",
"763 245 OFFCURVE",
"678 205 OFFCURVE",
"578 205 CURVE SMOOTH {name = hr03;}",
"473 205 LINE SMOOTH",
"385 205 OFFCURVE",
"307 187 OFFCURVE",
"224 151 CURVE",
"125 5 LINE"
);
}
);
width = 943;
}
);
leftKerningGroup = two.tosf;
rightKerningGroup = two.tosf;
},
{
color = 9;
glyphname = three.tosf;
lastChange = "2018-06-05 02:49:04 +0000";
layers = (
{
layerId = "184835E3-72D9-430C-A639-2454AC4A0BE8";
paths = (
{
closed = 1;
nodes = (
"823 810 OFFCURVE",
"669 901 OFFCURVE",
"457 901 CURVE SMOOTH",
"258 901 OFFCURVE",
"96 820 OFFCURVE",
"96 680 CURVE SMOOTH",
"96 608 OFFCURVE",
"139 556 OFFCURVE",
"216 556 CURVE SMOOTH",
"292 556 OFFCURVE",
"330 607 OFFCURVE",
"330 652 CURVE SMOOTH",
"330 692 OFFCURVE",
"302 726 OFFCURVE",
"275 737 CURVE",
"306 775 OFFCURVE",
"352 793 OFFCURVE",
"402 793 CURVE SMOOTH",
"498 793 OFFCURVE",
"550 731 OFFCURVE",
"550 629 CURVE SMOOTH",
"550 535 OFFCURVE",
"505 416 OFFCURVE",
"311 365 CURVE",
"515 358 LINE",
"720 413 OFFCURVE",
"823 498 OFFCURVE",
"823 655 CURVE SMOOTH {name = hr00;}"
);
},
{
closed = 1;
nodes = (
"900 253 OFFCURVE",
"764 375 OFFCURVE",
"570 387 CURVE",
"311 365 LINE",
"339 287 LINE",
"403 287 LINE SMOOTH",
"537 287 OFFCURVE",
"619 190 OFFCURVE",
"619 84 CURVE SMOOTH",
"619 -24 OFFCURVE",
"536 -93 OFFCURVE",
"417 -93 CURVE SMOOTH",
"356 -93 OFFCURVE",
"295 -75 OFFCURVE",
"271 -52 CURVE",
"301 -26 OFFCURVE",
"312 4 OFFCURVE",
"312 31 CURVE SMOOTH",
"312 86 OFFCURVE",
"267 130 OFFCURVE",
"198 130 CURVE SMOOTH",
"129 130 OFFCURVE",
"75 88 OFFCURVE",
"75 3 CURVE SMOOTH",
"75 -141 OFFCURVE",
"231 -229 OFFCURVE",
"445 -229 CURVE SMOOTH",
"709 -229 OFFCURVE",
"900 -96 OFFCURVE",
"900 93 CURVE SMOOTH"
);
}
);
width = 960;
}
);
leftKerningGroup = three.tosf;
rightKerningGroup = three.tosf;
},
{
color = 9;
glyphname = four.tosf;
lastChange = "2018-06-05 02:49:04 +0000";
layers = (
{
layerId = "184835E3-72D9-430C-A639-2454AC4A0BE8";
paths = (
{
closed = 1;
nodes = (
"889 462 OFFCURVE",
"832 420 OFFCURVE",
"749 420 CURVE SMOOTH",
"271 420 LINE",
"554 985 LINE",
"671 1092 LINE",
"491 1092 LINE",
"55 369 LINE",
"95 294 LINE",
"710 294 LINE SMOOTH",
"943 294 OFFCURVE",
"1013 355 OFFCURVE",
"1013 441 CURVE SMOOTH",
"1013 486 OFFCURVE",
"986 524 OFFCURVE",
"952 535 CURVE",
"916 535 LINE {name = hr00;}"
);
},
{
closed = 1;
nodes = (
"496 110 OFFCURVE",
"426 90 OFFCURVE",
"328 90 CURVE",
"328 60 OFFCURVE",
"340 21 OFFCURVE",
"363 0 CURVE",
"874 0 LINE",
"897 21 OFFCURVE",
"910 60 OFFCURVE",
"910 90 CURVE",
"803 90 OFFCURVE",
"749 109 OFFCURVE",
"749 174 CURVE SMOOTH",
"749 1092 LINE",
"671 1092 LINE",
"496 974 LINE",
"496 174 LINE SMOOTH"
);
}
);
width = 1059;
}
);
leftKerningGroup = four.tosf;
rightKerningGroup = four.tosf;
},
{
color = 9;
glyphname = five.tosf;
lastChange = "2018-06-05 02:49:04 +0000";
layers = (
{
layerId = "184835E3-72D9-430C-A639-2454AC4A0BE8";
paths = (
{
closed = 1;
nodes = (
"299 -64 OFFCURVE",
"325 -30 OFFCURVE",
"325 16 CURVE SMOOTH",
"325 81 OFFCURVE",
"272 130 OFFCURVE",
"202 130 CURVE SMOOTH",
"130 130 OFFCURVE",
"70 78 OFFCURVE",
"70 -7 CURVE SMOOTH",
"70 -137 OFFCURVE",
"212 -229 OFFCURVE",
"429 -229 CURVE SMOOTH",
"719 -229 OFFCURVE",
"874 -65 OFFCURVE",
"874 124 CURVE SMOOTH",
"874 312 OFFCURVE",
"722 471 OFFCURVE",
"497 471 CURVE SMOOTH",
"390 471 OFFCURVE",
"314 442 OFFCURVE",
"261 412 CURVE",
"296 359 LINE",
"344 805 LINE",
"164 712 LINE",
"165 711 OFFCURVE",
"168 710 OFFCURVE",
"172 710 CURVE SMOOTH",
"203 710 OFFCURVE",
"298 751 OFFCURVE",
"316 751 CURVE SMOOTH",
"443 751 OFFCURVE",
"474 656 OFFCURVE",
"620 656 CURVE SMOOTH",
"748 656 OFFCURVE",
"824 730 OFFCURVE",
"824 823 CURVE SMOOTH",
"824 871 OFFCURVE",
"806 913 OFFCURVE",
"779 934 CURVE",
"743 934 LINE",
"694 902 OFFCURVE",
"621 886 OFFCURVE",
"507 886 CURVE SMOOTH",
"155 886 LINE",
"134 370 LINE",
"194 301 LINE",
"240 322 OFFCURVE",
"311 334 OFFCURVE",
"368 334 CURVE SMOOTH",
"496 334 OFFCURVE",
"593 235 OFFCURVE",
"593 104 CURVE SMOOTH",
"593 -15 OFFCURVE",
"514 -100 OFFCURVE",
"374 -100 CURVE SMOOTH",
"312 -100 OFFCURVE",
"260 -84 OFFCURVE",
"245 -69 CURVE",
"226 -96 LINE {name = hr00;}"
);
}
);
width = 944;
}
);
leftKerningGroup = five.tosf;
rightKerningGroup = five.tosf;
},
{
color = 9;
glyphname = six.tosf;
lastChange = "2018-06-05 02:49:04 +0000";
layers = (
{
layerId = "184835E3-72D9-430C-A639-2454AC4A0BE8";
paths = (
{
closed = 1;
nodes = (
"599 976 OFFCURVE",
"643 958 OFFCURVE",
"669 928 CURVE",
"633 909 OFFCURVE",
"612 871 OFFCURVE",
"612 832 CURVE SMOOTH",
"612 767 OFFCURVE",
"665 718 OFFCURVE",
"739 718 CURVE SMOOTH",
"820 718 OFFCURVE",
"866 778 OFFCURVE",
"866 856 CURVE SMOOTH",
"866 994 OFFCURVE",
"723 1084 OFFCURVE",
"543 1084 CURVE SMOOTH",
"284 1084 OFFCURVE",
"68 905 OFFCURVE",
"68 512 CURVE SMOOTH",
"68 147 OFFCURVE",
"245 -16 OFFCURVE",
"500 -16 CURVE SMOOTH",
"749 -16 OFFCURVE",
"905 151 OFFCURVE",
"905 355 CURVE SMOOTH",
"905 540 OFFCURVE",
"761 661 OFFCURVE",
"571 661 CURVE SMOOTH",
"391 661 OFFCURVE",
"266 555 OFFCURVE",
"254 395 CURVE",
"320 370 LINE",
"320 478 OFFCURVE",
"394 535 OFFCURVE",
"491 535 CURVE SMOOTH",
"580 535 OFFCURVE",
"646 484 OFFCURVE",
"646 331 CURVE SMOOTH",
"646 169 OFFCURVE",
"582 100 OFFCURVE",
"503 100 CURVE SMOOTH",
"420 100 OFFCURVE",
"338 166 OFFCURVE",
"338 391 CURVE SMOOTH",
"338 425 OFFCURVE",
"340 462 OFFCURVE",
"344 502 CURVE",
"341 565 LINE",
"341 576 OFFCURVE",
"341 587 OFFCURVE",
"341 598 CURVE SMOOTH",
"341 878 OFFCURVE",
"437 976 OFFCURVE",
"551 976 CURVE SMOOTH {name = hr00;}"
);
}
);
width = 969;
}
);
leftKerningGroup = six.tosf;
rightKerningGroup = six.tosf;
},
{
color = 9;
glyphname = seven.tosf;
lastChange = "2018-06-05 02:49:04 +0000";
layers = (
{
layerId = "184835E3-72D9-430C-A639-2454AC4A0BE8";
paths = (
{
closed = 1;
nodes = (
"815 859 OFFCURVE",
"738 844 OFFCURVE",
"668 844 CURVE SMOOTH",
"533 844 OFFCURVE",
"437 901 OFFCURVE",
"295 901 CURVE SMOOTH {name = hr02;}",
"128 901 OFFCURVE",
"65 823 OFFCURVE",
"65 721 CURVE SMOOTH",
"65 643 OFFCURVE",
"103 589 OFFCURVE",
"143 559 CURVE",
"187 559 LINE",
"225 625 OFFCURVE",
"294 665 OFFCURVE",
"401 665 CURVE SMOOTH",
"465 665 LINE SMOOTH",
"609 665 OFFCURVE",
"714 691 OFFCURVE",
"785 732 CURVE",
"871 900 LINE {name = hr01;}"
);
},
{
closed = 1;
nodes = (
"323 -225 OFFCURVE",
"385 -229 OFFCURVE",
"427 -229 CURVE SMOOTH",
"585 -229 OFFCURVE",
"592 -161 OFFCURVE",
"596 -109 CURVE SMOOTH",
"620 163 OFFCURVE",
"616 433 OFFCURVE",
"926 825 CURVE",
"871 901 LINE",
"829 837 LINE",
"484 451 OFFCURVE",
"332 142 OFFCURVE",
"289 -201 CURVE"
);
}
);
width = 987;
}
);
leftKerningGroup = seven.tosf;
rightKerningGroup = seven.tosf;
},
{
color = 9;
glyphname = eight.tosf;
lastChange = "2018-06-05 02:49:04 +0000";
layers = (
{
layerId = "184835E3-72D9-430C-A639-2454AC4A0BE8";
paths = (
{
closed = 1;
nodes = (
"742 660 OFFCURVE",
"808 742 OFFCURVE",
"808 840 CURVE SMOOTH",
"808 952 OFFCURVE",
"721 1081 OFFCURVE",
"480 1081 CURVE SMOOTH",
"237 1081 OFFCURVE",
"106 951 OFFCURVE",
"106 791 CURVE SMOOTH",
"106 675 OFFCURVE",
"175 594 OFFCURVE",
"268 543 CURVE",
"150 492 OFFCURVE",
"69 390 OFFCURVE",
"69 271 CURVE SMOOTH",
"69 126 OFFCURVE",
"189 -17 OFFCURVE",
"453 -17 CURVE SMOOTH",
"717 -17 OFFCURVE",
"876 124 OFFCURVE",
"876 306 CURVE SMOOTH",
"876 430 OFFCURVE",
"802 516 OFFCURVE",
"645 606 CURVE"
);
},
{
closed = 1;
nodes = (
"590 974 OFFCURVE",
"635 909 OFFCURVE",
"635 833 CURVE SMOOTH",
"635 765 OFFCURVE",
"599 707 OFFCURVE",
"531 660 CURVE",
"387 728 OFFCURVE",
"350 787 OFFCURVE",
"350 849 CURVE SMOOTH",
"350 923 OFFCURVE",
"405 974 OFFCURVE",
"492 974 CURVE SMOOTH"
);
},
{
closed = 1;
nodes = (
"336 97 OFFCURVE",
"264 186 OFFCURVE",
"264 293 CURVE SMOOTH",
"264 371 OFFCURVE",
"302 438 OFFCURVE",
"372 477 CURVE",
"559 406 OFFCURVE",
"615 336 OFFCURVE",
"615 252 CURVE SMOOTH",
"615 165 OFFCURVE",
"555 97 OFFCURVE",
"453 97 CURVE SMOOTH"
);
}
);
width = 946;
}
);
leftKerningGroup = eight.tosf;
rightKerningGroup = eight.tosf;
},
{
color = 9;
glyphname = nine.tosf;
lastChange = "2018-06-05 02:49:04 +0000";
layers = (
{
layerId = "184835E3-72D9-430C-A639-2454AC4A0BE8";
paths = (
{
closed = 1;
nodes = (
"367 -109 OFFCURVE",
"330 -93 OFFCURVE",
"300 -55 CURVE",
"349 -37 OFFCURVE",
"367 0 OFFCURVE",
"367 41 CURVE SMOOTH",
"367 113 OFFCURVE",
"309 148 OFFCURVE",
"246 148 CURVE SMOOTH",
"165 148 OFFCURVE",
"113 91 OFFCURVE",
"113 9 CURVE SMOOTH",
"113 -130 OFFCURVE",
"264 -227 OFFCURVE",
"447 -227 CURVE SMOOTH",
"695 -227 OFFCURVE",
"900 -42 OFFCURVE",
"900 358 CURVE SMOOTH",
"900 366 OFFCURVE",
"900 375 OFFCURVE",
"900 384 CURVE SMOOTH",
"900 741 OFFCURVE",
"721 901 OFFCURVE",
"462 901 CURVE SMOOTH",
"204 901 OFFCURVE",
"67 737 OFFCURVE",
"67 537 CURVE SMOOTH",
"67 334 OFFCURVE",
"209 216 OFFCURVE",
"405 216 CURVE SMOOTH",
"577 216 OFFCURVE",
"705 309 OFFCURVE",
"714 441 CURVE",
"648 466 LINE",
"648 385 OFFCURVE",
"577 342 OFFCURVE",
"495 342 CURVE SMOOTH",
"396 342 OFFCURVE",
"319 406 OFFCURVE",
"319 566 CURVE SMOOTH",
"319 738 OFFCURVE",
"408 788 OFFCURVE",
"477 788 CURVE SMOOTH",
"552 788 OFFCURVE",
"630 730 OFFCURVE",
"630 456 CURVE SMOOTH",
"630 420 OFFCURVE",
"628 379 OFFCURVE",
"625 333 CURVE",
"627 271 LINE",
"627 263 OFFCURVE",
"627 255 OFFCURVE",
"627 247 CURVE SMOOTH",
"627 -19 OFFCURVE",
"543 -109 OFFCURVE",
"419 -109 CURVE SMOOTH {name = hr00;}"
);
}
);
width = 965;
}
);
leftKerningGroup = nine.tosf;
rightKerningGroup = nine.tosf;
},
{
glyphname = zero.zero;
lastChange = "2018-06-03 05:48:24 +0000";
layers = (
{
components = (
{
name = zero;
transform = "{1, 0, 0, 1, 0, 20}";
}
);
layerId = "184835E3-72D9-430C-A639-2454AC4A0BE8";
paths = (
{
closed = 1;
nodes = (
"456 81 LINE",
"735 982 LINE",
"655 1014 LINE",
"375 113 LINE"
);
}
);
width = 1034;
}
);
leftMetricsKey = zero;
widthMetricsKey = zero;
},
{
color = 9;
glyphname = zero.dnom;
lastChange = "2018-06-05 02:49:18 +0000";
layers = (
{
layerId = "184835E3-72D9-430C-A639-2454AC4A0BE8";
paths = (
{
closed = 1;
nodes = (
"546 -14 OFFCURVE",
"665 91 OFFCURVE",
"665 320 CURVE SMOOTH",
"665 548 OFFCURVE",
"549 642 OFFCURVE",
"370 642 CURVE SMOOTH",
"191 642 OFFCURVE",
"72 550 OFFCURVE",
"72 321 CURVE SMOOTH",
"72 93 OFFCURVE",
"188 -14 OFFCURVE",
"368 -14 CURVE SMOOTH"
);
},
{
closed = 1;
nodes = (
"308 48 OFFCURVE",
"260 108 OFFCURVE",
"260 319 CURVE SMOOTH",
"260 540 OFFCURVE",
"309 580 OFFCURVE",
"370 580 CURVE SMOOTH",
"430 580 OFFCURVE",
"478 540 OFFCURVE",
"478 322 CURVE SMOOTH",
"478 108 OFFCURVE",
"428 48 OFFCURVE",
"368 48 CURVE SMOOTH {name = hr00;}"
);
}
);
width = 739;
}
);
leftKerningGroup = zero;
rightKerningGroup = zero;
userData = {
com.typemytype.robofont.guides = (
{
angle = 0;
isGlobal = 0;
magnetic = 5;
x = 0;
y = -27;
}
);
};
},
{
color = 9;
glyphname = one.dnom;
lastChange = "2018-06-05 02:49:18 +0000";
layers = (
{
layerId = "184835E3-72D9-430C-A639-2454AC4A0BE8";
paths = (
{
closed = 1;
nodes = (
"374 624 OFFCURVE",
"359 652 OFFCURVE",
"314 652 CURVE SMOOTH",
"295 652 OFFCURVE",
"282 647 OFFCURVE",
"236 624 CURVE SMOOTH",
"75 542 LINE",
"102 483 LINE",
"121 490 OFFCURVE",
"148 494 OFFCURVE",
"168 494 CURVE SMOOTH",
"199 494 OFFCURVE",
"214 484 OFFCURVE",
"214 466 CURVE SMOOTH",
"214 162 LINE SMOOTH",
"214 99 OFFCURVE",
"169 73 OFFCURVE",
"100 73 CURVE",
"100 55 OFFCURVE",
"109 17 OFFCURVE",
"125 5 CURVE",
"458 5 LINE",
"474 17 OFFCURVE",
"482 55 OFFCURVE",
"482 73 CURVE",
"411 73 OFFCURVE",
"374 99 OFFCURVE",
"374 162 CURVE SMOOTH",
"374 603 LINE SMOOTH {name = hr00;}"
);
}
);
width = 547;
}
);
leftKerningGroup = one;
rightKerningGroup = one;
},
{
color = 9;
glyphname = two.dnom;
lastChange = "2018-06-05 02:49:18 +0000";
layers = (
{
layerId = "184835E3-72D9-430C-A639-2454AC4A0BE8";
paths = (
{
closed = 1;
nodes = (
"539 199 LINE",
"524 151 OFFCURVE",
"466 124 OFFCURVE",
"399 124 CURVE SMOOTH {name = hr03;}",
"329 124 LINE SMOOTH",
"279 124 OFFCURVE",
"233 116 OFFCURVE",
"186 97 CURVE",
"223 142 OFFCURVE",
"285 177 OFFCURVE",
"349 212 CURVE SMOOTH",
"459 271 OFFCURVE",
"573 332 OFFCURVE",
"573 453 CURVE SMOOTH",
"573 574 OFFCURVE",
"459 632 OFFCURVE",
"318 632 CURVE SMOOTH",
"161 632 OFFCURVE",
"61 560 OFFCURVE",
"61 478 CURVE SMOOTH",
"61 424 OFFCURVE",
"106 393 OFFCURVE",
"156 393 CURVE SMOOTH",
"203 393 OFFCURVE",
"248 420 OFFCURVE",
"248 461 CURVE SMOOTH",
"248 490 OFFCURVE",
"226 519 OFFCURVE",
"192 528 CURVE",
"214 554 OFFCURVE",
"245 569 OFFCURVE",
"286 569 CURVE SMOOTH",
"343 569 OFFCURVE",
"389 539 OFFCURVE",
"389 468 CURVE SMOOTH",
"389 378 OFFCURVE",
"317 317 OFFCURVE",
"240 251 CURVE SMOOTH",
"165 185 OFFCURVE",
"84 116 OFFCURVE",
"61 12 CURVE",
"95 -10 LINE {name = hr01;}",
"96 -9 LINE",
"95 -10 LINE",
"133 3 OFFCURVE",
"176 9 OFFCURVE",
"221 9 CURVE SMOOTH",
"265 9 OFFCURVE",
"299 4 OFFCURVE",
"331 -1 CURVE SMOOTH",
"360 -6 OFFCURVE",
"389 -9 OFFCURVE",
"422 -9 CURVE SMOOTH {name = hr02;}",
"560 -9 OFFCURVE",
"601 59 OFFCURVE",
"601 115 CURVE SMOOTH",
"601 150 OFFCURVE",
"584 183 OFFCURVE",
"563 199 CURVE"
);
}
);
width = 669;
}
);
leftKerningGroup = two;
rightKerningGroup = two;
},
{
color = 9;
glyphname = three.dnom;
lastChange = "2018-06-05 02:49:18 +0000";
layers = (
{
layerId = "184835E3-72D9-430C-A639-2454AC4A0BE8";
paths = (
{
closed = 1;
nodes = (
"528 363 OFFCURVE",
"573 411 OFFCURVE",
"573 486 CURVE SMOOTH {name = hr00;}",
"573 575 OFFCURVE",
"470 628 OFFCURVE",
"327 628 CURVE SMOOTH",
"194 628 OFFCURVE",
"85 581 OFFCURVE",
"85 500 CURVE SMOOTH",
"85 458 OFFCURVE",
"114 428 OFFCURVE",
"165 428 CURVE SMOOTH",
"217 428 OFFCURVE",
"243 458 OFFCURVE",
"243 484 CURVE SMOOTH",
"243 506 OFFCURVE",
"223 526 OFFCURVE",
"206 532 CURVE",
"227 555 OFFCURVE",
"258 566 OFFCURVE",
"291 565 CURVE SMOOTH",
"355 566 OFFCURVE",
"390 530 OFFCURVE",
"390 470 CURVE SMOOTH",
"390 416 OFFCURVE",
"360 352 OFFCURVE",
"230 322 CURVE",
"249 276 LINE",
"291 276 LINE SMOOTH",
"382 276 OFFCURVE",
"435 225 OFFCURVE",
"435 163 CURVE SMOOTH",
"435 101 OFFCURVE",
"381 62 OFFCURVE",
"301 61 CURVE SMOOTH",
"260 62 OFFCURVE",
"219 71 OFFCURVE",
"203 85 CURVE",
"223 100 OFFCURVE",
"230 117 OFFCURVE",
"230 133 CURVE SMOOTH",
"230 164 OFFCURVE",
"200 191 OFFCURVE",
"153 190 CURVE SMOOTH",
"107 191 OFFCURVE",
"71 166 OFFCURVE",
"71 116 CURVE SMOOTH",
"71 33 OFFCURVE",
"176 -18 OFFCURVE",
"320 -18 CURVE SMOOTH",
"498 -18 OFFCURVE",
"623 59 OFFCURVE",
"623 168 CURVE SMOOTH",
"623 254 OFFCURVE",
"549 316 OFFCURVE",
"436 331 CURVE"
);
}
);
width = 678;
}
);
leftKerningGroup = three;
rightKerningGroup = three;
},
{
color = 9;
glyphname = four.dnom;
lastChange = "2018-06-05 02:49:18 +0000";
layers = (
{
layerId = "184835E3-72D9-430C-A639-2454AC4A0BE8";
paths = (
{
closed = 1;
nodes = (
"586 273 OFFCURVE",
"548 249 OFFCURVE",
"492 249 CURVE SMOOTH",
"150 249 LINE",
"381 576 LINE",
"439 638 LINE",
"339 638 LINE",
"5 219 LINE",
"32 176 LINE",
"466 176 LINE SMOOTH",
"622 176 OFFCURVE",
"669 211 OFFCURVE",
"669 261 CURVE SMOOTH",
"669 287 OFFCURVE",
"651 309 OFFCURVE",
"628 315 CURVE",
"604 315 LINE {name = hr00;}"
);
},
{
closed = 1;
nodes = (
"322 69 OFFCURVE",
"275 57 OFFCURVE",
"209 57 CURVE",
"209 40 OFFCURVE",
"217 17 OFFCURVE",
"233 5 CURVE",
"576 5 LINE",
"591 17 OFFCURVE",
"600 40 OFFCURVE",
"600 57 CURVE",
"528 57 OFFCURVE",
"492 69 OFFCURVE",
"492 106 CURVE SMOOTH",
"492 638 LINE",
"439 638 LINE",
"322 569 LINE",
"322 106 LINE SMOOTH"
);
}
);
width = 719;
}
);
leftKerningGroup = four;
rightKerningGroup = four;
},
{
color = 9;
glyphname = five.dnom;
lastChange = "2018-06-05 02:49:18 +0000";
layers = (
{
layerId = "184835E3-72D9-430C-A639-2454AC4A0BE8";
paths = (
{
closed = 1;
nodes = (
"301 372 OFFCURVE",
"258 361 OFFCURVE",
"225 349 CURVE",
"249 532 LINE",
"321 526 OFFCURVE",
"345 478 OFFCURVE",
"438 478 CURVE SMOOTH",
"523 478 OFFCURVE",
"575 521 OFFCURVE",
"575 576 CURVE SMOOTH",
"575 603 OFFCURVE",
"562 628 OFFCURVE",
"544 640 CURVE",
"520 640 LINE",
"487 622 OFFCURVE",
"438 612 OFFCURVE",
"362 612 CURVE SMOOTH",
"125 612 LINE",
"111 313 LINE",
"150 273 LINE",
"182 285 OFFCURVE",
"229 292 OFFCURVE",
"268 292 CURVE SMOOTH",
"354 292 OFFCURVE",
"420 253 OFFCURVE",
"420 177 CURVE SMOOTH",
"420 108 OFFCURVE",
"366 59 OFFCURVE",
"272 59 CURVE SMOOTH",
"240 59 OFFCURVE",
"212 64 OFFCURVE",
"196 71 CURVE",
"227 87 OFFCURVE",
"239 103 OFFCURVE",
"239 126 CURVE SMOOTH",
"239 163 OFFCURVE",
"203 192 OFFCURVE",
"156 192 CURVE SMOOTH",
"108 192 OFFCURVE",
"67 161 OFFCURVE",
"67 112 CURVE SMOOTH",
"67 37 OFFCURVE",
"162 -16 OFFCURVE",
"309 -16 CURVE SMOOTH",
"504 -16 OFFCURVE",
"608 79 OFFCURVE",
"608 189 CURVE SMOOTH",
"608 297 OFFCURVE",
"506 372 OFFCURVE",
"355 372 CURVE SMOOTH"
);
}
);
width = 676;
}
);
leftKerningGroup = five;
rightKerningGroup = five;
},
{
color = 9;
glyphname = six.dnom;
lastChange = "2018-06-05 02:49:18 +0000";
layers = (
{
layerId = "184835E3-72D9-430C-A639-2454AC4A0BE8";
paths = (
{
closed = 1;
nodes = (
"343 382 OFFCURVE",
"290 365 OFFCURVE",
"252 336 CURVE",
"252 339 OFFCURVE",
"252 342 OFFCURVE",
"252 346 CURVE SMOOTH",
"252 508 OFFCURVE",
"317 567 OFFCURVE",
"393 567 CURVE SMOOTH {name = hr00;}",
"425 567 OFFCURVE",
"455 556 OFFCURVE",
"472 539 CURVE",
"449 528 OFFCURVE",
"435 506 OFFCURVE",
"435 484 CURVE SMOOTH",
"435 446 OFFCURVE",
"470 417 OFFCURVE",
"519 417 CURVE SMOOTH",
"574 417 OFFCURVE",
"606 453 OFFCURVE",
"606 498 CURVE SMOOTH",
"606 578 OFFCURVE",
"509 630 OFFCURVE",
"388 630 CURVE SMOOTH",
"213 630 OFFCURVE",
"69 523 OFFCURVE",
"69 295 CURVE SMOOTH",
"69 85 OFFCURVE",
"188 -16 OFFCURVE",
"359 -16 CURVE SMOOTH",
"526 -16 OFFCURVE",
"631 81 OFFCURVE",
"631 199 CURVE SMOOTH",
"631 312 OFFCURVE",
"534 382 OFFCURVE",
"407 382 CURVE SMOOTH"
);
},
{
closed = 1;
nodes = (
"306 51 OFFCURVE",
"251 96 OFFCURVE",
"251 226 CURVE SMOOTH",
"251 238 OFFCURVE",
"251 250 OFFCURVE",
"252 264 CURVE",
"271 294 OFFCURVE",
"309 309 OFFCURVE",
"353 309 CURVE SMOOTH",
"413 309 OFFCURVE",
"457 280 OFFCURVE",
"457 185 CURVE SMOOTH",
"457 91 OFFCURVE",
"414 51 OFFCURVE",
"362 51 CURVE SMOOTH"
);
}
);
width = 702;
}
);
leftKerningGroup = six;
rightKerningGroup = six;
},
{
color = 9;
glyphname = seven.dnom;
lastChange = "2018-06-05 02:49:18 +0000";
layers = (
{
layerId = "184835E3-72D9-430C-A639-2454AC4A0BE8";
paths = (
{
closed = 1;
nodes = (
"571 634 LINE",
"533 612 OFFCURVE",
"482 603 OFFCURVE",
"435 603 CURVE SMOOTH",
"344 603 OFFCURVE",
"280 636 OFFCURVE",
"184 636 CURVE SMOOTH {name = hr02;}",
"73 636 OFFCURVE",
"30 591 OFFCURVE",
"30 531 CURVE SMOOTH",
"30 486 OFFCURVE",
"56 455 OFFCURVE",
"83 437 CURVE",
"112 437 LINE",
"137 476 OFFCURVE",
"184 499 OFFCURVE",
"256 499 CURVE SMOOTH",
"299 499 LINE SMOOTH",
"367 499 OFFCURVE",
"422 507 OFFCURVE",
"465 519 CURVE",
"290 332 OFFCURVE",
"218 177 OFFCURVE",
"194 3 CURVE",
"217 -12 OFFCURVE",
"258 -14 OFFCURVE",
"286 -14 CURVE SMOOTH",
"392 -14 OFFCURVE",
"397 26 OFFCURVE",
"401 55 CURVE SMOOTH",
"416 213 OFFCURVE",
"401 364 OFFCURVE",
"609 591 CURVE",
"572 636 LINE {name = hr01;}"
);
}
);
width = 629;
}
);
leftKerningGroup = seven;
rightKerningGroup = seven;
userData = {
com.typemytype.robofont.guides = (
{
angle = 0;
isGlobal = 0;
magnetic = 5;
x = 0;
y = -32;
}
);
};
},
{
color = 9;
glyphname = eight.dnom;
lastChange = "2018-06-05 02:49:18 +0000";
layers = (
{
layerId = "184835E3-72D9-430C-A639-2454AC4A0BE8";
paths = (
{
closed = 1;
nodes = (
"519 385 OFFCURVE",
"564 433 OFFCURVE",
"564 490 CURVE SMOOTH",
"564 555 OFFCURVE",
"506 630 OFFCURVE",
"343 630 CURVE SMOOTH",
"180 630 OFFCURVE",
"92 554 OFFCURVE",
"92 461 CURVE SMOOTH",
"92 394 OFFCURVE",
"138 348 OFFCURVE",
"201 308 CURVE",
"121 278 OFFCURVE",
"68 220 OFFCURVE",
"68 151 CURVE SMOOTH",
"68 67 OFFCURVE",
"147 -16 OFFCURVE",
"325 -16 CURVE SMOOTH",
"502 -16 OFFCURVE",
"609 65 OFFCURVE",
"609 171 CURVE SMOOTH",
"609 243 OFFCURVE",
"560 302 OFFCURVE",
"454 354 CURVE"
);
},
{
closed = 1;
nodes = (
"417 567 OFFCURVE",
"447 529 OFFCURVE",
"447 486 CURVE SMOOTH",
"447 447 OFFCURVE",
"423 413 OFFCURVE",
"378 385 CURVE",
"281 425 OFFCURVE",
"256 459 OFFCURVE",
"256 496 CURVE SMOOTH",
"256 538 OFFCURVE",
"293 567 OFFCURVE",
"351 567 CURVE SMOOTH"
);
},
{
closed = 1;
nodes = (
"246 50 OFFCURVE",
"198 102 OFFCURVE",
"198 163 CURVE SMOOTH",
"198 208 OFFCURVE",
"224 248 OFFCURVE",
"271 270 CURVE",
"396 229 OFFCURVE",
"435 188 OFFCURVE",
"435 139 CURVE SMOOTH",
"435 89 OFFCURVE",
"394 50 OFFCURVE",
"324 50 CURVE SMOOTH"
);
}
);
width = 677;
}
);
leftKerningGroup = eight;
rightKerningGroup = eight;
},
{
color = 9;
glyphname = nine.dnom;
lastChange = "2018-06-05 02:49:18 +0000";
layers = (
{
layerId = "184835E3-72D9-430C-A639-2454AC4A0BE8";
paths = (
{
closed = 1;
nodes = (
"174 719 OFFCURVE",
"83 623 OFFCURVE",
"83 507 CURVE SMOOTH",
"83 390 OFFCURVE",
"178 321 OFFCURVE",
"309 321 CURVE SMOOTH",
"370 321 OFFCURVE",
"422 335 OFFCURVE",
"459 361 CURVE",
"459 339 LINE SMOOTH",
"459 193 OFFCURVE",
"402 141 OFFCURVE",
"319 141 CURVE SMOOTH {name = hr00;}",
"285 141 OFFCURVE",
"260 150 OFFCURVE",
"239 173 CURVE",
"273 183 OFFCURVE",
"285 204 OFFCURVE",
"285 228 CURVE SMOOTH",
"285 269 OFFCURVE",
"246 290 OFFCURVE",
"203 290 CURVE SMOOTH",
"149 290 OFFCURVE",
"114 257 OFFCURVE",
"114 209 CURVE SMOOTH",
"114 128 OFFCURVE",
"215 73 OFFCURVE",
"338 73 CURVE SMOOTH",
"505 73 OFFCURVE",
"643 180 OFFCURVE",
"643 404 CURVE SMOOTH",
"643 419 LINE SMOOTH",
"643 626 OFFCURVE",
"522 719 OFFCURVE",
"348 719 CURVE SMOOTH"
);
},
{
closed = 1;
nodes = (
"303 394 OFFCURVE",
"252 431 OFFCURVE",
"252 524 CURVE SMOOTH",
"252 623 OFFCURVE",
"312 653 OFFCURVE",
"359 653 CURVE SMOOTH",
"408 653 OFFCURVE",
"461 619 OFFCURVE",
"461 461 CURVE SMOOTH",
"461 450 OFFCURVE",
"461 440 OFFCURVE",
"460 428 CURVE",
"442 406 OFFCURVE",
"408 394 OFFCURVE",
"371 394 CURVE SMOOTH"
);
}
);
width = 699;
}
);
leftKerningGroup = nine;
rightKerningGroup = nine;
},
{
color = 9;
glyphname = fraction;
lastChange = "2018-06-05 02:49:21 +0000";
layers = (
{
layerId = "184835E3-72D9-430C-A639-2454AC4A0BE8";
paths = (
{
closed = 1;
nodes = (
"-80 -10 LINE",
"372 1131 LINE",
"271 1131 LINE",
"-180 -11 LINE"
);
}
);
width = 192;
}
);
unicode = 2044;
},
{
color = 9;
glyphname = period;
lastChange = "2018-06-05 02:49:52 +0000";
layers = (
{
layerId = "184835E3-72D9-430C-A639-2454AC4A0BE8";
paths = (
{
closed = 1;
nodes = (
"374 201 OFFCURVE",
"312 261 OFFCURVE",
"219 261 CURVE SMOOTH",
"125 261 OFFCURVE",
"63 201 OFFCURVE",
"63 109 CURVE SMOOTH",
"63 17 OFFCURVE",
"125 -44 OFFCURVE",
"219 -44 CURVE SMOOTH",
"312 -44 OFFCURVE",
"374 17 OFFCURVE",
"374 109 CURVE SMOOTH {name = hr00;}"
);
}
);
width = 437;
}
);
leftKerningGroup = period;
rightKerningGroup = period;
unicode = 002E;
},
{
color = 9;
glyphname = comma;
lastChange = "2018-06-05 02:49:52 +0000";
layers = (
{
layerId = "184835E3-72D9-430C-A639-2454AC4A0BE8";
paths = (
{
closed = 1;
nodes = (
"258 -449 OFFCURVE",
"393 -301 OFFCURVE",
"393 -102 CURVE SMOOTH",
"393 49 OFFCURVE",
"315 125 OFFCURVE",
"213 125 CURVE SMOOTH",
"124 125 OFFCURVE",
"61 65 OFFCURVE",
"61 -28 CURVE SMOOTH",
"61 -101 OFFCURVE",
"111 -170 OFFCURVE",
"204 -170 CURVE SMOOTH",
"212 -170 OFFCURVE",
"220 -169 OFFCURVE",
"228 -168 CURVE",
"229 -176 OFFCURVE",
"230 -182 OFFCURVE",
"230 -188 CURVE SMOOTH",
"230 -272 OFFCURVE",
"168 -361 OFFCURVE",
"74 -413 CURVE",
"74 -446 OFFCURVE",
"98 -479 OFFCURVE",
"123 -486 CURVE {name = hr00;}"
);
}
);
width = 456;
}
);
leftKerningGroup = period;
rightKerningGroup = period;
unicode = 002C;
},
{
color = 9;
glyphname = exclam;
lastChange = "2018-06-05 02:49:52 +0000";
layers = (
{
layerId = "184835E3-72D9-430C-A639-2454AC4A0BE8";
paths = (
{
closed = 1;
nodes = (
"381 230 OFFCURVE",
"319 290 OFFCURVE",
"225 290 CURVE SMOOTH",
"132 290 OFFCURVE",
"70 230 OFFCURVE",
"70 138 CURVE SMOOTH",
"70 46 OFFCURVE",
"132 -15 OFFCURVE",
"225 -15 CURVE SMOOTH",
"319 -15 OFFCURVE",
"381 46 OFFCURVE",
"381 138 CURVE SMOOTH {name = hr00;}"
);
},
{
closed = 1;
nodes = (
"365 1080 LINE SMOOTH",
"367 1092 OFFCURVE",
"367 1103 OFFCURVE",
"367 1113 CURVE SMOOTH",
"367 1186 OFFCURVE",
"328 1217 OFFCURVE",
"258 1217 CURVE SMOOTH",
"192 1217 LINE SMOOTH",
"123 1217 OFFCURVE",
"84 1186 OFFCURVE",
"84 1113 CURVE SMOOTH",
"84 1103 OFFCURVE",
"84 1092 OFFCURVE",
"86 1080 CURVE SMOOTH",
"162 479 LINE",
"288 479 LINE"
);
}
);
width = 451;
}
);
leftKerningGroup = exclam;
rightKerningGroup = exclam;
unicode = 0021;
userData = {
com.typemytype.robofont.guides = (
{
angle = 90;
isGlobal = 0;
magnetic = 5;
x = 429;
y = 0;
}
);
};
},
{
color = 9;
glyphname = exclamdown;
lastChange = "2018-06-05 02:49:52 +0000";
layers = (
{
layerId = "184835E3-72D9-430C-A639-2454AC4A0BE8";
paths = (
{
closed = 1;
nodes = (
"70 667 OFFCURVE",
"132 607 OFFCURVE",
"226 607 CURVE SMOOTH",
"319 607 OFFCURVE",
"381 667 OFFCURVE",
"381 759 CURVE SMOOTH",
"381 851 OFFCURVE",
"319 912 OFFCURVE",
"226 912 CURVE SMOOTH",
"132 912 OFFCURVE",
"70 851 OFFCURVE",
"70 759 CURVE SMOOTH {name = hr00;}"
);
},
{
closed = 1;
nodes = (
"86 -183 LINE SMOOTH",
"85 -195 OFFCURVE",
"84 -206 OFFCURVE",
"84 -216 CURVE SMOOTH",
"84 -289 OFFCURVE",
"123 -320 OFFCURVE",
"193 -320 CURVE SMOOTH",
"259 -320 LINE SMOOTH",
"328 -320 OFFCURVE",
"367 -289 OFFCURVE",
"367 -216 CURVE SMOOTH",
"367 -206 OFFCURVE",
"367 -195 OFFCURVE",
"365 -183 CURVE SMOOTH",
"289 418 LINE",
"163 418 LINE"
);
}
);
width = 451;
}
);
leftKerningGroup = exclamdown;
rightKerningGroup = exclamdown;
unicode = 00A1;
},
{
color = 9;
glyphname = question;
lastChange = "2018-06-05 02:49:52 +0000";
layers = (
{
layerId = "184835E3-72D9-430C-A639-2454AC4A0BE8";
paths = (
{
closed = 1;
nodes = (
"591 243 OFFCURVE",
"530 303 OFFCURVE",
"436 303 CURVE SMOOTH",
"342 303 OFFCURVE",
"281 243 OFFCURVE",
"281 151 CURVE SMOOTH",
"281 59 OFFCURVE",
"342 -2 OFFCURVE",
"436 -2 CURVE SMOOTH",
"530 -2 OFFCURVE",
"591 59 OFFCURVE",
"591 151 CURVE SMOOTH {name = hr00;}"
);
},
{
closed = 1;
nodes = (
"205 1224 OFFCURVE",
"56 1088 OFFCURVE",
"56 939 CURVE SMOOTH",
"56 828 OFFCURVE",
"140 771 OFFCURVE",
"214 771 CURVE SMOOTH",
"284 771 OFFCURVE",
"351 824 OFFCURVE",
"351 899 CURVE SMOOTH",
"351 965 OFFCURVE",
"298 1008 OFFCURVE",
"247 1026 CURVE",
"278 1077 OFFCURVE",
"335 1106 OFFCURVE",
"398 1106 CURVE SMOOTH",
"477 1106 OFFCURVE",
"538 1060 OFFCURVE",
"538 947 CURVE SMOOTH",
"538 805 OFFCURVE",
"440 702 OFFCURVE",
"313 624 CURVE",
"354 428 LINE",
"501 428 LINE",
"473 588 LINE",
"661 658 OFFCURVE",
"812 777 OFFCURVE",
"812 945 CURVE SMOOTH",
"812 1109 OFFCURVE",
"668 1224 OFFCURVE",
"446 1224 CURVE SMOOTH"
);
}
);
width = 868;
}
);
leftKerningGroup = question;
rightKerningGroup = question;
unicode = 003F;
},
{
color = 9;
glyphname = questiondown;
lastChange = "2018-06-05 02:49:52 +0000";
layers = (
{
layerId = "184835E3-72D9-430C-A639-2454AC4A0BE8";
paths = (
{
closed = 1;
nodes = (
"663 -321 OFFCURVE",
"812 -185 OFFCURVE",
"812 -36 CURVE SMOOTH",
"812 75 OFFCURVE",
"728 132 OFFCURVE",
"654 132 CURVE SMOOTH",
"584 132 OFFCURVE",
"517 79 OFFCURVE",
"517 4 CURVE SMOOTH",
"517 -62 OFFCURVE",
"570 -105 OFFCURVE",
"621 -123 CURVE",
"590 -174 OFFCURVE",
"533 -203 OFFCURVE",
"470 -203 CURVE SMOOTH",
"391 -203 OFFCURVE",
"330 -157 OFFCURVE",
"330 -44 CURVE SMOOTH",
"330 98 OFFCURVE",
"428 201 OFFCURVE",
"555 279 CURVE",
"514 475 LINE",
"367 475 LINE",
"395 315 LINE",
"207 245 OFFCURVE",
"56 126 OFFCURVE",
"56 -42 CURVE SMOOTH",
"56 -206 OFFCURVE",
"200 -321 OFFCURVE",
"422 -321 CURVE SMOOTH"
);
},
{
closed = 1;
nodes = (
"250 667 OFFCURVE",
"312 607 OFFCURVE",
"406 607 CURVE SMOOTH",
"499 607 OFFCURVE",
"561 667 OFFCURVE",
"561 759 CURVE SMOOTH",
"561 851 OFFCURVE",
"499 912 OFFCURVE",
"406 912 CURVE SMOOTH",
"312 912 OFFCURVE",
"250 851 OFFCURVE",
"250 759 CURVE SMOOTH {name = hr00;}"
);
}
);
width = 868;
}
);
leftKerningGroup = questiondown;
rightKerningGroup = questiondown;
unicode = 00BF;
},
{
color = 9;
glyphname = periodcentered;
lastChange = "2018-06-05 02:49:52 +0000";
layers = (
{
layerId = "184835E3-72D9-430C-A639-2454AC4A0BE8";
paths = (
{
closed = 1;
nodes = (
"374 678 OFFCURVE",
"312 738 OFFCURVE",
"219 738 CURVE SMOOTH",
"125 738 OFFCURVE",
"63 678 OFFCURVE",
"63 586 CURVE SMOOTH",
"63 494 OFFCURVE",
"125 433 OFFCURVE",
"219 433 CURVE SMOOTH",
"312 433 OFFCURVE",
"374 494 OFFCURVE",
"374 586 CURVE SMOOTH {name = hr00;}"
);
}
);
width = 437;
}
);
leftKerningGroup = anoteleia;
rightKerningGroup = anoteleia;
unicode = 00B7;
},
{
color = 9;
glyphname = bullet;
lastChange = "2018-06-05 02:49:52 +0000";
layers = (
{
layerId = "184835E3-72D9-430C-A639-2454AC4A0BE8";
paths = (
{
closed = 1;
nodes = (
"560 733 OFFCURVE",
"465 827 OFFCURVE",
"318 827 CURVE SMOOTH",
"171 827 OFFCURVE",
"77 733 OFFCURVE",
"77 590 CURVE SMOOTH",
"77 447 OFFCURVE",
"171 352 OFFCURVE",
"318 352 CURVE SMOOTH",
"465 352 OFFCURVE",
"560 447 OFFCURVE",
"560 590 CURVE SMOOTH {name = hr00;}"
);
}
);
width = 637;
}
);
leftKerningGroup = bullet;
rightKerningGroup = bullet;
unicode = 2022;
},
{
color = 9;
glyphname = asterisk;
lastChange = "2018-06-05 02:49:52 +0000";
layers = (
{
layerId = "184835E3-72D9-430C-A639-2454AC4A0BE8";
paths = (
{
closed = 1;
nodes = (
"380 1466 OFFCURVE",
"344 1419 OFFCURVE",
"344 1362 CURVE SMOOTH",
"344 1343 OFFCURVE",
"348 1323 OFFCURVE",
"356 1303 CURVE SMOOTH",
"448 1069 LINE",
"518 1069 LINE",
"518 1466 LINE",
"457 1466 LINE SMOOTH {name = hr01;}"
);
},
{
closed = 1;
nodes = (
"98 1170 OFFCURVE",
"95 1155 OFFCURVE",
"95 1142 CURVE SMOOTH",
"95 1073 OFFCURVE",
"156 1035 OFFCURVE",
"227 1040 CURVE SMOOTH",
"478 1055 LINE",
"499 1121 LINE",
"122 1244 LINE",
"102 1186 LINE SMOOTH"
);
},
{
closed = 1;
nodes = (
"290 740 OFFCURVE",
"315 732 OFFCURVE",
"336 732 CURVE SMOOTH",
"387 732 OFFCURVE",
"428 775 OFFCURVE",
"443 832 CURVE SMOOTH",
"507 1076 LINE",
"450 1116 LINE",
"216 795 LINE",
"265 759 LINE SMOOTH"
);
},
{
closed = 1;
nodes = (
"762 817 OFFCURVE",
"778 848 OFFCURVE",
"778 878 CURVE SMOOTH",
"778 917 OFFCURVE",
"753 956 OFFCURVE",
"712 982 CURVE SMOOTH",
"500 1118 LINE {name = hr02;}",
"444 1077 LINE",
"678 756 LINE",
"726 791 LINE SMOOTH"
);
},
{
closed = 1;
nodes = (
"810 1288 OFFCURVE",
"772 1313 OFFCURVE",
"731 1313 CURVE SMOOTH",
"701 1313 OFFCURVE",
"669 1300 OFFCURVE",
"642 1277 CURVE SMOOTH",
"447 1117 LINE",
"469 1051 LINE",
"846 1175 LINE",
"828 1231 LINE SMOOTH"
);
}
);
width = 941;
}
);
leftKerningGroup = asterisk;
rightKerningGroup = asterisk;
unicode = 002A;
},
{
color = 9;
glyphname = numbersign;
lastChange = "2018-06-05 02:49:52 +0000";
layers = (
{
layerId = "184835E3-72D9-430C-A639-2454AC4A0BE8";
paths = (
{
closed = 1;
nodes = (
"296 -1 OFFCURVE",
"344 7 OFFCURVE",
"381 22 CURVE",
"533 1096 LINE",
"488 1096 OFFCURVE",
"439 1088 OFFCURVE",
"404 1074 CURVE",
"251 -1 LINE {name = hr00;}"
);
},
{
closed = 1;
nodes = (
"614 -1 OFFCURVE",
"662 7 OFFCURVE",
"699 22 CURVE",
"851 1096 LINE",
"806 1096 OFFCURVE",
"758 1088 OFFCURVE",
"723 1074 CURVE",
"569 -1 LINE"
);
},
{
closed = 1;
nodes = (
"949 348 OFFCURVE",
"964 395 OFFCURVE",
"970 439 CURVE",
"145 441 LINE",
"125 406 OFFCURVE",
"109 360 OFFCURVE",
"103 315 CURVE",
"929 316 LINE"
);
},
{
closed = 1;
nodes = (
"993 685 OFFCURVE",
"1009 730 OFFCURVE",
"1015 775 CURVE",
"189 776 LINE",
"170 742 OFFCURVE",
"154 695 OFFCURVE",
"148 651 CURVE",
"973 651 LINE"
);
}
);
width = 1118;
}
);
leftKerningGroup = numbersign;
rightKerningGroup = numbersign;
unicode = 0023;
},
{
color = 9;
glyphname = slash;
lastChange = "2018-06-05 02:49:52 +0000";
layers = (
{
layerId = "184835E3-72D9-430C-A639-2454AC4A0BE8";
paths = (
{
closed = 1;
nodes = (
"126 -185 OFFCURVE",
"194 -207 OFFCURVE",
"232 -208 CURVE",
"693 1214 LINE",
"662 1243 OFFCURVE",
"595 1264 OFFCURVE",
"557 1266 CURVE",
"95 -157 LINE {name = hr00;}"
);
}
);
width = 789;
}
);
leftKerningGroup = slash;
rightKerningGroup = slash;
unicode = 002F;
},
{
color = 9;
glyphname = backslash;
lastChange = "2018-06-05 02:49:52 +0000";
layers = (
{
layerId = "184835E3-72D9-430C-A639-2454AC4A0BE8";
paths = (
{
closed = 1;
nodes = (
"227 1200 LINE",
"101 1152 LINE",
"526 -160 LINE",
"652 -113 LINE {name = hr00;}"
);
}
);
width = 754;
}
);
leftKerningGroup = backslash;
rightKerningGroup = backslash;
unicode = 005C;
},
{
color = 9;
glyphname = periodcentered.case;
lastChange = "2018-06-05 02:49:52 +0000";
layers = (
{
layerId = "184835E3-72D9-430C-A639-2454AC4A0BE8";
paths = (
{
closed = 1;
nodes = (
"374 768 OFFCURVE",
"312 828 OFFCURVE",
"219 828 CURVE SMOOTH",
"125 828 OFFCURVE",
"63 768 OFFCURVE",
"63 676 CURVE SMOOTH",
"63 584 OFFCURVE",
"125 523 OFFCURVE",
"219 523 CURVE SMOOTH",
"312 523 OFFCURVE",
"374 584 OFFCURVE",
"374 676 CURVE SMOOTH {name = hr00;}"
);
}
);
width = 437;
}
);
},
{
color = 9;
glyphname = bullet.case;
lastChange = "2018-06-05 02:49:52 +0000";
layers = (
{
layerId = "184835E3-72D9-430C-A639-2454AC4A0BE8";
paths = (
{
closed = 1;
nodes = (
"560 803 OFFCURVE",
"465 897 OFFCURVE",
"318 897 CURVE SMOOTH",
"171 897 OFFCURVE",
"77 803 OFFCURVE",
"77 660 CURVE SMOOTH",
"77 517 OFFCURVE",
"171 422 OFFCURVE",
"318 422 CURVE SMOOTH",
"465 422 OFFCURVE",
"560 517 OFFCURVE",
"560 660 CURVE SMOOTH {name = hr00;}"
);
}
);
width = 637;
}
);
},
{
color = 9;
glyphname = periodcentered.loclCAT.case;
lastChange = "2018-06-05 02:49:52 +0000";
layers = (
{
layerId = "184835E3-72D9-430C-A639-2454AC4A0BE8";
paths = (
{
closed = 1;
nodes = (
"374 768 OFFCURVE",
"312 828 OFFCURVE",
"219 828 CURVE SMOOTH",
"125 828 OFFCURVE",
"63 768 OFFCURVE",
"63 676 CURVE SMOOTH",
"63 584 OFFCURVE",
"125 523 OFFCURVE",
"219 523 CURVE SMOOTH",
"312 523 OFFCURVE",
"374 584 OFFCURVE",
"374 676 CURVE SMOOTH {name = hr00;}"
);
}
);
width = 437;
}
);
},
{
color = 9;
glyphname = slash.case;
lastChange = "2018-06-05 02:49:52 +0000";
layers = (
{
layerId = "184835E3-72D9-430C-A639-2454AC4A0BE8";
paths = (
{
closed = 1;
nodes = (
"126 -185 OFFCURVE",
"194 -207 OFFCURVE",
"232 -208 CURVE",
"693 1214 LINE",
"662 1243 OFFCURVE",
"595 1264 OFFCURVE",
"557 1266 CURVE",
"95 -157 LINE {name = hr00;}"
);
}
);
width = 789;
}
);
},
{
color = 9;
glyphname = backslash.case;
lastChange = "2018-06-05 02:49:52 +0000";
layers = (
{
layerId = "184835E3-72D9-430C-A639-2454AC4A0BE8";
paths = (
{
closed = 1;
nodes = (
"227 1200 LINE",
"101 1152 LINE",
"526 -160 LINE",
"652 -113 LINE {name = hr00;}"
);
}
);
width = 754;
}
);
},
{
color = 9;
glyphname = periodcentered.loclCAT;
lastChange = "2018-06-05 02:49:52 +0000";
layers = (
{
layerId = "184835E3-72D9-430C-A639-2454AC4A0BE8";
paths = (
{
closed = 1;
nodes = (
"374 768 OFFCURVE",
"312 828 OFFCURVE",
"219 828 CURVE SMOOTH",
"125 828 OFFCURVE",
"63 768 OFFCURVE",
"63 676 CURVE SMOOTH",
"63 584 OFFCURVE",
"125 523 OFFCURVE",
"219 523 CURVE SMOOTH",
"312 523 OFFCURVE",
"374 584 OFFCURVE",
"374 676 CURVE SMOOTH {name = hr00;}"
);
}
);
width = 437;
}
);
},
{
color = 9;
glyphname = parenleft;
lastChange = "2018-06-05 02:49:52 +0000";
layers = (
{
layerId = "184835E3-72D9-430C-A639-2454AC4A0BE8";
paths = (
{
closed = 1;
nodes = (
"342 853 OFFCURVE",
"461 1163 OFFCURVE",
"646 1214 CURVE",
"646 1277 LINE",
"301 1265 OFFCURVE",
"88 928 OFFCURVE",
"88 577 CURVE SMOOTH",
"88 226 OFFCURVE",
"301 -111 OFFCURVE",
"646 -123 CURVE",
"646 -61 LINE",
"461 -9 OFFCURVE",
"342 301 OFFCURVE",
"342 577 CURVE SMOOTH {name = hr00;}"
);
}
);
width = 701;
}
);
leftKerningGroup = parenleft;
rightKerningGroup = parenleft;
unicode = 0028;
},
{
color = 9;
glyphname = parenright;
lastChange = "2018-06-05 02:49:52 +0000";
layers = (
{
layerId = "184835E3-72D9-430C-A639-2454AC4A0BE8";
paths = (
{
closed = 1;
nodes = (
"341 313 OFFCURVE",
"231 27 OFFCURVE",
"60 -21 CURVE",
"60 -78 LINE",
"379 -68 OFFCURVE",
"575 243 OFFCURVE",
"575 567 CURVE SMOOTH",
"575 891 OFFCURVE",
"379 1202 OFFCURVE",
"60 1213 CURVE",
"60 1155 LINE",
"231 1107 OFFCURVE",
"341 822 OFFCURVE",
"341 567 CURVE SMOOTH {name = hr00;}"
);
}
);
width = 669;
}
);
leftKerningGroup = parenright;
rightKerningGroup = parenright;
unicode = 0029;
},
{
color = 9;
glyphname = braceleft;
lastChange = "2018-06-05 02:49:52 +0000";
layers = (
{
layerId = "184835E3-72D9-430C-A639-2454AC4A0BE8";
paths = (
{
closed = 1;
nodes = (
"383 612 OFFCURVE",
"448 683 OFFCURVE",
"448 786 CURVE SMOOTH",
"448 963 LINE SMOOTH",
"448 1116 OFFCURVE",
"515 1162 OFFCURVE",
"620 1162 CURVE SMOOTH",
"676 1162 LINE",
"693 1192 OFFCURVE",
"701 1220 OFFCURVE",
"701 1252 CURVE",
"616 1252 LINE SMOOTH",
"326 1252 OFFCURVE",
"194 1109 OFFCURVE",
"194 873 CURVE SMOOTH",
"194 738 LINE SMOOTH",
"194 658 OFFCURVE",
"135 599 OFFCURVE",
"77 599 CURVE",
"77 531 LINE",
"135 531 OFFCURVE",
"194 472 OFFCURVE",
"194 393 CURVE SMOOTH",
"194 257 LINE SMOOTH",
"194 21 OFFCURVE",
"326 -122 OFFCURVE",
"616 -122 CURVE SMOOTH",
"701 -122 LINE",
"701 -90 OFFCURVE",
"693 -62 OFFCURVE",
"676 -32 CURVE",
"620 -32 LINE SMOOTH",
"515 -32 OFFCURVE",
"448 14 OFFCURVE",
"448 167 CURVE SMOOTH",
"448 344 LINE SMOOTH",
"448 447 OFFCURVE",
"383 518 OFFCURVE",
"257 565 CURVE {name = hr00;}"
);
}
);
width = 760;
}
);
leftKerningGroup = braceleft;
rightKerningGroup = braceleft;
unicode = 007B;
userData = {
com.typemytype.robofont.guides = (
{
angle = 0;
isGlobal = 0;
magnetic = 5;
x = 0;
y = 934;
}
);
};
},
{
color = 9;
glyphname = braceright;
lastChange = "2018-06-05 02:49:52 +0000";
layers = (
{
layerId = "184835E3-72D9-430C-A639-2454AC4A0BE8";
paths = (
{
closed = 1;
nodes = (
"357 511 OFFCURVE",
"298 447 OFFCURVE",
"298 351 CURVE SMOOTH",
"298 188 LINE SMOOTH",
"298 46 OFFCURVE",
"236 4 OFFCURVE",
"139 4 CURVE SMOOTH",
"87 4 LINE",
"72 -24 OFFCURVE",
"65 -49 OFFCURVE",
"65 -79 CURVE",
"143 -79 LINE SMOOTH",
"410 -79 OFFCURVE",
"531 54 OFFCURVE",
"531 271 CURVE SMOOTH",
"531 396 LINE SMOOTH",
"531 469 OFFCURVE",
"586 524 OFFCURVE",
"640 524 CURVE",
"640 586 LINE",
"586 586 OFFCURVE",
"531 641 OFFCURVE",
"531 715 CURVE SMOOTH",
"531 839 LINE SMOOTH",
"531 1057 OFFCURVE",
"410 1189 OFFCURVE",
"143 1189 CURVE SMOOTH",
"65 1189 LINE",
"65 1159 OFFCURVE",
"72 1133 OFFCURVE",
"87 1106 CURVE",
"139 1106 LINE SMOOTH",
"236 1106 OFFCURVE",
"298 1063 OFFCURVE",
"298 922 CURVE SMOOTH",
"298 759 LINE SMOOTH",
"298 664 OFFCURVE",
"357 598 OFFCURVE",
"474 555 CURVE {name = hr00;}"
);
}
);
width = 724;
}
);
leftKerningGroup = braceright;
rightKerningGroup = braceright;
unicode = 007D;
},
{
color = 9;
glyphname = bracketleft;
lastChange = "2018-06-05 02:49:53 +0000";
layers = (
{
layerId = "184835E3-72D9-430C-A639-2454AC4A0BE8";
paths = (
{
closed = 1;
nodes = (
"465 1161 LINE",
"482 1196 OFFCURVE",
"489 1227 OFFCURVE",
"489 1266 CURVE",
"80 1266 LINE",
"80 -131 LINE",
"489 -131 LINE",
"489 -93 OFFCURVE",
"482 -61 OFFCURVE",
"465 -27 CURVE",
"313 -27 LINE",
"313 1161 LINE {name = hr00;}"
);
}
);
width = 541;
}
);
leftKerningGroup = bracketleft;
rightKerningGroup = bracketleft;
unicode = 005B;
},
{
color = 9;
glyphname = bracketright;
lastChange = "2018-06-05 02:49:53 +0000";
layers = (
{
layerId = "184835E3-72D9-430C-A639-2454AC4A0BE8";
paths = (
{
closed = 1;
nodes = (
"218 10 LINE",
"78 10 LINE",
"62 -22 OFFCURVE",
"55 -51 OFFCURVE",
"55 -86 CURVE",
"433 -86 LINE",
"433 1203 LINE",
"55 1203 LINE",
"55 1167 OFFCURVE",
"62 1138 OFFCURVE",
"78 1106 CURVE",
"218 1106 LINE {name = hr00;}"
);
}
);
width = 517;
}
);
leftKerningGroup = bracketright;
rightKerningGroup = bracketright;
unicode = 005D;
},
{
color = 9;
glyphname = parenright.case;
lastChange = "2018-06-05 02:49:53 +0000";
layers = (
{
layerId = "184835E3-72D9-430C-A639-2454AC4A0BE8";
paths = (
{
closed = 1;
nodes = (
"341 313 OFFCURVE",
"231 27 OFFCURVE",
"60 -21 CURVE",
"60 -78 LINE",
"379 -68 OFFCURVE",
"575 243 OFFCURVE",
"575 567 CURVE SMOOTH",
"575 891 OFFCURVE",
"379 1202 OFFCURVE",
"60 1213 CURVE",
"60 1155 LINE",
"231 1107 OFFCURVE",
"341 822 OFFCURVE",
"341 567 CURVE SMOOTH {name = hr00;}"
);
}
);
width = 537;
}
);
},
{
color = 9;
glyphname = braceleft.case;
lastChange = "2018-06-05 02:49:53 +0000";
layers = (
{
layerId = "184835E3-72D9-430C-A639-2454AC4A0BE8";
paths = (
{
closed = 1;
nodes = (
"383 612 OFFCURVE",
"448 683 OFFCURVE",
"448 786 CURVE SMOOTH",
"448 963 LINE SMOOTH",
"448 1116 OFFCURVE",
"515 1162 OFFCURVE",
"620 1162 CURVE SMOOTH",
"676 1162 LINE",
"693 1192 OFFCURVE",
"701 1220 OFFCURVE",
"701 1252 CURVE",
"616 1252 LINE SMOOTH",
"326 1252 OFFCURVE",
"194 1109 OFFCURVE",
"194 873 CURVE SMOOTH",
"194 738 LINE SMOOTH",
"194 658 OFFCURVE",
"135 599 OFFCURVE",
"77 599 CURVE",
"77 531 LINE",
"135 531 OFFCURVE",
"194 472 OFFCURVE",
"194 393 CURVE SMOOTH",
"194 257 LINE SMOOTH",
"194 21 OFFCURVE",
"326 -122 OFFCURVE",
"616 -122 CURVE SMOOTH",
"701 -122 LINE",
"701 -90 OFFCURVE",
"693 -62 OFFCURVE",
"676 -32 CURVE",
"620 -32 LINE SMOOTH",
"515 -32 OFFCURVE",
"448 14 OFFCURVE",
"448 167 CURVE SMOOTH",
"448 344 LINE SMOOTH",
"448 447 OFFCURVE",
"383 518 OFFCURVE",
"257 565 CURVE {name = hr00;}"
);
}
);
width = 619;
}
);
},
{
color = 9;
glyphname = braceright.case;
lastChange = "2018-06-05 02:49:53 +0000";
layers = (
{
layerId = "184835E3-72D9-430C-A639-2454AC4A0BE8";
paths = (
{
closed = 1;
nodes = (
"357 511 OFFCURVE",
"298 447 OFFCURVE",
"298 351 CURVE SMOOTH",
"298 188 LINE SMOOTH",
"298 46 OFFCURVE",
"236 4 OFFCURVE",
"139 4 CURVE SMOOTH",
"87 4 LINE",
"72 -24 OFFCURVE",
"65 -49 OFFCURVE",
"65 -79 CURVE",
"143 -79 LINE SMOOTH",
"410 -79 OFFCURVE",
"531 54 OFFCURVE",
"531 271 CURVE SMOOTH",
"531 396 LINE SMOOTH",
"531 469 OFFCURVE",
"586 524 OFFCURVE",
"640 524 CURVE",
"640 586 LINE",
"586 586 OFFCURVE",
"531 641 OFFCURVE",
"531 715 CURVE SMOOTH",
"531 839 LINE SMOOTH",
"531 1057 OFFCURVE",
"410 1189 OFFCURVE",
"143 1189 CURVE SMOOTH",
"65 1189 LINE",
"65 1159 OFFCURVE",
"72 1133 OFFCURVE",
"87 1106 CURVE",
"139 1106 LINE SMOOTH",
"236 1106 OFFCURVE",
"298 1063 OFFCURVE",
"298 922 CURVE SMOOTH",
"298 759 LINE SMOOTH",
"298 664 OFFCURVE",
"357 598 OFFCURVE",
"474 555 CURVE {name = hr00;}"
);
}
);
width = 582;
}
);
},
{
color = 9;
glyphname = bracketleft.case;
lastChange = "2018-06-05 02:49:53 +0000";
layers = (
{
layerId = "184835E3-72D9-430C-A639-2454AC4A0BE8";
paths = (
{
closed = 1;
nodes = (
"465 1161 LINE",
"482 1196 OFFCURVE",
"489 1227 OFFCURVE",
"489 1266 CURVE",
"80 1266 LINE",
"80 -131 LINE",
"489 -131 LINE",
"489 -93 OFFCURVE",
"482 -61 OFFCURVE",
"465 -27 CURVE",
"313 -27 LINE",
"313 1161 LINE {name = hr00;}"
);
}
);
width = 459;
}
);
},
{
color = 9;
glyphname = bracketright.case;
lastChange = "2018-06-05 02:49:53 +0000";
layers = (
{
layerId = "184835E3-72D9-430C-A639-2454AC4A0BE8";
paths = (
{
closed = 1;
nodes = (
"218 10 LINE",
"78 10 LINE",
"62 -22 OFFCURVE",
"55 -51 OFFCURVE",
"55 -86 CURVE",
"433 -86 LINE",
"433 1203 LINE",
"55 1203 LINE",
"55 1167 OFFCURVE",
"62 1138 OFFCURVE",
"78 1106 CURVE",
"218 1106 LINE {name = hr00;}"
);
}
);
width = 435;
}
);
},
{
color = 9;
glyphname = hyphen;
lastChange = "2018-06-05 02:49:53 +0000";
layers = (
{
layerId = "184835E3-72D9-430C-A639-2454AC4A0BE8";
paths = (
{
closed = 1;
nodes = (
"83 695 OFFCURVE",
"80 668 OFFCURVE",
"80 639 CURVE SMOOTH",
"80 614 OFFCURVE",
"83 588 OFFCURVE",
"90 571 CURVE",
"635 571 LINE",
"641 585 OFFCURVE",
"644 612 OFFCURVE",
"644 638 CURVE SMOOTH",
"644 665 OFFCURVE",
"641 693 OFFCURVE",
"634 710 CURVE",
"91 710 LINE {name = hr00;}"
);
}
);
width = 724;
}
);
leftKerningGroup = hyphen;
rightKerningGroup = hyphen;
unicode = 002D;
},
{
color = 9;
glyphname = softhyphen;
lastChange = "2018-06-05 02:49:53 +0000";
layers = (
{
layerId = "184835E3-72D9-430C-A639-2454AC4A0BE8";
paths = (
{
closed = 1;
nodes = (
"84 695 OFFCURVE",
"80 668 OFFCURVE",
"80 639 CURVE SMOOTH",
"80 614 OFFCURVE",
"83 588 OFFCURVE",
"90 571 CURVE",
"697 571 LINE",
"703 585 OFFCURVE",
"707 612 OFFCURVE",
"707 638 CURVE SMOOTH",
"707 665 OFFCURVE",
"703 693 OFFCURVE",
"696 710 CURVE",
"90 710 LINE {name = hr00;}"
);
}
);
width = 787;
}
);
leftKerningGroup = hyphen;
rightKerningGroup = hyphen;
unicode = 00AD;
},
{
color = 9;
glyphname = endash;
lastChange = "2018-06-05 02:49:53 +0000";
layers = (
{
layerId = "184835E3-72D9-430C-A639-2454AC4A0BE8";
paths = (
{
closed = 1;
nodes = (
"83 695 OFFCURVE",
"80 668 OFFCURVE",
"80 639 CURVE SMOOTH",
"80 614 OFFCURVE",
"82 588 OFFCURVE",
"89 571 CURVE",
"1007 571 LINE",
"1013 585 OFFCURVE",
"1016 612 OFFCURVE",
"1016 638 CURVE SMOOTH",
"1016 665 OFFCURVE",
"1013 693 OFFCURVE",
"1007 710 CURVE",
"89 710 LINE {name = hr00;}"
);
}
);
width = 1096;
}
);
leftKerningGroup = hyphen;
rightKerningGroup = hyphen;
unicode = 2013;
},
{
color = 9;
glyphname = emdash;
lastChange = "2018-06-05 02:49:53 +0000";
layers = (
{
layerId = "184835E3-72D9-430C-A639-2454AC4A0BE8";
paths = (
{
closed = 1;
nodes = (
"83 695 OFFCURVE",
"80 668 OFFCURVE",
"80 639 CURVE SMOOTH",
"80 614 OFFCURVE",
"82 588 OFFCURVE",
"90 571 CURVE",
"1399 571 LINE",
"1406 585 OFFCURVE",
"1409 612 OFFCURVE",
"1409 638 CURVE SMOOTH",
"1409 665 OFFCURVE",
"1406 693 OFFCURVE",
"1399 710 CURVE",
"90 710 LINE {name = hr00;}"
);
}
);
width = 1489;
}
);
leftKerningGroup = hyphen;
rightKerningGroup = hyphen;
unicode = 2014;
},
{
color = 9;
glyphname = figuredash;
lastChange = "2018-06-05 02:49:53 +0000";
layers = (
{
layerId = "184835E3-72D9-430C-A639-2454AC4A0BE8";
paths = (
{
closed = 1;
nodes = (
"83 695 OFFCURVE",
"80 668 OFFCURVE",
"80 639 CURVE SMOOTH",
"80 614 OFFCURVE",
"82 588 OFFCURVE",
"89 571 CURVE",
"915 571 LINE",
"921 585 OFFCURVE",
"924 612 OFFCURVE",
"924 638 CURVE SMOOTH",
"924 665 OFFCURVE",
"921 693 OFFCURVE",
"915 710 CURVE",
"89 710 LINE {name = hr00;}"
);
}
);
width = 1004;
}
);
unicode = 2012;
},
{
color = 0;
glyphname = underscore;
lastChange = "2018-06-05 01:30:30 +0000";
layers = (
{
layerId = "184835E3-72D9-430C-A639-2454AC4A0BE8";
paths = (
{
closed = 1;
nodes = (
"1054 -392 LINE",
"1054 -270 LINE",
"46 -270 LINE",
"46 -392 LINE {name = hr00;}"
);
}
);
width = 1100;
}
);
leftKerningGroup = underscore;
rightKerningGroup = underscore;
unicode = 005F;
},
{
color = 0;
glyphname = hyphen.case;
lastChange = "2018-06-05 01:30:30 +0000";
layers = (
{
layerId = "184835E3-72D9-430C-A639-2454AC4A0BE8";
paths = (
{
closed = 1;
nodes = (
"76 695 OFFCURVE",
"73 668 OFFCURVE",
"73 639 CURVE SMOOTH",
"73 614 OFFCURVE",
"76 588 OFFCURVE",
"83 571 CURVE",
"628 571 LINE",
"634 585 OFFCURVE",
"637 612 OFFCURVE",
"637 638 CURVE SMOOTH",
"637 665 OFFCURVE",
"634 693 OFFCURVE",
"627 710 CURVE",
"84 710 LINE {name = hr00;}"
);
}
);
width = 710;
}
);
},
{
color = 0;
glyphname = endash.case;
lastChange = "2018-06-05 01:30:30 +0000";
layers = (
{
layerId = "184835E3-72D9-430C-A639-2454AC4A0BE8";
paths = (
{
closed = 1;
nodes = (
"98 695 OFFCURVE",
"95 668 OFFCURVE",
"95 639 CURVE SMOOTH",
"95 614 OFFCURVE",
"97 588 OFFCURVE",
"104 571 CURVE",
"1022 571 LINE",
"1028 585 OFFCURVE",
"1031 612 OFFCURVE",
"1031 638 CURVE SMOOTH",
"1031 665 OFFCURVE",
"1028 693 OFFCURVE",
"1022 710 CURVE",
"104 710 LINE {name = hr00;}"
);
}
);
width = 1126;
}
);
},
{
color = 0;
glyphname = emdash.case;
lastChange = "2018-06-05 01:30:30 +0000";
layers = (
{
layerId = "184835E3-72D9-430C-A639-2454AC4A0BE8";
paths = (
{
closed = 1;
nodes = (
"120 695 OFFCURVE",
"117 668 OFFCURVE",
"117 639 CURVE SMOOTH",
"117 614 OFFCURVE",
"119 588 OFFCURVE",
"127 571 CURVE",
"1436 571 LINE",
"1443 585 OFFCURVE",
"1446 612 OFFCURVE",
"1446 638 CURVE SMOOTH",
"1446 665 OFFCURVE",
"1443 693 OFFCURVE",
"1436 710 CURVE",
"127 710 LINE {name = hr00;}"
);
}
);
width = 1563;
}
);
},
{
color = 9;
glyphname = quoteleft;
lastChange = "2018-06-05 02:49:53 +0000";
layers = (
{
layerId = "184835E3-72D9-430C-A639-2454AC4A0BE8";
paths = (
{
closed = 1;
nodes = (
"196 1403 OFFCURVE",
"61 1255 OFFCURVE",
"61 1057 CURVE SMOOTH",
"61 906 OFFCURVE",
"138 830 OFFCURVE",
"240 830 CURVE SMOOTH",
"330 830 OFFCURVE",
"393 889 OFFCURVE",
"393 982 CURVE SMOOTH",
"393 1055 OFFCURVE",
"343 1124 OFFCURVE",
"249 1124 CURVE SMOOTH",
"242 1124 OFFCURVE",
"234 1123 OFFCURVE",
"225 1123 CURVE",
"225 1130 OFFCURVE",
"224 1136 OFFCURVE",
"224 1143 CURVE SMOOTH",
"224 1226 OFFCURVE",
"285 1315 OFFCURVE",
"380 1368 CURVE",
"380 1400 OFFCURVE",
"356 1433 OFFCURVE",
"330 1441 CURVE {name = hr00;}"
);
}
);
width = 454;
}
);
leftKerningGroup = quotedblleft;
rightKerningGroup = quotedblleft;
unicode = 2018;
},
{
color = 9;
glyphname = quoteright;
lastChange = "2018-06-05 02:49:53 +0000";
layers = (
{
layerId = "184835E3-72D9-430C-A639-2454AC4A0BE8";
paths = (
{
closed = 1;
nodes = (
"258 868 OFFCURVE",
"393 1016 OFFCURVE",
"393 1214 CURVE SMOOTH",
"393 1365 OFFCURVE",
"316 1441 OFFCURVE",
"214 1441 CURVE SMOOTH",
"124 1441 OFFCURVE",
"61 1382 OFFCURVE",
"61 1289 CURVE SMOOTH",
"61 1216 OFFCURVE",
"111 1147 OFFCURVE",
"205 1147 CURVE SMOOTH",
"212 1147 OFFCURVE",
"220 1148 OFFCURVE",
"229 1148 CURVE",
"229 1141 OFFCURVE",
"230 1135 OFFCURVE",
"230 1128 CURVE SMOOTH",
"230 1045 OFFCURVE",
"169 956 OFFCURVE",
"74 903 CURVE",
"74 871 OFFCURVE",
"98 838 OFFCURVE",
"124 830 CURVE {name = hr00;}"
);
}
);
width = 454;
}
);
leftKerningGroup = quotedblleft;
rightKerningGroup = quotedblleft;
unicode = 2019;
},
{
glyphname = quotereversed;
lastChange = "2018-06-03 05:48:24 +0000";
layers = (
{
layerId = "184835E3-72D9-430C-A639-2454AC4A0BE8";
paths = (
{
closed = 1;
nodes = (
"359 946 OFFCURVE",
"383 979 OFFCURVE",
"383 1011 CURVE",
"289 1063 OFFCURVE",
"227 1153 OFFCURVE",
"227 1236 CURVE SMOOTH",
"227 1243 OFFCURVE",
"228 1249 OFFCURVE",
"229 1256 CURVE",
"237 1255 OFFCURVE",
"245 1255 OFFCURVE",
"253 1255 CURVE SMOOTH",
"346 1255 OFFCURVE",
"396 1324 OFFCURVE",
"396 1396 CURVE SMOOTH",
"396 1489 OFFCURVE",
"333 1549 OFFCURVE",
"244 1549 CURVE SMOOTH",
"142 1549 OFFCURVE",
"64 1473 OFFCURVE",
"64 1322 CURVE SMOOTH",
"64 1123 OFFCURVE",
"199 976 OFFCURVE",
"334 938 CURVE {name = hr00;}"
);
}
);
width = 457;
}
);
leftKerningGroup = quotereversed;
rightKerningGroup = quotereversed;
unicode = 201B;
},
{
glyphname = guillemetleft;
lastChange = "2018-06-03 21:12:06 +0000";
layers = (
{
layerId = "184835E3-72D9-430C-A639-2454AC4A0BE8";
paths = (
{
closed = 1;
nodes = (
"424 764 LINE",
"407 798 OFFCURVE",
"381 817 OFFCURVE",
"350 830 CURVE",
"50 541 LINE",
"50 447 LINE",
"350 157 LINE",
"381 171 OFFCURVE",
"407 190 OFFCURVE",
"424 223 CURVE",
"245 552 LINE",
"245 435 LINE {name = hr00;}"
);
},
{
closed = 1;
nodes = (
"786 764 LINE",
"769 798 OFFCURVE",
"743 817 OFFCURVE",
"712 830 CURVE",
"412 541 LINE",
"412 447 LINE",
"712 157 LINE",
"743 171 OFFCURVE",
"769 190 OFFCURVE",
"786 223 CURVE",
"607 552 LINE",
"607 435 LINE {name = hr00;}"
);
}
);
width = 856;
}
);
unicode = 00AB;
},
{
glyphname = guillemetright;
lastChange = "2018-06-03 21:11:56 +0000";
layers = (
{
layerId = "184835E3-72D9-430C-A639-2454AC4A0BE8";
paths = (
{
closed = 1;
nodes = (
"611 552 LINE",
"432 223 LINE",
"449 190 OFFCURVE",
"475 171 OFFCURVE",
"506 157 CURVE",
"806 447 LINE",
"806 541 LINE",
"506 830 LINE",
"475 817 OFFCURVE",
"449 798 OFFCURVE",
"432 764 CURVE",
"611 435 LINE {name = hr00;}"
);
},
{
closed = 1;
nodes = (
"249 552 LINE",
"70 223 LINE",
"87 190 OFFCURVE",
"113 171 OFFCURVE",
"144 157 CURVE",
"444 447 LINE",
"444 541 LINE",
"144 830 LINE",
"113 817 OFFCURVE",
"87 798 OFFCURVE",
"70 764 CURVE",
"249 435 LINE {name = hr00;}"
);
}
);
width = 856;
}
);
leftKerningGroup = guillemetright;
rightKerningGroup = guillemetright;
unicode = 00BB;
},
{
color = 9;
glyphname = guilsinglleft;
lastChange = "2018-06-05 02:49:53 +0000";
layers = (
{
layerId = "184835E3-72D9-430C-A639-2454AC4A0BE8";
paths = (
{
closed = 1;
nodes = (
"424 764 LINE",
"407 798 OFFCURVE",
"381 817 OFFCURVE",
"350 830 CURVE",
"50 541 LINE",
"50 447 LINE",
"350 157 LINE",
"381 171 OFFCURVE",
"407 190 OFFCURVE",
"424 223 CURVE",
"245 552 LINE",
"245 435 LINE {name = hr00;}"
);
}
);
width = 494;
}
);
leftKerningGroup = guillemotleft;
rightKerningGroup = guillemotleft;
unicode = 2039;
},
{
color = 9;
glyphname = guilsinglright;
lastChange = "2018-06-05 02:49:53 +0000";
layers = (
{
layerId = "184835E3-72D9-430C-A639-2454AC4A0BE8";
paths = (
{
closed = 1;
nodes = (
"249 551 LINE",
"70 222 LINE",
"87 189 OFFCURVE",
"113 170 OFFCURVE",
"144 156 CURVE",
"444 446 LINE",
"444 540 LINE",
"144 829 LINE",
"113 816 OFFCURVE",
"87 797 OFFCURVE",
"70 763 CURVE",
"249 434 LINE {name = hr00;}"
);
}
);
width = 494;
}
);
leftKerningGroup = guillemotright;
rightKerningGroup = guillemotright;
unicode = 203A;
},
{
glyphname = quotesingle;
lastChange = "2018-06-03 05:48:24 +0000";
layers = (
{
layerId = "184835E3-72D9-430C-A639-2454AC4A0BE8";
paths = (
{
closed = 1;
nodes = (
"245 1526 OFFCURVE",
"204 1530 OFFCURVE",
"164 1530 CURVE SMOOTH",
"122 1530 OFFCURVE",
"79 1525 OFFCURVE",
"60 1519 CURVE",
"92 952 LINE",
"115 943 OFFCURVE",
"150 938 OFFCURVE",
"183 938 CURVE SMOOTH",
"204 938 OFFCURVE",
"225 940 OFFCURVE",
"240 945 CURVE",
"264 1519 LINE {name = hr00;}"
);
}
);
width = 324;
}
);
leftKerningGroup = quotesingle;
rightKerningGroup = quotesingle;
unicode = 0027;
},
{
color = 0;
glyphname = "leftanglebracket-math";
lastChange = "2018-06-03 21:14:56 +0000";
layers = (
{
layerId = "184835E3-72D9-430C-A639-2454AC4A0BE8";
paths = (
{
closed = 1;
nodes = (
"296 1137 LINE",
"50 564 LINE",
"296 -10 LINE",
"368 21 LINE",
"135 564 LINE",
"368 1106 LINE"
);
}
);
width = 600;
}
);
unicode = 27E8;
},
{
glyphname = .notdef;
lastChange = "2018-06-03 05:48:24 +0000";
layers = (
{
layerId = "184835E3-72D9-430C-A639-2454AC4A0BE8";
paths = (
{
closed = 1;
nodes = (
"521 513 LINE",
"283 747 LINE",
"362 827 LINE",
"592 583 LINE",
"818 826 LINE",
"901 746 LINE",
"660 515 LINE",
"901 278 LINE",
"823 199 LINE",
"590 444 LINE",
"365 199 LINE",
"284 293 LINE"
);
},
{
closed = 1;
nodes = (
"1081 25 LINE",
"1081 1005 LINE",
"101 1005 LINE",
"101 25 LINE"
);
}
);
width = 1182;
}
);
leftKerningGroup = .notdef;
rightKerningGroup = .notdef;
},
